<svg version="1.1" xmlns="http://www.w3.org/2000/svg" xmlns:xlink="http://www.w3.org/1999/xlink" width="638" height="630"><defs><clipPath id="SHCDrbDvuJPx"><path fill="none" stroke="none" d=" M 0 0 L 638 0 L 638 630 L 0 630 L 0 0 Z"/></clipPath></defs><g transform="scale(1,1)" clip-path="url(#SHCDrbDvuJPx)"><g><path fill="rgb(110,109,115)" stroke="none" paint-order="stroke fill markers" fill-rule="evenodd" d=" M 558.6535194696363 468.1430206815534 L 239.20154689831992 540.5008333047159 L 78.87115536798817 486.7243851565694 L 398.3231279393045 414.3665725334069 Z" fill-opacity="0.09803921568627451"/><path fill="none" stroke="rgb(28,28,31)" paint-order="fill stroke markers" d=" M 203.2179525795588 473.8806825834028 L 0 421.36966059523166" stroke-opacity="0.6980392156862745" stroke-linecap="round" stroke-linejoin="round" stroke-miterlimit="10" stroke-width="2.5"/><path fill="none" stroke="rgb(0,0,0)" paint-order="fill stroke markers" d=" M 203.2179525795588 473.8806825834028 L 639 586.4856979556854" stroke-opacity="0.6980392156862745" stroke-linejoin="round" stroke-miterlimit="10" stroke-width="2.5" stroke-dasharray="2.5,3"/><path fill="rgb(20,62,146)" stroke="none" paint-order="stroke fill markers" d=" M 247.27992218788154 444.1176357986338 C 246.7574515645525 444.1176357986338 246.2702781428172 444.4477947486632 246.0949655105759 444.9704760326712 C 245.8754327615832 445.6249962327179 246.22805976337673 446.33355614653084 246.88257996342347 446.5530888955235 L 391.09542574699606 494.92354785563754 L 391.095425746996 494.92354785563754 L 390.1414276549903 497.7678206344774 L 407.61047069875764 499.14442338582 L 392.8444222490065 489.70904776109774 L 391.89042415700084 492.5533205399376 L 391.8904241570008 492.5533205399376 L 247.67757837342825 444.18286157982357 C 247.5457394573895 444.1386414630722 247.41170796776177 444.1176357986338 247.27992218788154 444.1176357986338 Z" fill-opacity="0.6980392156862745"/><path fill="rgb(176,0,32)" stroke="none" paint-order="stroke fill markers" d=" M 452.3652231180837 437.97932026532504 L 453.02795329265444 440.90520281862644 L 453.0279532926542 440.90520281862644 L 150.15598185671257 509.50754445255455 C 149.48268172588578 509.66005102283293 149.06049512862978 510.32949962500777 149.21300169890816 511.0027997558346 C 149.3444546647251 511.58315048381024 149.85997332331635 511.97693465831355 150.43097891911054 511.97693465831355 C 150.52243159866327 511.97693465831355 150.615307599337 511.96683351810043 150.7082570021882 511.945779913639 L 453.58022843812955 443.34343827971094 L 453.58022843813006 443.34343827971094 L 454.2429586127008 446.2693208330122 L 469.88409200076677 438.3688495599343 L 452.36522311808625 437.97932026532504 Z" fill-opacity="0.6980392156862745"/><path fill="rgb(0,103,88)" stroke="none" paint-order="stroke fill markers" d=" M 318.8410432298881 55.47419338644937 L 314.5910432298881 72.47419338644937 L 317.5910432298881 72.47419338644937 L 317.5910432298881 561.2975232040642 C 317.5910432298881 561.9878791413527 318.1506872925996 562.5475232040642 318.8410432298881 562.5475232040642 C 319.5313991671766 562.5475232040642 320.0910432298881 561.9878791413527 320.0910432298881 561.2975232040642 L 320.0910432298881 72.47419338644937 L 323.0910432298881 72.47419338644937 L 318.8410432298881 55.47419338644937 Z" fill-opacity="0.6980392156862745"/><path fill="rgb(28,28,31)" stroke="none" paint-order="stroke fill markers" d=" M 208.2179525795588 473.8806825834028 C 208.2179525795588 476.64210633255675 205.9793763287128 478.8806825834028 203.2179525795588 478.8806825834028 C 200.45652883040484 478.8806825834028 198.2179525795588 476.64210633255675 198.2179525795588 473.8806825834028 C 198.2179525795588 471.11925883424885 200.45652883040484 468.8806825834028 203.2179525795588 468.8806825834028 C 205.9793763287128 468.8806825834028 208.2179525795588 471.11925883424885 208.2179525795588 473.8806825834028 Z" fill-opacity="1"/><text fill="rgb(20,62,146)" stroke="none" font-family="geogebra-sans-serif, sans-serif" font-size="16px" font-style="normal" font-weight="bold" text-decoration="normal" x="408" y="499" text-anchor="start" dominant-baseline="alphabetic" fill-opacity="1">x</text><text fill="rgb(176,0,32)" stroke="none" font-family="geogebra-sans-serif, sans-serif" font-size="16px" font-style="normal" font-weight="bold" text-decoration="normal" x="470" y="438" text-anchor="start" dominant-baseline="alphabetic" fill-opacity="1">y</text><text fill="rgb(0,103,88)" stroke="none" font-family="geogebra-sans-serif, sans-serif" font-size="16px" font-style="normal" font-weight="bold" text-decoration="normal" x="319" y="55" text-anchor="start" dominant-baseline="alphabetic" fill-opacity="1">z</text></g></g></svg>