<svg version="1.1" xmlns="http://www.w3.org/2000/svg" xmlns:xlink="http://www.w3.org/1999/xlink" width="562" height="630"><defs><clipPath id="TJKCTkXZwbMz"><path fill="none" stroke="none" d=" M 0 0 L 562 0 L 562 630 L 0 630 L 0 0 Z"/></clipPath></defs><g transform="scale(1,1)" clip-path="url(#TJKCTkXZwbMz)"><g><path fill="rgb(110,109,115)" stroke="none" paint-order="stroke fill markers" fill-rule="evenodd" d=" M 450.17471867483346 471.85875259437336 L 400.1292166811359 454.67895340250703 L 121.51769065652087 477.83433492197906 L 171.56319265021847 495.0141341138454 Z" fill-opacity="0.09803921568627451"/><path fill="none" stroke="rgb(0,0,0)" paint-order="fill stroke markers" d=" M -5 395.4790113301026 L 568 297.22264460684306" stroke-opacity="0.6980392156862745" stroke-linecap="round" stroke-linejoin="round" stroke-miterlimit="10" stroke-width="2.5"/><path fill="rgb(176,0,32)" stroke="none" paint-order="stroke fill markers" d=" M 266.4254763971608 461.64503880758787 C 265.9063136874729 461.64503880758787 265.42128259050673 461.9710062098414 265.24328443042816 462.48952258920065 C 265.0191360672567 463.1424765167001 265.366751659695 463.8535084103239 266.0197055871945 464.0776567734954 L 299.98623126167655 475.7378073781683 L 299.0121756286424 478.5752737874417 L 316.4710640946563 480.0751782948312 L 301.7719999222391 470.5357856278339 L 300.79794428920496 473.37325203710725 L 266.8314186147229 461.7131014324343 C 266.6969810665827 461.6669512293414 266.5600815216171 461.64503880758787 266.4254763971608 461.64503880758787 Z" fill-opacity="0.6980392156862745"/><path fill="rgb(0,103,88)" stroke="none" paint-order="stroke fill markers" d=" M 402.25626497220185 458.5741000843337 L 402.5047380736579 461.56379256314364 L 140.83480276229932 483.3111598410313 C 140.14681877782826 483.3683381346469 139.63544972811965 483.97241151500447 139.6926280217352 484.6603954994755 C 139.74687949180216 485.3131631877007 140.29347044177814 485.80693419222354 140.93693646929037 485.80693419222354 C 140.97165094835813 485.80693419222354 141.00664738393348 485.8054970635882 141.04186368017935 485.8025702400396 L 402.711798991538 464.0552029621519 L 402.96027209299405 467.04489544096185 L 419.54985924585435 461.4014835210634 L 402.25626497220185 458.5741000843337 Z" fill-opacity="0.6980392156862745"/><path fill="rgb(21,101,192)" stroke="none" paint-order="stroke fill markers" d=" M 285.8462046656772 147.6834113217655 L 281.5962046656772 164.6834113217655 L 284.5962046656772 164.6834113217655 L 284.5962046656772 541.3248971527894 C 284.5962046656772 542.0152530900779 285.1558487283887 542.5748971527894 285.8462046656772 542.5748971527894 C 286.53656060296566 542.5748971527894 287.0962046656772 542.0152530900779 287.0962046656772 541.3248971527894 L 287.0962046656772 164.6834113217655 L 290.0962046656772 164.6834113217655 L 285.8462046656772 147.6834113217655 Z" fill-opacity="0.6980392156862745"/><text fill="rgb(21,101,192)" stroke="none" font-family="geogebra-sans-serif, sans-serif" font-size="16px" font-style="normal" font-weight="bold" text-decoration="normal" x="286" y="148" text-anchor="start" dominant-baseline="alphabetic" fill-opacity="1">z</text><text fill="rgb(176,0,32)" stroke="none" font-family="geogebra-sans-serif, sans-serif" font-size="16px" font-style="normal" font-weight="bold" text-decoration="normal" x="316" y="480" text-anchor="start" dominant-baseline="alphabetic" fill-opacity="1">x</text><text fill="rgb(0,103,88)" stroke="none" font-family="geogebra-sans-serif, sans-serif" font-size="16px" font-style="normal" font-weight="bold" text-decoration="normal" x="420" y="461" text-anchor="start" dominant-baseline="alphabetic" fill-opacity="1">y</text></g></g></svg>