<svg version="1.1" xmlns="http://www.w3.org/2000/svg" xmlns:xlink="http://www.w3.org/1999/xlink" width="638" height="630"><defs><clipPath id="fNgxcPIreWBZ"><path fill="none" stroke="none" d=" M 0 0 L 638 0 L 638 630 L 0 630 L 0 0 Z"/></clipPath></defs><g transform="scale(1,1)" clip-path="url(#fNgxcPIreWBZ)"><g><path fill="rgb(110,109,115)" stroke="none" paint-order="stroke fill markers" fill-rule="evenodd" d=" M 533.6285727907143 468.87935963114194 L 168.12270563233383 497.8224846804069 L 103.99054902020117 476.3119054211483 L 469.4964161785816 447.3687803718833 Z" fill-opacity="0.09803921568627451"/><path fill="none" stroke="rgb(28,28,31)" paint-order="fill stroke markers" d=" M 218.5633801220623 471.17442439188164 L 0 384.3393761588462" stroke-opacity="0.6980392156862745" stroke-linecap="round" stroke-linejoin="round" stroke-miterlimit="10" stroke-width="2.5"/><path fill="none" stroke="rgb(0,0,0)" paint-order="fill stroke markers" d=" M 218.5633801220623 471.17442439188164 L 639 638.213542041169" stroke-opacity="0.6980392156862745" stroke-linejoin="round" stroke-miterlimit="10" stroke-width="2.5" stroke-dasharray="2.5,3"/><path fill="rgb(20,62,146)" stroke="none" paint-order="stroke fill markers" d=" M 290.2165006247589 458.5190020145502 C 289.6940300014299 458.5190020145502 289.20685657969454 458.84916096457965 289.03154394745326 459.3718422485876 C 288.8120111984606 460.0263624486343 289.16463820025416 460.73492236244726 289.81915840030086 460.9544551114399 L 337.83376926567433 477.0590451826661 L 337.8337692656743 477.0590451826661 L 336.8797711736686 479.903317961506 L 354.3488142174345 481.2799207128485 L 354.34881421743574 481.2799207128485 L 339.5827657676848 471.8445450881263 L 338.6287676756791 474.6888178669662 L 338.62876767567906 474.6888178669662 L 290.6141568103056 458.58422779574 C 290.4823178942668 458.5400076789886 290.3482864046391 458.5190020145502 290.2165006247589 458.5190020145502 Z" fill-opacity="0.6980392156862745"/><path fill="rgb(176,0,32)" stroke="none" paint-order="stroke fill markers" d=" M 480.83835933697077 454.0749230738826 L 481.075177469777 457.0655613288332 L 132.51626042278346 484.66671695886316 C 131.8280587975877 484.7212132268766 131.31433910387648 485.32328882856615 131.36883537188993 486.0114904537619 C 131.4206734109968 486.66612285448923 131.9679737960207 487.16287999993057 132.61356951075678 487.16287999993057 C 132.6466753384545 487.16287999993057 132.68003964232022 487.16157373356197 132.71360886678863 487.1589155046554 L 481.2725259137821 459.55775987462545 L 481.5093440465883 462.54839812957607 L 498.1208018031665 456.9696911824943 L 480.83835933697077 454.0749230738826 Z" fill-opacity="0.6980392156862745"/><path fill="rgb(0,103,88)" stroke="none" paint-order="stroke fill markers" d=" M 318.8410432298881 66.08675058324644 L 314.5910432298881 83.08675058324644 L 317.5910432298881 83.08675058324644 L 317.5910432298881 565.5724301726098 C 317.5910432298881 566.2627861098982 318.1506872925996 566.8224301726098 318.8410432298881 566.8224301726098 C 319.5313991671766 566.8224301726098 320.0910432298881 566.2627861098982 320.0910432298881 565.5724301726098 L 320.0910432298881 83.08675058324644 L 323.0910432298881 83.08675058324644 L 318.8410432298881 66.08675058324644 Z" fill-opacity="0.6980392156862745"/><path fill="rgb(28,28,31)" stroke="none" paint-order="stroke fill markers" d=" M 223.5633801220623 471.17442439188164 C 223.5633801220623 473.9358481410356 221.3248038712163 476.17442439188164 218.5633801220623 476.17442439188164 C 215.80195637290834 476.17442439188164 213.5633801220623 473.9358481410356 213.5633801220623 471.17442439188164 C 213.5633801220623 468.4130006427277 215.80195637290834 466.17442439188164 218.5633801220623 466.17442439188164 C 221.3248038712163 466.17442439188164 223.5633801220623 468.4130006427277 223.5633801220623 471.17442439188164 Z" fill-opacity="1"/><text fill="rgb(20,62,146)" stroke="none" font-family="geogebra-sans-serif, sans-serif" font-size="16px" font-style="normal" font-weight="bold" text-decoration="normal" x="354" y="481" text-anchor="start" dominant-baseline="alphabetic" fill-opacity="1">x</text><text fill="rgb(176,0,32)" stroke="none" font-family="geogebra-sans-serif, sans-serif" font-size="16px" font-style="normal" font-weight="bold" text-decoration="normal" x="498" y="457" text-anchor="start" dominant-baseline="alphabetic" fill-opacity="1">y</text><text fill="rgb(0,103,88)" stroke="none" font-family="geogebra-sans-serif, sans-serif" font-size="16px" font-style="normal" font-weight="bold" text-decoration="normal" x="319" y="66" text-anchor="start" dominant-baseline="alphabetic" fill-opacity="1">z</text></g></g></svg>