<svg version="1.1" xmlns="http://www.w3.org/2000/svg" xmlns:xlink="http://www.w3.org/1999/xlink" width="638" height="630"><defs><clipPath id="RPqWgUawvIoQ"><path fill="none" stroke="none" d=" M 0 0 L 638 0 L 638 630 L 0 630 L 0 0 Z"/></clipPath></defs><g transform="scale(1,1)" clip-path="url(#RPqWgUawvIoQ)"><g><path fill="rgb(110,109,115)" stroke="none" paint-order="stroke fill markers" fill-rule="evenodd" d=" M 579.5076417020712 467.5294048902296 L 298.433914619975 576.0661238249734 L 57.93832732447737 495.4014516027536 L 339.0120544065736 386.8647326680099 Z" fill-opacity="0.09803921568627451"/><path fill="none" stroke="rgb(28,28,31)" paint-order="fill stroke markers" d=" M 190.4300962941392 476.1358977430037 L 0 449.240988965993" stroke-opacity="0.6980392156862745" stroke-linecap="round" stroke-linejoin="round" stroke-miterlimit="10" stroke-width="2.5"/><path fill="none" stroke="rgb(0,0,0)" paint-order="fill stroke markers" d=" M 190.4300962941392 476.1358977430037 L 639.0000000000001 539.4885235886952" stroke-opacity="0.6980392156862745" stroke-linejoin="round" stroke-miterlimit="10" stroke-width="2.5" stroke-dasharray="2.5,3"/><path fill="rgb(20,62,146)" stroke="none" paint-order="stroke fill markers" d=" M 211.49944015715042 432.1164972853701 C 210.97696953382138 432.1164972853701 210.4897961120861 432.4466562353995 210.3144834798448 432.9693375194074 C 210.0949507308521 433.6238577194541 210.44757773264564 434.33241763326714 211.10209793269237 434.5519503822598 L 435.48013948143085 509.81063341644716 L 435.4801394814308 509.81063341644716 L 434.5261413894251 512.654906195287 L 451.99518443319243 514.0315089466296 L 437.2291359834413 504.59613332190736 L 436.27513789143563 507.4404061007472 L 436.2751378914356 507.4404061007472 L 211.89709634269715 432.18172306655987 C 211.7652574266584 432.1375029498085 211.63122593703068 432.1164972853701 211.49944015715042 432.1164972853701 Z" fill-opacity="0.6980392156862745"/><path fill="rgb(176,0,32)" stroke="none" paint-order="stroke fill markers" d=" M 446.3535004987665 422.868148207801 L 428.96383424955 425.02731650620785 L 430.0445127039242 427.8259115248291 L 430.044512703924 427.8259115248291 L 164.82949072734812 530.2387858847859 C 164.1854818316244 530.4874701472115 163.8650078964862 531.2111409361436 164.11369215891185 531.8551498318673 C 164.30521179246293 532.35112149694 164.77844728094703 532.6552036600253 165.28005336702205 532.6552036600253 C 165.4297723552012 532.6552036600253 165.58201887534227 532.6281130291782 165.73005610599324 532.5709484003036 L 430.94507808256935 430.1580740403467 L 432.0257565369435 432.9566690589679 L 446.3535004987669 422.868148207801 Z" fill-opacity="0.6980392156862745"/><path fill="rgb(0,103,88)" stroke="none" paint-order="stroke fill markers" d=" M 318.8410432298881 46.63039572245174 L 314.5910432298881 63.63039572245174 L 317.5910432298881 63.63039572245174 L 317.5910432298881 557.7351007302763 C 317.5910432298881 558.4254566675647 318.1506872925996 558.9851007302763 318.8410432298881 558.9851007302763 C 319.5313991671766 558.9851007302763 320.0910432298881 558.4254566675647 320.0910432298881 557.7351007302763 L 320.0910432298881 63.63039572245174 L 323.0910432298881 63.63039572245174 L 318.8410432298881 46.63039572245174 Z" fill-opacity="0.6980392156862745"/><path fill="rgb(28,28,31)" stroke="none" paint-order="stroke fill markers" d=" M 195.4300962941392 476.1358977430037 C 195.4300962941392 478.89732149215763 193.19152004329317 481.1358977430037 190.4300962941392 481.1358977430037 C 187.6686725449852 481.1358977430037 185.4300962941392 478.89732149215763 185.4300962941392 476.1358977430037 C 185.4300962941392 473.37447399384973 187.6686725449852 471.1358977430037 190.4300962941392 471.1358977430037 C 193.19152004329317 471.1358977430037 195.4300962941392 473.37447399384973 195.4300962941392 476.1358977430037 Z" fill-opacity="1"/><text fill="rgb(20,62,146)" stroke="none" font-family="geogebra-sans-serif, sans-serif" font-size="16px" font-style="normal" font-weight="bold" text-decoration="normal" x="452" y="514" text-anchor="start" dominant-baseline="alphabetic" fill-opacity="1">x</text><text fill="rgb(176,0,32)" stroke="none" font-family="geogebra-sans-serif, sans-serif" font-size="16px" font-style="normal" font-weight="bold" text-decoration="normal" x="446" y="423" text-anchor="start" dominant-baseline="alphabetic" fill-opacity="1">y</text><text fill="rgb(0,103,88)" stroke="none" font-family="geogebra-sans-serif, sans-serif" font-size="16px" font-style="normal" font-weight="bold" text-decoration="normal" x="319" y="47" text-anchor="start" dominant-baseline="alphabetic" fill-opacity="1">z</text></g></g></svg>