<svg version="1.1" xmlns="http://www.w3.org/2000/svg" xmlns:xlink="http://www.w3.org/1999/xlink" width="562" height="630"><defs><clipPath id="HeAhHwGloAum"><path fill="none" stroke="none" d=" M 0 0 L 562 0 L 562 630 L 0 630 L 0 0 Z"/></clipPath></defs><g transform="scale(1,1)" clip-path="url(#HeAhHwGloAum)"><g><path fill="rgb(110,109,115)" stroke="none" paint-order="stroke fill markers" fill-rule="evenodd" d=" M 483.7873692676155 476.9006501832907 L 321.1394877880983 421.06630280972513 L 87.90504006373891 496.3212927480091 L 250.55292154325613 552.1556401215746 Z" fill-opacity="0.09803921568627451"/><path fill="none" stroke="rgb(0,0,0)" paint-order="fill stroke markers" d=" M 276.5751737642921 636 L 320.37786866323336 -5" stroke-opacity="0.6980392156862745" stroke-linecap="round" stroke-linejoin="round" stroke-miterlimit="10" stroke-width="2.5"/><path fill="rgb(176,0,32)" stroke="none" paint-order="stroke fill markers" d=" M 222.72903062654427 446.519346040836 C 222.20986791685638 446.519346040836 221.72483681989016 446.84531344308954 221.5468386598116 447.3638298224488 C 221.32269029664016 448.0167837499483 221.67030588907846 448.72781564357206 222.32325981657795 448.95196400674354 L 368.8921649768796 499.2666627931157 L 367.91810934384546 502.10412920238906 L 385.37699780985866 503.6040337097785 L 385.37699780985923 503.6040337097785 L 370.67793363744215 494.06464104278126 L 369.70387800440807 496.9021074520545 L 369.70387800440767 496.9021074520545 L 223.13497284410636 446.58740866568246 C 223.00053529596613 446.54125846258955 222.86363575100057 446.519346040836 222.72903062654427 446.519346040836 Z" fill-opacity="0.6980392156862745"/><path fill="rgb(0,103,88)" stroke="none" paint-order="stroke fill markers" d=" M 384.25657612343247 442.91452569503343 L 366.7728502578214 444.0900382879612 L 367.69405895971715 446.9450995005364 L 150.6382914399507 516.9799067947444 C 149.98128862014292 517.1918940936896 149.62053226155575 517.8963497726329 149.83251956050094 518.5533525924407 C 150.0033468128111 519.082789907913 150.4939700297741 519.4198525924671 151.02185414684328 519.4198525924671 C 151.14904541511362 519.4198525924671 151.2783998538618 519.4002845185254 151.4059653581972 519.3591244718904 L 368.46173287796364 449.3243171776824 L 369.3829415798594 452.1793783902576 L 384.2565761234332 442.91452569503343 Z" fill-opacity="0.6980392156862745"/><path fill="rgb(21,101,192)" stroke="none" paint-order="stroke fill markers" d=" M 285.8462046656772 95.5838029029535 L 281.5962046656772 112.5838029029535 L 284.5962046656772 112.5838029029535 L 284.5962046656772 534.602367034233 C 284.5962046656772 535.2927229715215 285.1558487283887 535.852367034233 285.8462046656772 535.852367034233 C 286.53656060296566 535.852367034233 287.0962046656772 535.2927229715215 287.0962046656772 534.602367034233 L 287.0962046656772 112.5838029029535 L 290.0962046656772 112.5838029029535 L 285.8462046656772 95.5838029029535 Z" fill-opacity="0.6980392156862745"/><text fill="rgb(21,101,192)" stroke="none" font-family="geogebra-sans-serif, sans-serif" font-size="16px" font-style="normal" font-weight="bold" text-decoration="normal" x="286" y="96" text-anchor="start" dominant-baseline="alphabetic" fill-opacity="1">z</text><text fill="rgb(176,0,32)" stroke="none" font-family="geogebra-sans-serif, sans-serif" font-size="16px" font-style="normal" font-weight="bold" text-decoration="normal" x="385" y="504" text-anchor="start" dominant-baseline="alphabetic" fill-opacity="1">x</text><text fill="rgb(0,103,88)" stroke="none" font-family="geogebra-sans-serif, sans-serif" font-size="16px" font-style="normal" font-weight="bold" text-decoration="normal" x="384" y="443" text-anchor="start" dominant-baseline="alphabetic" fill-opacity="1">y</text></g></g></svg>