<svg version="1.1" xmlns="http://www.w3.org/2000/svg" xmlns:xlink="http://www.w3.org/1999/xlink" width="562" height="630"><defs><clipPath id="kSbuznsxMKkt"><path fill="none" stroke="none" d=" M 0 0 L 562 0 L 562 630 L 0 630 L 0 0 Z"/></clipPath></defs><g transform="scale(1,1)" clip-path="url(#kSbuznsxMKkt)"><g><path fill="rgb(110,109,115)" stroke="none" paint-order="stroke fill markers" fill-rule="evenodd" d=" M 494.99158613187615 478.58128271292975 L 294.80957815708575 409.8620859454645 L 76.70082319947824 502.48361202335246 L 276.88283117426863 571.2028087908177 Z" fill-opacity="0.09803921568627451"/><path fill="none" stroke="rgb(0,0,0)" paint-order="fill stroke markers" d=" M 360.18467532065836 636 L 215.2544780520694 -5" stroke-opacity="0.6980392156862745" stroke-linecap="round" stroke-linejoin="round" stroke-miterlimit="10" stroke-width="2.5"/><path fill="rgb(176,0,32)" stroke="none" paint-order="stroke fill markers" d=" M 208.1635487030054 441.47744845191875 C 207.6443859933175 441.47744845191875 207.1593548963513 441.8034158541723 206.98135673627274 442.3219322335315 C 206.7572083731013 442.974886161031 207.1048239655396 443.6859180546548 207.75777789303908 443.9100664178263 L 391.860809548614 507.1096145980981 L 390.88675391557985 509.9470810073715 L 408.34564238159373 511.44698551476097 L 393.64657820917654 501.9075928477637 L 392.6725225761424 504.74505925703704 L 208.5694909205675 441.5455110767652 C 208.43505337242726 441.4993608736723 208.2981538274617 441.47744845191875 208.1635487030054 441.47744845191875 Z" fill-opacity="0.6980392156862745"/><path fill="rgb(0,103,88)" stroke="none" paint-order="stroke fill markers" d=" M 372.4921484159596 436.75220641969 L 355.18338149967803 439.4851696169976 L 356.3560023871042 442.24650267448493 L 356.35600238710407 442.24650267448493 L 153.89480142192457 528.2231770569583 L 153.8948014219246 528.2231770569583 C 153.2593671982355 528.4930189875661 152.9629960871248 529.2268903103164 153.2328380177325 529.8623245340056 C 153.43497250157498 530.3383186411186 153.89748687530454 530.6240549382462 154.38395821837844 530.6240549382462 C 154.54690781479482 530.6240549382462 154.71254537820357 530.5919953849628 154.8719854947797 530.5242879381976 L 357.3331864599592 444.5476135557243 L 357.3331864599593 444.5476135557243 L 358.50580734738537 447.30894661321156 L 372.4921484159596 436.75220641969 Z" fill-opacity="0.6980392156862745"/><path fill="rgb(21,101,192)" stroke="none" paint-order="stroke fill markers" d=" M 285.8462046656772 78.21726676334947 L 281.5962046656772 95.21726676334947 L 284.5962046656772 95.21726676334947 L 284.5962046656772 532.3615236613808 C 284.5962046656772 533.0518795986693 285.1558487283887 533.6115236613808 285.8462046656772 533.6115236613808 C 286.53656060296566 533.6115236613808 287.0962046656772 533.0518795986693 287.0962046656772 532.3615236613808 L 287.0962046656772 95.21726676334947 L 290.0962046656772 95.21726676334947 L 285.8462046656772 78.21726676334947 Z" fill-opacity="0.6980392156862745"/><text fill="rgb(21,101,192)" stroke="none" font-family="geogebra-sans-serif, sans-serif" font-size="16px" font-style="normal" font-weight="bold" text-decoration="normal" x="286" y="78" text-anchor="start" dominant-baseline="alphabetic" fill-opacity="1">z</text><text fill="rgb(176,0,32)" stroke="none" font-family="geogebra-sans-serif, sans-serif" font-size="16px" font-style="normal" font-weight="bold" text-decoration="normal" x="408" y="511" text-anchor="start" dominant-baseline="alphabetic" fill-opacity="1">x</text><text fill="rgb(0,103,88)" stroke="none" font-family="geogebra-sans-serif, sans-serif" font-size="16px" font-style="normal" font-weight="bold" text-decoration="normal" x="372" y="437" text-anchor="start" dominant-baseline="alphabetic" fill-opacity="1">y</text></g></g></svg>