<svg version="1.1" xmlns="http://www.w3.org/2000/svg" xmlns:xlink="http://www.w3.org/1999/xlink" width="562" height="630"><defs><clipPath id="PtzJzqiEfwCJ"><path fill="none" stroke="none" d=" M 0 0 L 562 0 L 562 630 L 0 630 L 0 0 Z"/></clipPath></defs><g transform="scale(1,1)" clip-path="url(#PtzJzqiEfwCJ)"><g><path fill="rgb(110,109,115)" stroke="none" paint-order="stroke fill markers" fill-rule="evenodd" d=" M 453.90945762958705 472.4189634375864 L 391.35258013746505 450.9442144477535 L 117.78295170176733 479.8884413470935 L 180.33982919388933 501.3631903369264 Z" fill-opacity="0.09803921568627451"/><path fill="none" stroke="rgb(0,0,0)" paint-order="fill stroke markers" d=" M -5 428.76462370185243 L 568 268.5418748866868" stroke-opacity="0.6980392156862745" stroke-linecap="round" stroke-linejoin="round" stroke-miterlimit="10" stroke-width="2.5"/><path fill="rgb(176,0,32)" stroke="none" paint-order="stroke fill markers" d=" M 261.5703157559812 459.9644062779488 C 261.0511530462933 459.9644062779488 260.5661219493271 460.2903736802023 260.38812378924854 460.8088900595616 C 260.16397542607706 461.46184398706106 260.5115910185154 462.17287588068484 261.16454494601487 462.3970242438563 L 307.6424461189213 478.35212464649584 L 306.6683904858872 481.1895910557692 L 324.1272789519004 482.68949556315863 L 324.12727895190096 482.68949556315863 L 309.4282147794839 473.1501028961614 L 308.45415914644974 475.98756930543476 L 261.9762579735433 460.03246890279524 C 261.84182042540306 459.98631869970234 261.7049208804375 459.9644062779488 261.5703157559812 459.9644062779488 Z" fill-opacity="0.6980392156862745"/><path fill="rgb(0,103,88)" stroke="none" paint-order="stroke fill markers" d=" M 398.2755786310225 456.90961816296027 L 398.59122301775125 459.89296672139693 L 141.9272364131951 487.0485420959404 C 141.24071228308915 487.12117775475707 140.74305734950013 487.7365983596533 140.8156930083168 488.4231224897593 C 140.88360006634414 489.0649537156306 141.42592152742998 489.54170617915065 142.05722884509075 489.5417061791507 C 142.10118893358995 489.5417061791507 142.14558049790108 489.53939449542696 142.19027340213574 489.5346658946376 L 398.85426000669196 462.37909052009417 L 398.8542600066919 462.37909052009417 L 399.1699043934207 465.36243907853094 L 415.62838334336317 459.347377095949 L 398.2755786310233 456.90961816296027 Z" fill-opacity="0.6980392156862745"/><path fill="rgb(21,101,192)" stroke="none" paint-order="stroke fill markers" d=" M 285.8462046656772 141.89456594189744 L 281.5962046656772 158.89456594189744 L 284.5962046656772 158.89456594189744 L 284.5962046656772 540.5779493618386 C 284.5962046656772 541.2683052991271 285.1558487283887 541.8279493618386 285.8462046656772 541.8279493618386 C 286.53656060296566 541.8279493618386 287.0962046656772 541.2683052991271 287.0962046656772 540.5779493618386 L 287.0962046656772 158.89456594189744 L 290.0962046656772 158.89456594189744 L 285.8462046656772 141.89456594189744 Z" fill-opacity="0.6980392156862745"/><text fill="rgb(21,101,192)" stroke="none" font-family="geogebra-sans-serif, sans-serif" font-size="16px" font-style="normal" font-weight="bold" text-decoration="normal" x="286" y="142" text-anchor="start" dominant-baseline="alphabetic" fill-opacity="1">z</text><text fill="rgb(176,0,32)" stroke="none" font-family="geogebra-sans-serif, sans-serif" font-size="16px" font-style="normal" font-weight="bold" text-decoration="normal" x="324" y="483" text-anchor="start" dominant-baseline="alphabetic" fill-opacity="1">x</text><text fill="rgb(0,103,88)" stroke="none" font-family="geogebra-sans-serif, sans-serif" font-size="16px" font-style="normal" font-weight="bold" text-decoration="normal" x="416" y="459" text-anchor="start" dominant-baseline="alphabetic" fill-opacity="1">y</text></g></g></svg>