<svg version="1.1" xmlns="http://www.w3.org/2000/svg" xmlns:xlink="http://www.w3.org/1999/xlink" width="562" height="630"><defs><clipPath id="xmuuQOLQJgCb"><path fill="none" stroke="none" d=" M 0 0 L 562 0 L 562 630 L 0 630 L 0 0 Z"/></clipPath></defs><g transform="scale(1,1)" clip-path="url(#xmuuQOLQJgCb)"><g><path fill="rgb(110,109,115)" stroke="none" paint-order="stroke fill markers" fill-rule="evenodd" d=" M 487.522108222369 477.4608610265037 L 312.3628512444274 417.3315638549716 L 84.17030110898537 498.3753991731235 L 259.32955808692697 558.5046963446557 Z" fill-opacity="0.09803921568627451"/><path fill="none" stroke="rgb(0,0,0)" paint-order="fill stroke markers" d=" M 309.18170032369017 636 L 279.7364706417114 -5" stroke-opacity="0.6980392156862745" stroke-linecap="round" stroke-linejoin="round" stroke-miterlimit="10" stroke-width="2.5"/><path fill="rgb(176,0,32)" stroke="none" paint-order="stroke fill markers" d=" M 217.87386998536465 444.8387135111969 C 217.35470727567676 444.8387135111969 216.86967617871053 445.1646809134504 216.691678018632 445.68319729280967 C 216.46752965546054 446.33615122030915 216.81514524789884 447.04718311393293 217.46809917539832 447.2713314771044 L 376.5483798341244 501.88098006144315 L 375.57432420109023 504.7184464707165 L 393.0332126671041 506.218350978106 L 378.33414849468693 496.6789583111087 L 377.3600928616528 499.5164247203821 L 218.27981220292673 444.90677613604333 C 218.1453746547865 444.8606259329504 218.00847510982095 444.8387135111969 217.87386998536465 444.8387135111969 Z" fill-opacity="0.6980392156862745"/><path fill="rgb(0,103,88)" stroke="none" paint-order="stroke fill markers" d=" M 380.3351002209409 440.8604192699191 L 362.8930599155141 442.54497558652736 L 363.8970847835498 445.371976482241 L 151.72420639048514 520.7263375481903 C 151.07366077279323 520.9573823911348 150.7335882026748 521.6720526653938 150.9646330456194 522.3225982830858 C 151.14656077435401 522.8348464040852 151.62834562400326 523.1545952309222 152.1425697949358 523.1545952309222 C 152.28140078847863 523.1545952309222 152.42259628382237 523.1312887421615 152.56089378051493 523.0821716279515 L 364.73377217357967 447.7278105620024 L 365.7377970416154 450.554811457716 L 380.3351002209419 440.8604192699191 Z" fill-opacity="0.6980392156862745"/><path fill="rgb(21,101,192)" stroke="none" paint-order="stroke fill markers" d=" M 285.8462046656772 89.79495752308554 L 281.5962046656772 106.79495752308554 L 284.5962046656772 106.79495752308554 L 284.5962046656772 533.8554192432823 C 284.5962046656772 534.5457751805708 285.1558487283887 535.1054192432823 285.8462046656772 535.1054192432823 C 286.53656060296566 535.1054192432823 287.0962046656772 534.5457751805708 287.0962046656772 533.8554192432823 L 287.0962046656772 106.79495752308554 L 290.0962046656772 106.79495752308554 L 285.8462046656772 89.79495752308554 Z" fill-opacity="0.6980392156862745"/><text fill="rgb(21,101,192)" stroke="none" font-family="geogebra-sans-serif, sans-serif" font-size="16px" font-style="normal" font-weight="bold" text-decoration="normal" x="286" y="90" text-anchor="start" dominant-baseline="alphabetic" fill-opacity="1">z</text><text fill="rgb(176,0,32)" stroke="none" font-family="geogebra-sans-serif, sans-serif" font-size="16px" font-style="normal" font-weight="bold" text-decoration="normal" x="393" y="506" text-anchor="start" dominant-baseline="alphabetic" fill-opacity="1">x</text><text fill="rgb(0,103,88)" stroke="none" font-family="geogebra-sans-serif, sans-serif" font-size="16px" font-style="normal" font-weight="bold" text-decoration="normal" x="380" y="441" text-anchor="start" dominant-baseline="alphabetic" fill-opacity="1">y</text></g></g></svg>