<svg version="1.1" xmlns="http://www.w3.org/2000/svg" xmlns:xlink="http://www.w3.org/1999/xlink" width="638" height="630"><defs><clipPath id="stUVeiSFcNaP"><path fill="none" stroke="none" d=" M 0 0 L 638 0 L 638 630 L 0 630 L 0 0 Z"/></clipPath></defs><g transform="scale(1,1)" clip-path="url(#stUVeiSFcNaP)"><g><path fill="rgb(110,109,115)" stroke="none" paint-order="stroke fill markers" fill-rule="evenodd" d=" M 550.3118705766623 468.3884669980829 L 215.50859980965794 526.2747170966129 L 87.24428658539253 483.2535585780957 L 422.0475573523969 425.3673084795657 Z" fill-opacity="0.09803921568627451"/><path fill="none" stroke="rgb(28,28,31)" paint-order="fill stroke markers" d=" M 208.33309509372663 472.9785965195624 L -2.842170943040401e-14 409.4573892428444" stroke-opacity="0.6980392156862745" stroke-linecap="round" stroke-linejoin="round" stroke-miterlimit="10" stroke-width="2.5"/><path fill="none" stroke="rgb(0,0,0)" paint-order="fill stroke markers" d=" M 208.33309509372663 472.9785965195624 L 639 604.2898590026865" stroke-opacity="0.6980392156862745" stroke-linejoin="round" stroke-miterlimit="10" stroke-width="2.5" stroke-dasharray="2.5,3"/><path fill="rgb(20,62,146)" stroke="none" paint-order="stroke fill markers" d=" M 261.592115000174 448.91809120393924 C 261.06964437684496 448.91809120393924 260.5824709551096 449.2482501539687 260.4071583228683 449.7709314379766 C 260.18762557387566 450.42545163802333 260.54025257566923 451.1340115518363 261.19477277571593 451.35354430082896 L 373.34154025322215 488.96871363131373 L 373.3415402532221 488.96871363131373 L 372.3875421612164 491.8129864101536 L 389.856585204983 493.18958916149614 L 389.8565852049836 493.18958916149614 L 375.0905367552326 483.75421353677393 L 374.13653866322693 486.5984863156138 L 374.1365386632269 486.5984863156138 L 261.98977118572066 448.983316985129 C 261.8579322696819 448.93909686837765 261.7239007800542 448.91809120393924 261.592115000174 448.91809120393924 Z" fill-opacity="0.6980392156862745"/><path fill="rgb(176,0,32)" stroke="none" paint-order="stroke fill markers" d=" M 461.82079514193947 443.27753020087596 L 462.3319010461601 446.2336713941668 L 144.28009704113703 501.2236547021131 C 143.59983383305325 501.34126970063375 143.14371733883718 501.9880777846591 143.26133233735783 502.66834099274286 C 143.36648980429644 503.2765521623503 143.8946751391342 503.7055842968167 144.49157753199748 503.7055842968167 C 144.56228987061655 503.7055842968167 144.6339665895113 503.69956322810407 144.7060186279876 503.68710569652205 L 462.7578226330107 448.69712238857574 L 463.2689285372313 451.65326358186655 L 479.29632860156664 444.5691301007876 L 461.82079514193947 443.27753020087596 Z" fill-opacity="0.6980392156862745"/><path fill="rgb(0,103,88)" stroke="none" paint-order="stroke fill markers" d=" M 318.8410432298881 59.0117124520483 L 314.5910432298881 76.0117124520483 L 317.5910432298881 76.0117124520483 L 317.5910432298881 562.7224921935793 C 317.5910432298881 563.4128481308678 318.1506872925996 563.9724921935793 318.8410432298881 563.9724921935793 C 319.5313991671766 563.9724921935793 320.0910432298881 563.4128481308678 320.0910432298881 562.7224921935793 L 320.0910432298881 76.0117124520483 L 323.0910432298881 76.0117124520483 L 318.8410432298881 59.0117124520483 Z" fill-opacity="0.6980392156862745"/><path fill="rgb(28,28,31)" stroke="none" paint-order="stroke fill markers" d=" M 213.33309509372663 472.9785965195624 C 213.33309509372663 475.74002026871636 211.0945188428806 477.9785965195624 208.33309509372663 477.9785965195624 C 205.57167134457265 477.9785965195624 203.33309509372663 475.74002026871636 203.33309509372663 472.9785965195624 C 203.33309509372663 470.21717277040847 205.57167134457265 467.9785965195624 208.33309509372663 467.9785965195624 C 211.0945188428806 467.9785965195624 213.33309509372663 470.21717277040847 213.33309509372663 472.9785965195624 Z" fill-opacity="1"/><text fill="rgb(20,62,146)" stroke="none" font-family="geogebra-sans-serif, sans-serif" font-size="16px" font-style="normal" font-weight="bold" text-decoration="normal" x="390" y="493" text-anchor="start" dominant-baseline="alphabetic" fill-opacity="1">x</text><text fill="rgb(176,0,32)" stroke="none" font-family="geogebra-sans-serif, sans-serif" font-size="16px" font-style="normal" font-weight="bold" text-decoration="normal" x="479" y="445" text-anchor="start" dominant-baseline="alphabetic" fill-opacity="1">y</text><text fill="rgb(0,103,88)" stroke="none" font-family="geogebra-sans-serif, sans-serif" font-size="16px" font-style="normal" font-weight="bold" text-decoration="normal" x="319" y="59" text-anchor="start" dominant-baseline="alphabetic" fill-opacity="1">z</text></g></g></svg>