<svg version="1.1" xmlns="http://www.w3.org/2000/svg" xmlns:xlink="http://www.w3.org/1999/xlink" width="638" height="630"><defs><clipPath id="teJpCQQpbShO"><path fill="none" stroke="none" d=" M 0 0 L 638 0 L 638 630 L 0 630 L 0 0 Z"/></clipPath></defs><g transform="scale(1,1)" clip-path="url(#teJpCQQpbShO)"><g><path fill="rgb(110,109,115)" stroke="none" paint-order="stroke fill markers" fill-rule="evenodd" d=" M 575.3368172555843 467.6521280484944 L 286.58744107564394 568.9530657209218 L 62.12489293317947 493.66603831351676 L 350.8742691131198 392.36510064108927 Z" fill-opacity="0.09803921568627451"/><path fill="none" stroke="rgb(28,28,31)" paint-order="fill stroke markers" d=" M 192.98766755122313 475.6848547110835 L 0 443.88638685061085" stroke-opacity="0.6980392156862745" stroke-linecap="round" stroke-linejoin="round" stroke-miterlimit="10" stroke-width="2.5"/><path fill="none" stroke="rgb(0,0,0)" paint-order="fill stroke markers" d=" M 192.98766755122313 475.6848547110835 L 639 549.1740522266839" stroke-opacity="0.6980392156862745" stroke-linejoin="round" stroke-miterlimit="10" stroke-width="2.5" stroke-dasharray="2.5,3"/><path fill="rgb(20,62,146)" stroke="none" paint-order="stroke fill markers" d=" M 218.65553656329664 434.5167249880228 C 218.1330659399676 434.5167249880228 217.64589251823233 434.8468839380522 217.47057988599101 435.36956522206015 C 217.25104713699832 436.02408542210685 217.60367413879186 436.73264533591987 218.2581943388386 436.95217808491253 L 426.6031967345435 506.8332163042851 L 426.6031967345438 506.8332163042851 L 425.64919864253807 509.67748908312507 L 443.1182416863054 511.05409183446767 L 428.3521932365543 501.6187162097454 L 427.3981951445486 504.46298898858527 L 427.39819514454854 504.46298898858527 L 219.05319274884337 434.5819507692126 C 218.9213538328046 434.5377306524612 218.7873223431769 434.5167249880228 218.65553656329664 434.5167249880228 Z" fill-opacity="0.6980392156862745"/><path fill="rgb(176,0,32)" stroke="none" paint-order="stroke fill markers" d=" M 451.0596187991663 425.9682884782277 L 433.61122332356143 427.5856923631211 L 434.604358729036 430.41653712509464 L 161.89643620027888 526.0897074998328 C 161.24500603728876 526.3182464743998 160.9021849938374 527.0316024066127 161.13072396840434 527.6830325696028 C 161.31123542591834 528.1975645369084 161.79420608324534 528.5195667960869 162.310224204684 528.5195667960869 C 162.44751781179528 528.5195667960869 162.58715084248985 528.4967723185302 162.72404903817434 528.4487448014773 L 435.43197156693145 432.7755744267392 L 436.425106972406 435.6064191887127 L 451.0596187991668 425.9682884782277 Z" fill-opacity="0.6980392156862745"/><path fill="rgb(0,103,88)" stroke="none" paint-order="stroke fill markers" d=" M 318.8410432298881 48.399155255251344 L 314.5910432298881 65.39915525525134 L 317.5910432298881 65.39915525525134 L 317.5910432298881 558.4475852250338 C 317.5910432298881 559.1379411623222 318.1506872925996 559.6975852250338 318.8410432298881 559.6975852250338 C 319.5313991671766 559.6975852250338 320.0910432298881 559.1379411623222 320.0910432298881 558.4475852250338 L 320.0910432298881 65.39915525525134 L 323.0910432298881 65.39915525525134 L 318.8410432298881 48.399155255251344 Z" fill-opacity="0.6980392156862745"/><path fill="rgb(28,28,31)" stroke="none" paint-order="stroke fill markers" d=" M 197.98766755122313 475.6848547110835 C 197.98766755122313 478.44627846023747 195.7490913003771 480.6848547110835 192.98766755122313 480.6848547110835 C 190.22624380206915 480.6848547110835 187.98766755122313 478.44627846023747 187.98766755122313 475.6848547110835 C 187.98766755122313 472.92343096192957 190.22624380206915 470.6848547110835 192.98766755122313 470.6848547110835 C 195.7490913003771 470.6848547110835 197.98766755122313 472.92343096192957 197.98766755122313 475.6848547110835 Z" fill-opacity="1"/><text fill="rgb(20,62,146)" stroke="none" font-family="geogebra-sans-serif, sans-serif" font-size="16px" font-style="normal" font-weight="bold" text-decoration="normal" x="443" y="511" text-anchor="start" dominant-baseline="alphabetic" fill-opacity="1">x</text><text fill="rgb(176,0,32)" stroke="none" font-family="geogebra-sans-serif, sans-serif" font-size="16px" font-style="normal" font-weight="bold" text-decoration="normal" x="451" y="426" text-anchor="start" dominant-baseline="alphabetic" fill-opacity="1">y</text><text fill="rgb(0,103,88)" stroke="none" font-family="geogebra-sans-serif, sans-serif" font-size="16px" font-style="normal" font-weight="bold" text-decoration="normal" x="319" y="48" text-anchor="start" dominant-baseline="alphabetic" fill-opacity="1">z</text></g></g></svg>