<svg version="1.1" xmlns="http://www.w3.org/2000/svg" xmlns:xlink="http://www.w3.org/1999/xlink" width="562" height="630"><defs><clipPath id="XHFIGuQyirAZ"><path fill="none" stroke="none" d=" M 0 0 L 562 0 L 562 630 L 0 630 L 0 0 Z"/></clipPath></defs><g transform="scale(1,1)" clip-path="url(#XHFIGuQyirAZ)"><g><path fill="rgb(110,109,115)" stroke="none" paint-order="stroke fill markers" fill-rule="evenodd" d=" M 506.19580299613676 480.2619152425689 L 268.47966852607317 398.65786908120384 L 65.49660633521759 508.6459312986958 L 303.21274080528116 590.2499774600608 Z" fill-opacity="0.09803921568627451"/><path fill="none" stroke="rgb(0,0,0)" paint-order="fill stroke markers" d=" M 413.5766281595994 636 L 145.85778031989963 -5" stroke-opacity="0.6980392156862745" stroke-linecap="round" stroke-linejoin="round" stroke-miterlimit="10" stroke-width="2.5"/><path fill="rgb(176,0,32)" stroke="none" paint-order="stroke fill markers" d=" M 193.5980667794666 436.4355508630014 C 193.0789040697787 436.4355508630014 192.59387297281248 436.76151826525495 192.41587481273393 437.2800346446142 C 192.19172644956248 437.9329885721137 192.53934204200078 438.64402046573747 193.19229596950026 438.86816882890895 L 414.8294541203483 514.9525664030806 L 413.8553984873142 517.790032812354 L 431.31428695332806 519.2899373197434 L 416.61522278091087 509.75054465274616 L 415.64116714787673 512.5880110620195 L 194.00400899702868 436.5036134878479 C 193.86957144888845 436.45746328475497 193.7326719039229 436.4355508630014 193.5980667794666 436.4355508630014 Z" fill-opacity="0.6980392156862745"/><path fill="rgb(0,103,88)" stroke="none" paint-order="stroke fill markers" d=" M 360.72772070848595 430.5898871443467 L 343.7562000777196 434.9522245315135 L 345.1854403619867 437.5898886894054 L 157.14914173251904 539.4789226293836 C 156.54216602852782 539.8078174680688 156.31673694649015 540.5664904429586 156.6456317851754 541.1734661469499 C 156.87197204778477 541.5911772937349 157.3018542143536 541.8281888670897 157.74576239758468 541.8281888670897 C 157.94689680921365 541.8281888670897 158.1509107455354 541.7795306703694 158.34017530274164 541.6769760942935 L 346.37647393220925 439.7879421543155 L 346.37647393220936 439.7879421543155 L 347.8057142164765 442.4256063122074 L 360.72772070848595 430.5898871443467 Z" fill-opacity="0.6980392156862745"/><path fill="rgb(21,101,192)" stroke="none" paint-order="stroke fill markers" d=" M 285.8462046656772 60.850730623745505 L 281.5962046656772 77.8507306237455 L 284.5962046656772 77.8507306237455 L 284.5962046656772 530.1206802885287 C 284.5962046656772 530.8110362258171 285.1558487283887 531.3706802885287 285.8462046656772 531.3706802885287 C 286.53656060296566 531.3706802885287 287.0962046656772 530.8110362258171 287.0962046656772 530.1206802885287 L 287.0962046656772 77.8507306237455 L 290.0962046656772 77.8507306237455 L 285.8462046656772 60.850730623745505 Z" fill-opacity="0.6980392156862745"/><text fill="rgb(21,101,192)" stroke="none" font-family="geogebra-sans-serif, sans-serif" font-size="16px" font-style="normal" font-weight="bold" text-decoration="normal" x="286" y="61" text-anchor="start" dominant-baseline="alphabetic" fill-opacity="1">z</text><text fill="rgb(176,0,32)" stroke="none" font-family="geogebra-sans-serif, sans-serif" font-size="16px" font-style="normal" font-weight="bold" text-decoration="normal" x="431" y="519" text-anchor="start" dominant-baseline="alphabetic" fill-opacity="1">x</text><text fill="rgb(0,103,88)" stroke="none" font-family="geogebra-sans-serif, sans-serif" font-size="16px" font-style="normal" font-weight="bold" text-decoration="normal" x="361" y="431" text-anchor="start" dominant-baseline="alphabetic" fill-opacity="1">y</text></g></g></svg>