<svg version="1.1" xmlns="http://www.w3.org/2000/svg" xmlns:xlink="http://www.w3.org/1999/xlink" width="562" height="630"><defs><clipPath id="oNoGPpTIbXhm"><path fill="none" stroke="none" d=" M 0 0 L 562 0 L 562 630 L 0 630 L 0 0 Z"/></clipPath></defs><g transform="scale(1,1)" clip-path="url(#oNoGPpTIbXhm)"><g><path fill="rgb(110,109,115)" stroke="none" paint-order="stroke fill markers" fill-rule="evenodd" d=" M 509.9305419508903 480.8221260857819 L 259.7030319824023 394.9231301264503 L 61.761867380464025 510.7000377238103 L 311.989377348952 596.5990336831419 Z" fill-opacity="0.09803921568627451"/><path fill="none" stroke="rgb(0,0,0)" paint-order="fill stroke markers" d=" M 427.2456047972471 636 L 127.60655154280883 -5" stroke-opacity="0.6980392156862745" stroke-linecap="round" stroke-linejoin="round" stroke-miterlimit="10" stroke-width="2.5"/><path fill="rgb(176,0,32)" stroke="none" paint-order="stroke fill markers" d=" M 188.74290613828697 434.75491833336235 C 188.22374342859908 434.75491833336235 187.73871233163285 435.0808857356159 187.5607141715543 435.59940211497513 C 187.33656580838286 436.2523560424746 187.68418140082116 436.9633879360984 188.33713532832064 437.1875362992699 L 422.4856689775931 517.566883671408 L 421.51161334455895 520.4043500806814 L 438.97050181057284 521.9042545880709 L 424.27143763815565 512.3648619210736 L 423.2973820051215 515.202328330347 L 189.14884835584905 434.8229809582088 C 189.01441080770883 434.7768307551159 188.87751126274327 434.75491833336235 188.74290613828697 434.75491833336235 Z" fill-opacity="0.6980392156862745"/><path fill="rgb(0,103,88)" stroke="none" paint-order="stroke fill markers" d=" M 356.80624480599465 428.5357807192322 L 339.9863014638835 433.4502497615774 L 341.5009514089973 436.03981257096564 L 341.50095140899737 436.03981257096564 L 158.23397606025898 543.2337038126803 C 157.63806937344475 543.5822530068547 157.4375465059703 544.3478857735753 157.78609570014464 544.9437924603895 C 158.0186096765319 545.3413163555033 158.4367300949452 545.5628904200007 158.86625533511045 545.5628904200007 C 159.08060827664985 545.5628904200007 159.29780155615333 545.507708038291 159.49618434785387 545.3916728205039 L 342.7631596965922 438.1977815787892 L 342.76315969659225 438.1977815787892 L 344.2778096417061 440.7873443881774 L 356.80624480599465 428.5357807192322 Z" fill-opacity="0.6980392156862745"/><path fill="rgb(21,101,192)" stroke="none" paint-order="stroke fill markers" d=" M 285.8462046656772 55.0618852438775 L 281.5962046656772 72.0618852438775 L 284.5962046656772 72.0618852438775 L 284.5962046656772 529.373732497578 C 284.5962046656772 530.0640884348664 285.1558487283887 530.623732497578 285.8462046656772 530.623732497578 C 286.53656060296566 530.623732497578 287.0962046656772 530.0640884348664 287.0962046656772 529.373732497578 L 287.0962046656772 72.0618852438775 L 290.0962046656772 72.0618852438775 L 285.8462046656772 55.0618852438775 Z" fill-opacity="0.6980392156862745"/><text fill="rgb(21,101,192)" stroke="none" font-family="geogebra-sans-serif, sans-serif" font-size="16px" font-style="normal" font-weight="bold" text-decoration="normal" x="286" y="55" text-anchor="start" dominant-baseline="alphabetic" fill-opacity="1">z</text><text fill="rgb(176,0,32)" stroke="none" font-family="geogebra-sans-serif, sans-serif" font-size="16px" font-style="normal" font-weight="bold" text-decoration="normal" x="439" y="522" text-anchor="start" dominant-baseline="alphabetic" fill-opacity="1">x</text><text fill="rgb(0,103,88)" stroke="none" font-family="geogebra-sans-serif, sans-serif" font-size="16px" font-style="normal" font-weight="bold" text-decoration="normal" x="357" y="429" text-anchor="start" dominant-baseline="alphabetic" fill-opacity="1">y</text></g></g></svg>