<svg version="1.1" xmlns="http://www.w3.org/2000/svg" xmlns:xlink="http://www.w3.org/1999/xlink" width="638" height="630"><defs><clipPath id="hZqKGrOrRXVR"><path fill="none" stroke="none" d=" M 0 0 L 638 0 L 638 630 L 0 630 L 0 0 Z"/></clipPath></defs><g transform="scale(1,1)" clip-path="url(#hZqKGrOrRXVR)"><g><path fill="rgb(110,109,115)" stroke="none" paint-order="stroke fill markers" fill-rule="evenodd" d=" M 521.1160994512534 469.24752910593617 L 132.58328499934086 476.48331036825243 L 116.55024584630766 471.1056655534378 L 505.0830602982202 463.86988429112154 Z" fill-opacity="0.09803921568627451"/><path fill="none" stroke="rgb(28,28,31)" paint-order="fill stroke markers" d=" M 226.23609389331406 469.8212952961211 L 0 364.3802167162404" stroke-opacity="0.6980392156862745" stroke-linecap="round" stroke-linejoin="round" stroke-miterlimit="10" stroke-width="2.5"/><path fill="none" stroke="rgb(0,0,0)" paint-order="fill stroke markers" d=" M 226.23609389331406 469.8212952961211 L 639 662.1967501130582" stroke-opacity="0.6980392156862745" stroke-linejoin="round" stroke-miterlimit="10" stroke-width="2.5" stroke-dasharray="2.5,3"/><path fill="rgb(20,62,146)" stroke="none" paint-order="stroke fill markers" d=" M 313.02935802744554 462.96176477328993 L 312.0825539308631 465.78458920173466 L 312.08255428818995 465.78458920173466 C 311.95765191240196 465.7427132209525 311.8239489782438 465.7200245615482 311.6849468237419 465.7200245615482 C 310.9945908864534 465.7200245615482 310.4349468237419 466.2796686242597 310.4349468237419 466.9700245615482 C 310.4349468237419 467.5213784738704 310.79191269269694 467.9893585402073 311.2873397084822 468.15546003843394 L 311.28733967735343 468.15546003843394 L 310.3405356200382 470.9782843498065 L 327.7179859767751 472.34766937636283 L 313.02935802744554 462.96176477328993 Z" fill-opacity="0.6980392156862745"/><path fill="rgb(176,0,32)" stroke="none" paint-order="stroke fill markers" d=" M 495.1629684836377 462.33739081750906 L 495.2188288372294 465.3368707092397 L 123.68306710512401 472.2561099678694 C 122.9928308544461 472.2689644767898 122.44370445531241 472.83893215274253 122.45655896423278 473.52916840342044 C 122.4692658238612 474.21147647151895 123.02636113992872 474.75589769935533 123.70588111603779 474.75589769935533 C 123.71377690195743 474.75589769935533 123.72168921720439 474.7558241936036 123.7296173997838 474.75567654431165 L 495.26537913188923 467.83643728568194 L 495.32123948548093 470.83591717741257 L 512.2391567043665 466.27011199377426 L 495.1629684836377 462.33739081750906 Z" fill-opacity="0.6980392156862745"/><path fill="rgb(0,103,88)" stroke="none" paint-order="stroke fill markers" d=" M 318.8410432298881 71.39302918164492 L 314.5910432298881 88.39302918164492 L 317.5910432298881 88.39302918164492 L 317.5910432298881 567.7098836568824 C 317.5910432298881 568.4002395941709 318.1506872925996 568.9598836568824 318.8410432298881 568.9598836568824 C 319.5313991671766 568.9598836568824 320.0910432298881 568.4002395941709 320.0910432298881 567.7098836568824 L 320.0910432298881 88.39302918164492 L 323.0910432298881 88.39302918164492 L 318.8410432298881 71.39302918164492 Z" fill-opacity="0.6980392156862745"/><path fill="rgb(28,28,31)" stroke="none" paint-order="stroke fill markers" d=" M 231.23609389331406 469.8212952961211 C 231.23609389331406 472.58271904527504 228.99751764246804 474.8212952961211 226.23609389331406 474.8212952961211 C 223.4746701441601 474.8212952961211 221.23609389331406 472.58271904527504 221.23609389331406 469.8212952961211 C 221.23609389331406 467.05987154696714 223.4746701441601 464.8212952961211 226.23609389331406 464.8212952961211 C 228.99751764246804 464.8212952961211 231.23609389331406 467.05987154696714 231.23609389331406 469.8212952961211 Z" fill-opacity="1"/><text fill="rgb(20,62,146)" stroke="none" font-family="geogebra-sans-serif, sans-serif" font-size="16px" font-style="normal" font-weight="bold" text-decoration="normal" x="328" y="472" text-anchor="start" dominant-baseline="alphabetic" fill-opacity="1">x</text><text fill="rgb(176,0,32)" stroke="none" font-family="geogebra-sans-serif, sans-serif" font-size="16px" font-style="normal" font-weight="bold" text-decoration="normal" x="512" y="466" text-anchor="start" dominant-baseline="alphabetic" fill-opacity="1">y</text><text fill="rgb(0,103,88)" stroke="none" font-family="geogebra-sans-serif, sans-serif" font-size="16px" font-style="normal" font-weight="bold" text-decoration="normal" x="319" y="71" text-anchor="start" dominant-baseline="alphabetic" fill-opacity="1">z</text></g></g></svg>