<svg version="1.1" xmlns="http://www.w3.org/2000/svg" xmlns:xlink="http://www.w3.org/1999/xlink" width="638" height="630"><defs><clipPath id="AIrLzTPFKVfO"><path fill="none" stroke="none" d=" M 0 0 L 638 0 L 638 630 L 0 630 L 0 0 Z"/></clipPath></defs><g transform="scale(1,1)" clip-path="url(#AIrLzTPFKVfO)"><g><path fill="rgb(110,109,115)" stroke="none" paint-order="stroke fill markers" fill-rule="evenodd" d=" M 537.7993972372013 468.7566364728772 L 179.96917917666488 504.9355427844584 L 99.80398341149899 478.0473187103851 L 457.63420147203544 441.8684123988039 Z" fill-opacity="0.09803921568627451"/><path fill="none" stroke="rgb(28,28,31)" paint-order="fill stroke markers" d=" M 216.0058088649784 471.62546742380187 L 0 390.7796754595885" stroke-opacity="0.6980392156862745" stroke-linecap="round" stroke-linejoin="round" stroke-miterlimit="10" stroke-width="2.5"/><path fill="none" stroke="rgb(0,0,0)" paint-order="fill stroke markers" d=" M 216.0058088649784 471.62546742380187 L 639 629.9420449189414" stroke-opacity="0.6980392156862745" stroke-linejoin="round" stroke-miterlimit="10" stroke-width="2.5" stroke-dasharray="2.5,3"/><path fill="rgb(20,62,146)" stroke="none" paint-order="stroke fill markers" d=" M 283.0604042186127 456.1187743118975 C 282.5379335952837 456.1187743118975 282.0507601735483 456.4489332619269 281.87544754130704 456.97161454593487 C 281.6559147923144 457.6261347459816 282.00854179410794 458.33469465979454 282.66306199415465 458.5542274087872 L 346.71071201256115 480.03646229482797 L 346.7107120125613 480.03646229482797 L 345.75671392055557 482.8807350736679 L 363.2257569643229 484.2573378250105 L 348.4597085145718 474.8219622002882 L 347.5057104225661 477.6662349791281 L 347.50571042256604 477.6662349791281 L 283.45806040415937 456.18400009308726 C 283.3262214881206 456.1397799763359 283.1921899984929 456.1187743118975 283.0604042186127 456.1187743118975 Z" fill-opacity="0.6980392156862745"/><path fill="rgb(176,0,32)" stroke="none" paint-order="stroke fill markers" d=" M 476.0733917785173 451.35119801096664 L 476.37517226792266 454.33598083995344 L 476.3751722679221 454.33598083995344 L 135.45872357164455 488.804797711571 C 134.77186938914195 488.8742430291106 134.27136061261268 489.4873449117318 134.34080593015227 490.1741990942344 C 134.4059300226997 490.8183138730658 134.94915777742025 491.2985523617035 135.5829590079277 491.29855236170357 C 135.6250140694295 491.29855236170357 135.66746790914448 491.29643796071883 135.71020731281567 491.29211673572667 L 476.6266560090938 456.82329986410906 L 476.92843649849914 459.8080826930958 L 493.4146835027666 453.8695509120676 L 476.0733917785173 451.35119801096664 Z" fill-opacity="0.6980392156862745"/><path fill="rgb(0,103,88)" stroke="none" paint-order="stroke fill markers" d=" M 318.8410432298881 64.31799105044684 L 314.5910432298881 81.31799105044684 L 317.5910432298881 81.31799105044684 L 317.5910432298881 564.8599456778521 C 317.5910432298881 565.5503016151406 318.1506872925996 566.1099456778521 318.8410432298881 566.1099456778521 C 319.5313991671766 566.1099456778521 320.0910432298881 565.5503016151406 320.0910432298881 564.8599456778521 L 320.0910432298881 81.31799105044684 L 323.0910432298881 81.31799105044684 L 318.8410432298881 64.31799105044684 Z" fill-opacity="0.6980392156862745"/><path fill="rgb(28,28,31)" stroke="none" paint-order="stroke fill markers" d=" M 221.0058088649784 471.62546742380187 C 221.0058088649784 474.3868911729558 218.76723261413238 476.62546742380187 216.0058088649784 476.62546742380187 C 213.24438511582443 476.62546742380187 211.0058088649784 474.3868911729558 211.0058088649784 471.62546742380187 C 211.0058088649784 468.8640436746479 213.24438511582443 466.62546742380187 216.0058088649784 466.62546742380187 C 218.76723261413238 466.62546742380187 221.0058088649784 468.8640436746479 221.0058088649784 471.62546742380187 Z" fill-opacity="1"/><text fill="rgb(20,62,146)" stroke="none" font-family="geogebra-sans-serif, sans-serif" font-size="16px" font-style="normal" font-weight="bold" text-decoration="normal" x="363" y="484" text-anchor="start" dominant-baseline="alphabetic" fill-opacity="1">x</text><text fill="rgb(176,0,32)" stroke="none" font-family="geogebra-sans-serif, sans-serif" font-size="16px" font-style="normal" font-weight="bold" text-decoration="normal" x="493" y="454" text-anchor="start" dominant-baseline="alphabetic" fill-opacity="1">y</text><text fill="rgb(0,103,88)" stroke="none" font-family="geogebra-sans-serif, sans-serif" font-size="16px" font-style="normal" font-weight="bold" text-decoration="normal" x="319" y="64" text-anchor="start" dominant-baseline="alphabetic" fill-opacity="1">z</text></g></g></svg>