<svg version="1.1" xmlns="http://www.w3.org/2000/svg" xmlns:xlink="http://www.w3.org/1999/xlink" width="562" height="630"><defs><clipPath id="oQssFEUTVzKl"><path fill="none" stroke="none" d=" M 0 0 L 562 0 L 562 630 L 0 630 L 0 0 Z"/></clipPath></defs><g transform="scale(1,1)" clip-path="url(#oQssFEUTVzKl)"><g><path fill="rgb(110,109,115)" stroke="none" paint-order="stroke fill markers" fill-rule="evenodd" d=" M 491.2568471771226 478.0210718697167 L 303.58621470075656 413.59682490021805 L 80.4355621542318 500.429505598238 L 268.1061946305978 564.8537525677367 Z" fill-opacity="0.09803921568627451"/><path fill="none" stroke="rgb(0,0,0)" paint-order="fill stroke markers" d=" M 336.69193219885176 636 L 245.12050362742306 -5" stroke-opacity="0.6980392156862745" stroke-linecap="round" stroke-linejoin="round" stroke-miterlimit="10" stroke-width="2.5"/><path fill="rgb(176,0,32)" stroke="none" paint-order="stroke fill markers" d=" M 213.01870934418503 443.1580809815578 C 212.49954663449714 443.1580809815578 212.0145155375309 443.48404838381134 211.83651737745237 444.0025647631706 C 211.61236901428092 444.6555186906701 211.95998460671922 445.36655058429386 212.6129385342187 445.59069894746534 L 384.20459469136915 504.49529732977066 L 383.230539058335 507.332763739044 L 400.6894275243489 508.8326682464335 L 385.9903633519317 499.2932755794362 L 385.01630771889756 502.1307419887096 L 213.4246515617471 443.22614360640426 C 213.29021401360689 443.17999340331136 213.15331446864133 443.1580809815578 213.01870934418503 443.1580809815578 Z" fill-opacity="0.6980392156862745"/><path fill="rgb(0,103,88)" stroke="none" paint-order="stroke fill markers" d=" M 376.4136243184504 438.80631284480455 L 359.0295929362903 441.01038927361986 L 360.11749620677153 443.80618369991026 L 152.80967874255893 524.4740791985367 C 152.1663143153497 524.7244260258608 151.84771060031431 525.4489221449824 152.0980574276384 526.0922865721916 C 152.29044666610238 526.5867062280292 152.762858111161 526.8893293066888 153.26327533478775 526.8893293066888 C 153.4140268837674 526.8893293066888 153.56732002992163 526.8618654759722 153.71626480129325 526.8039078871121 L 361.02408226550585 446.13601238848554 L 362.11198553598706 448.93180681477594 L 376.4136243184508 438.80631284480455 Z" fill-opacity="0.6980392156862745"/><path fill="rgb(21,101,192)" stroke="none" paint-order="stroke fill markers" d=" M 285.8462046656772 84.00611214321754 L 281.5962046656772 101.00611214321754 L 284.5962046656772 101.00611214321754 L 284.5962046656772 533.1084714523315 C 284.5962046656772 533.79882738962 285.1558487283887 534.3584714523315 285.8462046656772 534.3584714523315 C 286.53656060296566 534.3584714523315 287.0962046656772 533.79882738962 287.0962046656772 533.1084714523315 L 287.0962046656772 101.00611214321754 L 290.0962046656772 101.00611214321754 L 285.8462046656772 84.00611214321754 Z" fill-opacity="0.6980392156862745"/><text fill="rgb(21,101,192)" stroke="none" font-family="geogebra-sans-serif, sans-serif" font-size="16px" font-style="normal" font-weight="bold" text-decoration="normal" x="286" y="84" text-anchor="start" dominant-baseline="alphabetic" fill-opacity="1">z</text><text fill="rgb(176,0,32)" stroke="none" font-family="geogebra-sans-serif, sans-serif" font-size="16px" font-style="normal" font-weight="bold" text-decoration="normal" x="401" y="509" text-anchor="start" dominant-baseline="alphabetic" fill-opacity="1">x</text><text fill="rgb(0,103,88)" stroke="none" font-family="geogebra-sans-serif, sans-serif" font-size="16px" font-style="normal" font-weight="bold" text-decoration="normal" x="376" y="439" text-anchor="start" dominant-baseline="alphabetic" fill-opacity="1">y</text></g></g></svg>