<svg version="1.1" xmlns="http://www.w3.org/2000/svg" xmlns:xlink="http://www.w3.org/1999/xlink" width="638" height="630"><defs><clipPath id="PenToCdzKSzz"><path fill="none" stroke="none" d=" M 0 0 L 638 0 L 638 630 L 0 630 L 0 0 Z"/></clipPath></defs><g transform="scale(1,1)" clip-path="url(#PenToCdzKSzz)"><g><path fill="rgb(110,109,115)" stroke="none" paint-order="stroke fill markers" fill-rule="evenodd" d=" M 554.4826950231493 468.26574383981813 L 227.35507335398893 533.3877752006644 L 83.05772097669035 484.9889718673325 L 410.1853426458507 419.8669405064863 Z" fill-opacity="0.09803921568627451"/><path fill="none" stroke="rgb(28,28,31)" paint-order="fill stroke markers" d=" M 205.77552383664272 473.4296395514826 L 2.842170943040401e-14 415.4677167463336" stroke-opacity="0.6980392156862745" stroke-linecap="round" stroke-linejoin="round" stroke-miterlimit="10" stroke-width="2.5"/><path fill="none" stroke="rgb(0,0,0)" paint-order="fill stroke markers" d=" M 205.77552383664272 473.4296395514826 L 639 595.458358888462" stroke-opacity="0.6980392156862745" stroke-linejoin="round" stroke-miterlimit="10" stroke-width="2.5" stroke-dasharray="2.5,3"/><path fill="rgb(20,62,146)" stroke="none" paint-order="stroke fill markers" d=" M 254.4360185940278 446.5178635012865 C 253.91354797069874 446.5178635012865 253.42637454896345 446.84802245131596 253.25106191672214 447.3707037353239 C 253.03152916772945 448.0252239353706 253.38415616952298 448.73378384918357 254.0386763695697 448.95331659817623 L 382.2184830001091 491.94613074347563 L 382.218483000109 491.94613074347563 L 381.2644849081033 494.7904035223155 L 398.7335279518699 496.16700627365805 L 398.73352795187054 496.16700627365805 L 383.96747950211955 486.73163064893583 L 383.01348141011385 489.5759034277757 L 383.0134814101138 489.5759034277757 L 254.8336747795745 446.5830892824763 C 254.70183586353573 446.5388691657249 254.56780437390802 446.5178635012865 254.4360185940278 446.5178635012865 Z" fill-opacity="0.6980392156862745"/><path fill="rgb(176,0,32)" stroke="none" paint-order="stroke fill markers" d=" M 457.0875958725716 440.6198796114052 L 457.6733193418909 443.5621454079452 L 457.6733193418906 443.5621454079452 L 147.21853718645662 505.36507710931556 L 147.21853718645664 505.36507710931556 C 146.5414669658826 505.4998630008668 146.1018586585635 506.15800241618285 146.23664455011473 506.8350726367569 C 146.35503096463393 507.4297633337502 146.8771650375146 507.84126105109755 147.46125080156745 507.84126105109755 C 147.54216127690566 507.84126105109755 147.62426055397535 507.83336475013084 147.70664007755605 507.8169652730988 L 458.1614222329903 446.01403357172836 L 458.7471457023095 448.9562993682683 L 474.59021030116674 441.46898983036095 L 457.0875958725716 440.6198796114052 Z" fill-opacity="0.6980392156862745"/><path fill="rgb(0,103,88)" stroke="none" paint-order="stroke fill markers" d=" M 318.8410432298881 57.24295291924881 L 314.5910432298881 74.24295291924881 L 317.5910432298881 74.24295291924881 L 317.5910432298881 562.0100076988217 C 317.5910432298881 562.7003636361102 318.1506872925996 563.2600076988217 318.8410432298881 563.2600076988217 C 319.5313991671766 563.2600076988217 320.0910432298881 562.7003636361102 320.0910432298881 562.0100076988217 L 320.0910432298881 74.24295291924881 L 323.0910432298881 74.24295291924881 L 318.8410432298881 57.24295291924881 Z" fill-opacity="0.6980392156862745"/><path fill="rgb(28,28,31)" stroke="none" paint-order="stroke fill markers" d=" M 210.77552383664272 473.4296395514826 C 210.77552383664272 476.19106330063653 208.5369475857967 478.4296395514826 205.77552383664272 478.4296395514826 C 203.01410008748874 478.4296395514826 200.77552383664272 476.19106330063653 200.77552383664272 473.4296395514826 C 200.77552383664272 470.66821580232863 203.01410008748874 468.4296395514826 205.77552383664272 468.4296395514826 C 208.5369475857967 468.4296395514826 210.77552383664272 470.66821580232863 210.77552383664272 473.4296395514826 Z" fill-opacity="1"/><text fill="rgb(20,62,146)" stroke="none" font-family="geogebra-sans-serif, sans-serif" font-size="16px" font-style="normal" font-weight="bold" text-decoration="normal" x="399" y="496" text-anchor="start" dominant-baseline="alphabetic" fill-opacity="1">x</text><text fill="rgb(176,0,32)" stroke="none" font-family="geogebra-sans-serif, sans-serif" font-size="16px" font-style="normal" font-weight="bold" text-decoration="normal" x="475" y="441" text-anchor="start" dominant-baseline="alphabetic" fill-opacity="1">y</text><text fill="rgb(0,103,88)" stroke="none" font-family="geogebra-sans-serif, sans-serif" font-size="16px" font-style="normal" font-weight="bold" text-decoration="normal" x="319" y="57" text-anchor="start" dominant-baseline="alphabetic" fill-opacity="1">z</text></g></g></svg>