<svg version="1.1" xmlns="http://www.w3.org/2000/svg" xmlns:xlink="http://www.w3.org/1999/xlink" width="638" height="630"><defs><clipPath id="uyRhrlVTPtam"><path fill="none" stroke="none" d=" M 0 0 L 638 0 L 638 630 L 0 630 L 0 0 Z"/></clipPath></defs><g transform="scale(1,1)" clip-path="url(#uyRhrlVTPtam)"><g><path fill="rgb(110,109,115)" stroke="none" paint-order="stroke fill markers" fill-rule="evenodd" d=" M 600.3617639345061 466.91578909890586 L 357.66628234163005 611.6314143452308 L 37.005499280966546 504.07851804893784 L 279.7009808738427 359.36289280261286 Z" fill-opacity="0.09803921568627451"/><path fill="none" stroke="rgb(28,28,31)" paint-order="fill stroke markers" d=" M 177.6422400087196 478.3911129026046 L 0 474.34812803412126" stroke-opacity="0.6980392156862745" stroke-linecap="round" stroke-linejoin="round" stroke-miterlimit="10" stroke-width="2.5"/><path fill="none" stroke="rgb(0,0,0)" paint-order="fill stroke markers" d=" M 177.6422400087196 478.3911129026046 L 639 488.89121942293764" stroke-opacity="0.6980392156862745" stroke-linejoin="round" stroke-miterlimit="10" stroke-width="2.5" stroke-dasharray="2.5,3"/><path fill="rgb(20,62,146)" stroke="none" paint-order="stroke fill markers" d=" M 175.71895812641932 420.1153587721064 C 175.19648750309028 420.1153587721064 174.709314081355 420.44551772213583 174.53400144911367 420.9681990061438 C 174.31446870012098 421.6227192061905 174.66709570191452 422.33127912000344 175.32161590196125 422.5508118689961 L 479.8648532158656 524.6977189772566 L 478.91085512385985 527.5419917560965 L 496.3798981676272 528.9185945074391 L 481.61384971787606 519.4832188827169 L 480.6598516258703 522.3274916615568 L 176.11661431196603 420.18058455329617 C 175.98477539592727 420.1363644365448 175.85074390629956 420.1153587721064 175.71895812641932 420.1153587721064 Z" fill-opacity="0.6980392156862745"/><path fill="rgb(176,0,32)" stroke="none" paint-order="stroke fill markers" d=" M 422.8229089967667 407.36744685566777 L 406.04502451290426 412.4236403098537 L 407.58146707209903 415.0003328142661 L 179.48724300422646 551.0094502251541 C 178.89429801456384 551.3630143061683 178.70024144603818 552.1303115119944 179.05380552705245 552.723256501657 C 179.28773545643617 553.1155689197124 179.70278087639386 553.333264253116 180.1286109388109 553.333264253116 C 180.3463847755758 553.333264253116 180.56697923194815 553.2763281304616 180.76761180355544 553.1566939788311 L 408.86183587142796 417.1475765679431 L 410.3982784306227 419.72426907235547 L 422.822908996767 407.36744685566777 Z" fill-opacity="0.6980392156862745"/><path fill="rgb(0,103,88)" stroke="none" paint-order="stroke fill markers" d=" M 318.8410432298881 37.78659805845422 L 314.5910432298881 54.78659805845422 L 317.5910432298881 54.78659805845422 L 317.5910432298881 554.1726782564883 C 317.5910432298881 554.8630341937768 318.1506872925996 555.4226782564883 318.8410432298881 555.4226782564883 C 319.5313991671766 555.4226782564883 320.0910432298881 554.8630341937768 320.0910432298881 554.1726782564883 L 320.0910432298881 54.78659805845422 L 323.0910432298881 54.78659805845422 L 318.8410432298881 37.78659805845422 Z" fill-opacity="0.6980392156862745"/><path fill="rgb(28,28,31)" stroke="none" paint-order="stroke fill markers" d=" M 182.6422400087196 478.3911129026046 C 182.6422400087196 481.15253665175857 180.40366375787357 483.3911129026046 177.6422400087196 483.3911129026046 C 174.88081625956562 483.3911129026046 172.6422400087196 481.15253665175857 172.6422400087196 478.3911129026046 C 172.6422400087196 475.62968915345067 174.88081625956562 473.3911129026046 177.6422400087196 473.3911129026046 C 180.40366375787357 473.3911129026046 182.6422400087196 475.62968915345067 182.6422400087196 478.3911129026046 Z" fill-opacity="1"/><text fill="rgb(20,62,146)" stroke="none" font-family="geogebra-sans-serif, sans-serif" font-size="16px" font-style="normal" font-weight="bold" text-decoration="normal" x="496" y="529" text-anchor="start" dominant-baseline="alphabetic" fill-opacity="1">x</text><text fill="rgb(176,0,32)" stroke="none" font-family="geogebra-sans-serif, sans-serif" font-size="16px" font-style="normal" font-weight="bold" text-decoration="normal" x="423" y="407" text-anchor="start" dominant-baseline="alphabetic" fill-opacity="1">y</text><text fill="rgb(0,103,88)" stroke="none" font-family="geogebra-sans-serif, sans-serif" font-size="16px" font-style="normal" font-weight="bold" text-decoration="normal" x="319" y="38" text-anchor="start" dominant-baseline="alphabetic" fill-opacity="1">z</text></g></g></svg>