<svg version="1.1" xmlns="http://www.w3.org/2000/svg" xmlns:xlink="http://www.w3.org/1999/xlink" width="562" height="630"><defs><clipPath id="mbgOSvuBAJIh"><path fill="none" stroke="none" d=" M 0 0 L 562 0 L 562 630 L 0 630 L 0 0 Z"/></clipPath></defs><g transform="scale(1,1)" clip-path="url(#mbgOSvuBAJIh)"><g><path fill="rgb(110,109,115)" stroke="none" paint-order="stroke fill markers" fill-rule="evenodd" d=" M 472.5831524033548 475.22001765365155 L 347.4693974191108 432.27051967398575 L 99.10925692799958 490.15897347266576 L 224.22301191224358 533.1084714523315 Z" fill-opacity="0.09803921568627451"/><path fill="none" stroke="rgb(0,0,0)" paint-order="fill stroke markers" d=" M 129.46905996880986 636 L 500.5743231267051 -5" stroke-opacity="0.6980392156862745" stroke-linecap="round" stroke-linejoin="round" stroke-miterlimit="10" stroke-width="2.5"/><path fill="rgb(176,0,32)" stroke="none" paint-order="stroke fill markers" d=" M 237.29451255008314 451.5612436297533 C 236.77534984039525 451.5612436297533 236.29031874342903 451.8872110320068 236.11232058335048 452.40572741136606 C 235.88817222017903 453.05868133886554 236.23578781261733 453.7697132324893 236.8887417401168 453.9938615956608 L 345.92352040514527 491.4237109881332 L 344.9494647721111 494.2611773974066 L 362.408353238125 495.7610819047961 L 347.7092890657078 486.2216892377988 L 346.7352334326737 489.0591556470721 L 346.7352334326735 489.0591556470721 L 237.70045476764523 451.6293062545997 C 237.566017219505 451.5831560515068 237.42911767453944 451.5612436297533 237.29451255008314 451.5612436297533 Z" fill-opacity="0.6980392156862745"/><path fill="rgb(0,103,88)" stroke="none" paint-order="stroke fill markers" d=" M 378.5000434802704 448.7967585704554 L 379.1810378643929 451.71844415394884 L 379.1810378643927 451.71844415394884 L 147.3771156797447 505.74792977593444 C 146.70478134992638 505.9046392813808 146.28678484122707 506.57671209928947 146.44349434667345 507.2490464291078 C 146.57795807557451 507.8259392014898 147.09185307527832 508.21557820483787 147.65977563571124 508.21557820483787 C 147.753733154796 508.21557820483787 147.8491694424105 508.2049135387244 147.94461099984682 508.18266776217905 L 379.7485331844948 454.15318214019345 L 379.74853318449505 454.15318214019345 L 380.4295275686176 457.07486772368685 L 396.021003830907 449.0768449703767 L 378.500043480274 448.7967585704554 Z" fill-opacity="0.6980392156862745"/><path fill="rgb(21,101,192)" stroke="none" paint-order="stroke fill markers" d=" M 285.8462046656772 112.95033904255746 L 281.5962046656772 129.95033904255746 L 284.5962046656772 129.95033904255746 L 284.5962046656772 536.843210407085 C 284.5962046656772 537.5335663443735 285.1558487283887 538.093210407085 285.8462046656772 538.093210407085 C 286.53656060296566 538.093210407085 287.0962046656772 537.5335663443735 287.0962046656772 536.843210407085 L 287.0962046656772 129.95033904255746 L 290.0962046656772 129.95033904255746 L 285.8462046656772 112.95033904255746 Z" fill-opacity="0.6980392156862745"/><text fill="rgb(21,101,192)" stroke="none" font-family="geogebra-sans-serif, sans-serif" font-size="16px" font-style="normal" font-weight="bold" text-decoration="normal" x="286" y="113" text-anchor="start" dominant-baseline="alphabetic" fill-opacity="1">z</text><text fill="rgb(176,0,32)" stroke="none" font-family="geogebra-sans-serif, sans-serif" font-size="16px" font-style="normal" font-weight="bold" text-decoration="normal" x="362" y="496" text-anchor="start" dominant-baseline="alphabetic" fill-opacity="1">x</text><text fill="rgb(0,103,88)" stroke="none" font-family="geogebra-sans-serif, sans-serif" font-size="16px" font-style="normal" font-weight="bold" text-decoration="normal" x="396" y="449" text-anchor="start" dominant-baseline="alphabetic" fill-opacity="1">y</text></g></g></svg>