<svg version="1.1" xmlns="http://www.w3.org/2000/svg" xmlns:xlink="http://www.w3.org/1999/xlink" width="562" height="630"><defs><clipPath id="rXdDemTUwsvl"><path fill="none" stroke="none" d=" M 0 0 L 562 0 L 562 630 L 0 630 L 0 0 Z"/></clipPath></defs><g transform="scale(1,1)" clip-path="url(#rXdDemTUwsvl)"><g><path fill="rgb(110,109,115)" stroke="none" paint-order="stroke fill markers" fill-rule="evenodd" d=" M 442.7052407653264 470.73833090794733 L 417.6824897684776 462.14843131201417 L 128.98716856602798 473.7261220717501 L 154.00991956287677 482.3160216676833 Z" fill-opacity="0.09803921568627451"/><path fill="none" stroke="rgb(0,0,0)" paint-order="fill stroke markers" d=" M -5 345.7830259025623 L 568 339.34482365537133" stroke-opacity="0.6980392156862745" stroke-linecap="round" stroke-linejoin="round" stroke-miterlimit="10" stroke-width="2.5"/><path fill="rgb(176,0,32)" stroke="none" paint-order="stroke fill markers" d=" M 276.13579767952007 465.00630386686606 C 275.61663496983215 465.00630386686606 275.131603872866 465.3322712691196 274.9536057127874 465.85078764847884 C 274.7294573496159 466.5037415759783 275.07707294205426 467.2147734696021 275.73002686955374 467.4389218327736 L 284.673801547187 470.50917284151336 L 283.69974591415286 473.3466392507867 L 301.15863438016675 474.8465437581762 L 286.45957020774955 465.3071510911789 L 285.4855145747154 468.1446175004523 L 276.54173989708215 465.0743664917125 C 276.4073023489419 465.0282162886196 276.27040280397637 465.00630386686606 276.13579767952007 465.00630386686606 Z" fill-opacity="0.6980392156862745"/><path fill="rgb(0,103,88)" stroke="none" paint-order="stroke fill markers" d=" M 410.23616209805147 461.9443216769736 L 410.3563759461695 464.94191214778846 L 410.3563759461696 464.94191214778846 L 138.6474007450047 475.83839110152206 C 137.95759928530916 475.86605454945294 137.42083037095009 476.4476747747154 137.44849381888096 477.1374762344109 C 137.47547319405845 477.8102200089977 138.02935116018634 478.33740615922306 138.69661109355232 478.3374061592231 C 138.7135297336928 478.3374061592231 138.7305212666611 478.337067233288 138.74757895176975 478.3363831605346 L 410.4565541529346 467.439904206801 L 410.45655415293464 467.439904206801 L 410.5767680010527 470.4374946776159 L 427.3928110508368 465.50969637129236 L 410.23616209805175 461.9443216769736 Z" fill-opacity="0.6980392156862745"/><path fill="rgb(21,101,192)" stroke="none" paint-order="stroke fill markers" d=" M 285.8462046656772 159.2611020815014 L 281.5962046656772 176.2611020815014 L 284.5962046656772 176.2611020815014 L 284.5962046656772 542.8187927346908 C 284.5962046656772 543.5091486719792 285.1558487283887 544.0687927346908 285.8462046656772 544.0687927346908 C 286.53656060296566 544.0687927346908 287.0962046656772 543.5091486719792 287.0962046656772 542.8187927346908 L 287.0962046656772 176.2611020815014 L 290.0962046656772 176.2611020815014 L 285.8462046656772 159.2611020815014 Z" fill-opacity="0.6980392156862745"/><text fill="rgb(21,101,192)" stroke="none" font-family="geogebra-sans-serif, sans-serif" font-size="16px" font-style="normal" font-weight="bold" text-decoration="normal" x="286" y="159" text-anchor="start" dominant-baseline="alphabetic" fill-opacity="1">z</text><text fill="rgb(176,0,32)" stroke="none" font-family="geogebra-sans-serif, sans-serif" font-size="16px" font-style="normal" font-weight="bold" text-decoration="normal" x="301" y="475" text-anchor="start" dominant-baseline="alphabetic" fill-opacity="1">x</text><text fill="rgb(0,103,88)" stroke="none" font-family="geogebra-sans-serif, sans-serif" font-size="16px" font-style="normal" font-weight="bold" text-decoration="normal" x="427" y="466" text-anchor="start" dominant-baseline="alphabetic" fill-opacity="1">y</text></g></g></svg>