<svg version="1.1" xmlns="http://www.w3.org/2000/svg" xmlns:xlink="http://www.w3.org/1999/xlink" width="638" height="630"><defs><clipPath id="mVcMTsSzfrcN"><path fill="none" stroke="none" d=" M 0 0 L 638 0 L 638 630 L 0 630 L 0 0 Z"/></clipPath></defs><g transform="scale(1,1)" clip-path="url(#mVcMTsSzfrcN)"><g><path fill="rgb(110,109,115)" stroke="none" paint-order="stroke fill markers" fill-rule="evenodd" d=" M 529.4577483442274 469.00208278940664 L 156.27623208800287 490.70942657635544 L 108.17711462890333 474.57649213191144 L 481.3586308851278 452.8691483449627 Z" fill-opacity="0.09803921568627451"/><path fill="none" stroke="rgb(28,28,31)" paint-order="fill stroke markers" d=" M 221.12095137914622 470.7233813599615 L 2.842170943040401e-14 377.7924668104644" stroke-opacity="0.6980392156862745" stroke-linecap="round" stroke-linejoin="round" stroke-miterlimit="10" stroke-width="2.5"/><path fill="none" stroke="rgb(0,0,0)" paint-order="fill stroke markers" d=" M 221.12095137914622 470.7233813599615 L 639 646.3461883223961" stroke-opacity="0.6980392156862745" stroke-linejoin="round" stroke-miterlimit="10" stroke-width="2.5" stroke-dasharray="2.5,3"/><path fill="rgb(20,62,146)" stroke="none" paint-order="stroke fill markers" d=" M 297.3725970309051 460.91922971720294 C 296.8501264075761 460.91922971720294 296.36295298584076 461.2493886672324 296.1876403535995 461.7720699512403 C 295.9681076046068 462.42659015128703 296.3207346064004 463.1351500651 296.9752548064471 463.35468281409266 L 328.9568265187874 474.0816280705042 L 328.95682651878735 474.0816280705042 L 328.00282842678166 476.9259008493441 L 345.471871470549 478.3025036006867 L 330.7058230207979 468.8671279759644 L 329.7518249287922 471.7114007548043 L 329.75182492879213 471.7114007548043 L 297.7702532164518 460.9844554983927 C 297.63841430041305 460.94023538164134 297.50438281078533 460.91922971720294 297.3725970309051 460.91922971720294 Z" fill-opacity="0.6980392156862745"/><path fill="rgb(176,0,32)" stroke="none" paint-order="stroke fill markers" d=" M 485.6088093273671 456.81419613880365 L 485.78301982645627 459.8091336510078 L 485.7830198264553 459.8091336510078 L 129.57281613938818 480.52928460978467 C 128.8836251749355 480.5693736939127 128.35742413312892 481.1605719833708 128.39751321725697 481.8497629478235 C 128.4361649474373 482.51424366071933 128.9871154020472 483.02721260669324 129.64425959650842 483.02721260669324 C 129.6686970226656 483.02721260669324 129.69328130373893 483.0265032239024 129.71799155529578 483.0250658699547 L 485.9281952423629 462.30491491117783 L 485.92819524236387 462.30491491117783 L 486.102405741453 465.2998524233819 L 502.82692010356647 460.06983145292094 L 485.6088093273671 456.81419613880365 Z" fill-opacity="0.6980392156862745"/><path fill="rgb(0,103,88)" stroke="none" paint-order="stroke fill markers" d=" M 318.8410432298881 67.85551011604582 L 314.5910432298881 84.85551011604582 L 317.5910432298881 84.85551011604582 L 317.5910432298881 566.2849146673673 C 317.5910432298881 566.9752706046557 318.1506872925996 567.5349146673673 318.8410432298881 567.5349146673673 C 319.5313991671766 567.5349146673673 320.0910432298881 566.9752706046557 320.0910432298881 566.2849146673673 L 320.0910432298881 84.85551011604582 L 323.0910432298881 84.85551011604582 L 318.8410432298881 67.85551011604582 Z" fill-opacity="0.6980392156862745"/><path fill="rgb(28,28,31)" stroke="none" paint-order="stroke fill markers" d=" M 226.12095137914622 470.7233813599615 C 226.12095137914622 473.4848051091154 223.8823751283002 475.7233813599615 221.12095137914622 475.7233813599615 C 218.35952762999224 475.7233813599615 216.12095137914622 473.4848051091154 216.12095137914622 470.7233813599615 C 216.12095137914622 467.96195761080753 218.35952762999224 465.7233813599615 221.12095137914622 465.7233813599615 C 223.8823751283002 465.7233813599615 226.12095137914622 467.96195761080753 226.12095137914622 470.7233813599615 Z" fill-opacity="1"/><text fill="rgb(20,62,146)" stroke="none" font-family="geogebra-sans-serif, sans-serif" font-size="16px" font-style="normal" font-weight="bold" text-decoration="normal" x="345" y="478" text-anchor="start" dominant-baseline="alphabetic" fill-opacity="1">x</text><text fill="rgb(176,0,32)" stroke="none" font-family="geogebra-sans-serif, sans-serif" font-size="16px" font-style="normal" font-weight="bold" text-decoration="normal" x="503" y="460" text-anchor="start" dominant-baseline="alphabetic" fill-opacity="1">y</text><text fill="rgb(0,103,88)" stroke="none" font-family="geogebra-sans-serif, sans-serif" font-size="16px" font-style="normal" font-weight="bold" text-decoration="normal" x="319" y="68" text-anchor="start" dominant-baseline="alphabetic" fill-opacity="1">z</text></g></g></svg>