<svg version="1.1" xmlns="http://www.w3.org/2000/svg" xmlns:xlink="http://www.w3.org/1999/xlink" width="562" height="630"><defs><clipPath id="EopEwWvNRgOw"><path fill="none" stroke="none" d=" M 0 0 L 562 0 L 562 630 L 0 630 L 0 0 Z"/></clipPath></defs><g transform="scale(1,1)" clip-path="url(#EopEwWvNRgOw)"><g><path fill="rgb(110,109,115)" stroke="none" paint-order="stroke fill markers" fill-rule="evenodd" d=" M 461.37893553909413 473.5393851240125 L 373.79930705012333 443.4747365382464 L 110.31347379226025 483.9966541973224 L 197.89310228123105 514.0613027830884 Z" fill-opacity="0.09803921568627451"/><path fill="none" stroke="rgb(0,0,0)" paint-order="fill stroke markers" d=" M -5 525.0396071424177 L 568 184.356047191862" stroke-opacity="0.6980392156862745" stroke-linecap="round" stroke-linejoin="round" stroke-miterlimit="10" stroke-width="2.5"/><path fill="rgb(176,0,32)" stroke="none" paint-order="stroke fill markers" d=" M 251.85999447362198 456.6031412186706 C 251.3408317639341 456.6031412186706 250.85580066696787 456.9291086209241 250.67780250688932 457.4476250002834 C 250.45365414371787 458.10057892778286 250.80126973615617 458.81161082140665 251.45422366365565 459.0357591845781 L 322.95487583341094 483.5807591831508 L 321.9808202003768 486.41822559242416 L 339.4397086663907 487.91813009981365 L 324.7406444939735 478.37873743281637 L 323.76658886093935 481.2162038420897 L 252.26593669118407 456.67120384351705 C 252.13149914304384 456.62505364042414 251.99459959807828 456.6031412186706 251.85999447362198 456.6031412186706 Z" fill-opacity="0.6980392156862745"/><path fill="rgb(0,103,88)" stroke="none" paint-order="stroke fill markers" d=" M 390.3369557118228 453.62262741346944 L 390.79296935185965 456.5877667963822 L 144.10959259716884 494.52560716191573 C 143.42725873787492 494.6305444032104 142.95918629634255 495.26875372885087 143.06412353763722 495.9510875881448 C 143.15915957424806 496.5690408031582 143.69158293899255 497.0112577818528 144.29805138012222 497.0112577818528 C 144.36123549831612 497.0112577818528 144.42522331958577 497.00645785236026 144.48960396386627 496.9965566476764 L 391.1729807185571 459.0587162821429 L 391.62899435859396 462.02385566505563 L 407.7854315383807 455.2391642457201 L 390.3369557118228 453.62262741346944 Z" fill-opacity="0.6980392156862745"/><path fill="rgb(21,101,192)" stroke="none" paint-order="stroke fill markers" d=" M 285.8462046656772 130.31687518216148 L 281.5962046656772 147.31687518216148 L 284.5962046656772 147.31687518216148 L 284.5962046656772 539.0840537799372 C 284.5962046656772 539.7744097172257 285.1558487283887 540.3340537799372 285.8462046656772 540.3340537799372 C 286.53656060296566 540.3340537799372 287.0962046656772 539.7744097172257 287.0962046656772 539.0840537799372 L 287.0962046656772 147.31687518216148 L 290.0962046656772 147.31687518216148 L 285.8462046656772 130.31687518216148 Z" fill-opacity="0.6980392156862745"/><text fill="rgb(21,101,192)" stroke="none" font-family="geogebra-sans-serif, sans-serif" font-size="16px" font-style="normal" font-weight="bold" text-decoration="normal" x="286" y="130" text-anchor="start" dominant-baseline="alphabetic" fill-opacity="1">z</text><text fill="rgb(176,0,32)" stroke="none" font-family="geogebra-sans-serif, sans-serif" font-size="16px" font-style="normal" font-weight="bold" text-decoration="normal" x="339" y="488" text-anchor="start" dominant-baseline="alphabetic" fill-opacity="1">x</text><text fill="rgb(0,103,88)" stroke="none" font-family="geogebra-sans-serif, sans-serif" font-size="16px" font-style="normal" font-weight="bold" text-decoration="normal" x="408" y="455" text-anchor="start" dominant-baseline="alphabetic" fill-opacity="1">y</text></g></g></svg>