<svg version="1.1" xmlns="http://www.w3.org/2000/svg" xmlns:xlink="http://www.w3.org/1999/xlink" width="638" height="630"><defs><clipPath id="yyqvyiEsFSEi"><path fill="none" stroke="none" d=" M 0 0 L 638 0 L 638 630 L 0 630 L 0 0 Z"/></clipPath></defs><g transform="scale(1,1)" clip-path="url(#yyqvyiEsFSEi)"><g><path fill="rgb(110,109,115)" stroke="none" paint-order="stroke fill markers" fill-rule="evenodd" d=" M 592.0201150415322 467.1612354154354 L 333.973335252968 597.4052981371278 L 45.378630498370796 500.60769147046415 L 303.42541028693506 370.36362874877165 Z" fill-opacity="0.09803921568627451"/><path fill="none" stroke="rgb(28,28,31)" paint-order="fill stroke markers" d=" M 182.75738252288744 477.48902683876423 L 0 464.6399314095094" stroke-opacity="0.6980392156862745" stroke-linecap="round" stroke-linejoin="round" stroke-miterlimit="10" stroke-width="2.5"/><path fill="none" stroke="rgb(0,0,0)" paint-order="fill stroke markers" d=" M 182.75738252288744 477.48902683876423 L 639 509.566006985502" stroke-opacity="0.6980392156862745" stroke-linejoin="round" stroke-miterlimit="10" stroke-width="2.5" stroke-dasharray="2.5,3"/><path fill="rgb(20,62,146)" stroke="none" paint-order="stroke fill markers" d=" M 190.0311509387118 424.91581417741185 C 189.50868031538275 424.91581417741185 189.02150689364746 425.2459731274413 188.84619426140614 425.76865441144923 C 188.62666151241345 426.42317461149594 188.97928851420698 427.1317345253089 189.63380871425372 427.35126727430156 L 462.1109677220917 518.7428847529328 L 461.15696963008594 521.5871575317727 L 478.62601267385185 522.9637602831152 L 478.6260126738531 522.9637602831152 L 463.85996422410216 513.5283846583931 L 462.90596613209647 516.3726574372329 L 462.90596613209607 516.3726574372329 L 190.4288071242585 424.9810399586016 C 190.29696820821974 424.93681984185025 190.16293671859202 424.91581417741185 190.0311509387118 424.91581417741185 Z" fill-opacity="0.6980392156862745"/><path fill="rgb(176,0,32)" stroke="none" paint-order="stroke fill markers" d=" M 432.23514559756705 413.567727396521 L 415.14370581737643 417.4336278401585 L 416.49547224871515 420.1118226641222 L 173.62512979594504 542.6958756082286 C 173.00882722996548 543.0069422687959 172.7613846384506 543.7587235652917 173.07245129901793 544.3750261312713 C 173.29235642778048 544.8107144010501 173.73251426437275 545.0620602379647 174.18935473761832 545.0620602379647 C 174.3787376663651 545.0620602379647 174.5709875258598 545.0188661600032 174.75160182206065 544.9277046281984 L 417.62194427483075 422.3436516840919 L 418.97371070616947 425.0218465080556 L 432.23514559756705 413.567727396521 Z" fill-opacity="0.6980392156862745"/><path fill="rgb(0,103,88)" stroke="none" paint-order="stroke fill markers" d=" M 318.8410432298881 41.32411712405326 L 314.5910432298881 58.32411712405326 L 317.5910432298881 58.32411712405326 L 317.5910432298881 555.5976472460035 C 317.5910432298881 556.288003183292 318.1506872925996 556.8476472460035 318.8410432298881 556.8476472460035 C 319.5313991671766 556.8476472460035 320.0910432298881 556.288003183292 320.0910432298881 555.5976472460035 L 320.0910432298881 58.32411712405326 L 323.0910432298881 58.32411712405326 L 318.8410432298881 41.32411712405326 Z" fill-opacity="0.6980392156862745"/><path fill="rgb(28,28,31)" stroke="none" paint-order="stroke fill markers" d=" M 187.75738252288744 477.48902683876423 C 187.75738252288744 480.2504505879182 185.51880627204142 482.48902683876423 182.75738252288744 482.48902683876423 C 179.99595877373346 482.48902683876423 177.75738252288744 480.2504505879182 177.75738252288744 477.48902683876423 C 177.75738252288744 474.7276030896103 179.99595877373346 472.48902683876423 182.75738252288744 472.48902683876423 C 185.51880627204142 472.48902683876423 187.75738252288744 474.7276030896103 187.75738252288744 477.48902683876423 Z" fill-opacity="1"/><text fill="rgb(20,62,146)" stroke="none" font-family="geogebra-sans-serif, sans-serif" font-size="16px" font-style="normal" font-weight="bold" text-decoration="normal" x="479" y="523" text-anchor="start" dominant-baseline="alphabetic" fill-opacity="1">x</text><text fill="rgb(176,0,32)" stroke="none" font-family="geogebra-sans-serif, sans-serif" font-size="16px" font-style="normal" font-weight="bold" text-decoration="normal" x="432" y="414" text-anchor="start" dominant-baseline="alphabetic" fill-opacity="1">y</text><text fill="rgb(0,103,88)" stroke="none" font-family="geogebra-sans-serif, sans-serif" font-size="16px" font-style="normal" font-weight="bold" text-decoration="normal" x="319" y="41" text-anchor="start" dominant-baseline="alphabetic" fill-opacity="1">z</text></g></g></svg>