<svg version="1.1" xmlns="http://www.w3.org/2000/svg" xmlns:xlink="http://www.w3.org/1999/xlink" width="638" height="630"><defs><clipPath id="bDwSrKJfNiyP"><path fill="none" stroke="none" d=" M 0 0 L 638 0 L 638 630 L 0 630 L 0 0 Z"/></clipPath></defs><g transform="scale(1,1)" clip-path="url(#bDwSrKJfNiyP)"><g><path fill="rgb(110,109,115)" stroke="none" paint-order="stroke fill markers" fill-rule="evenodd" d=" M 566.9951683626102 467.8975743650239 L 262.89449398698196 554.7269495128189 L 70.49802415058383 490.1952117350431 L 374.59869852621216 403.3658365872481 Z" fill-opacity="0.09803921568627451"/><path fill="none" stroke="rgb(28,28,31)" paint-order="fill stroke markers" d=" M 198.10281006539094 474.78276864724313 L 0 432.84695800314944" stroke-opacity="0.6980392156862745" stroke-linecap="round" stroke-linejoin="round" stroke-miterlimit="10" stroke-width="2.5"/><path fill="none" stroke="rgb(0,0,0)" paint-order="fill stroke markers" d=" M 198.10281006539094 474.78276864724313 L 639 568.1150190303028" stroke-opacity="0.6980392156862745" stroke-linejoin="round" stroke-miterlimit="10" stroke-width="2.5" stroke-dasharray="2.5,3"/><path fill="rgb(20,62,146)" stroke="none" paint-order="stroke fill markers" d=" M 232.9677293755891 439.31718039332833 C 232.44525875226006 439.31718039332833 231.95808533052477 439.64733934335777 231.78277269828345 440.1700206273657 C 231.56323994929076 440.8245408274124 231.9158669510843 441.5331007412254 232.57038715113103 441.75263349021805 L 408.8493112407698 500.87838207996134 L 408.84931124076996 500.87838207996134 L 407.8953131487642 503.72265485880126 L 425.36435619253155 505.09925761014387 L 410.59830774278043 495.6638819854216 L 409.64430965077474 498.50815476426146 L 409.6443096507747 498.50815476426146 L 233.3653855611358 439.3824061745181 C 233.23354664509705 439.33818605776673 233.09951515546933 439.31718039332833 232.9677293755891 439.31718039332833 Z" fill-opacity="0.6980392156862745"/><path fill="rgb(176,0,32)" stroke="none" paint-order="stroke fill markers" d=" M 460.4718553999668 432.16856901908096 L 442.958283416586 432.74934124891115 L 443.781950997321 435.6340547037357 L 443.7819509973211 435.6340547037357 L 156.02798619903226 517.7959802273657 C 155.3641598453942 517.9855214956032 154.97967581659074 518.6773126385441 155.16921708482823 519.3411389921822 C 155.32601335560304 519.8902832374454 155.82651294951967 520.2482658912865 156.3705594887001 520.2482658912866 C 156.48417700305174 520.2482658912866 156.59969374126985 520.232653103849 156.71437584964477 520.1999081063863 L 444.46834064793353 438.0379825827563 L 444.4683406479336 438.0379825827563 L 445.2920082286686 440.92269603758086 L 460.4718553999668 432.16856901908096 Z" fill-opacity="0.6980392156862745"/><path fill="rgb(0,103,88)" stroke="none" paint-order="stroke fill markers" d=" M 318.8410432298881 51.93667432085027 L 314.5910432298881 68.93667432085027 L 317.5910432298881 68.93667432085027 L 317.5910432298881 559.872554214549 C 317.5910432298881 560.5629101518375 318.1506872925996 561.122554214549 318.8410432298881 561.122554214549 C 319.5313991671766 561.122554214549 320.0910432298881 560.5629101518375 320.0910432298881 559.872554214549 L 320.0910432298881 68.93667432085027 L 323.0910432298881 68.93667432085027 L 318.8410432298881 51.93667432085027 Z" fill-opacity="0.6980392156862745"/><path fill="rgb(28,28,31)" stroke="none" paint-order="stroke fill markers" d=" M 203.10281006539094 474.78276864724313 C 203.10281006539094 477.5441923963971 200.86423381454492 479.78276864724313 198.10281006539094 479.78276864724313 C 195.34138631623696 479.78276864724313 193.10281006539094 477.5441923963971 193.10281006539094 474.78276864724313 C 193.10281006539094 472.0213448980892 195.34138631623696 469.78276864724313 198.10281006539094 469.78276864724313 C 200.86423381454492 469.78276864724313 203.10281006539094 472.0213448980892 203.10281006539094 474.78276864724313 Z" fill-opacity="1"/><text fill="rgb(20,62,146)" stroke="none" font-family="geogebra-sans-serif, sans-serif" font-size="16px" font-style="normal" font-weight="bold" text-decoration="normal" x="425" y="505" text-anchor="start" dominant-baseline="alphabetic" fill-opacity="1">x</text><text fill="rgb(176,0,32)" stroke="none" font-family="geogebra-sans-serif, sans-serif" font-size="16px" font-style="normal" font-weight="bold" text-decoration="normal" x="460" y="432" text-anchor="start" dominant-baseline="alphabetic" fill-opacity="1">y</text><text fill="rgb(0,103,88)" stroke="none" font-family="geogebra-sans-serif, sans-serif" font-size="16px" font-style="normal" font-weight="bold" text-decoration="normal" x="319" y="52" text-anchor="start" dominant-baseline="alphabetic" fill-opacity="1">z</text></g></g></svg>