<svg version="1.1" xmlns="http://www.w3.org/2000/svg" xmlns:xlink="http://www.w3.org/1999/xlink" width="562" height="630"><defs><clipPath id="QpZbVzCBTJpn"><path fill="none" stroke="none" d=" M 0 0 L 562 0 L 562 630 L 0 630 L 0 0 Z"/></clipPath></defs><g transform="scale(1,1)" clip-path="url(#QpZbVzCBTJpn)"><g><path fill="rgb(110,109,115)" stroke="none" paint-order="stroke fill markers" fill-rule="evenodd" d=" M 498.7263250866297 479.1414935561428 L 286.0329416134149 406.127346990711 L 72.9660842447247 504.53771844846693 L 285.6594677179395 577.5518650138988 Z" fill-opacity="0.09803921568627451"/><path fill="none" stroke="rgb(0,0,0)" paint-order="fill stroke markers" d=" M 380.4543161966834 636 L 189.19917799682491 -5" stroke-opacity="0.6980392156862745" stroke-linecap="round" stroke-linejoin="round" stroke-miterlimit="10" stroke-width="2.5"/><path fill="rgb(176,0,32)" stroke="none" paint-order="stroke fill markers" d=" M 203.3083880618258 439.7968159222796 C 202.78922535213792 439.7968159222796 202.3041942551717 440.12278332453315 202.12619609509315 440.6412997038924 C 201.9020477319217 441.2942536313919 202.24966332436 442.00528552501567 202.90261725185948 442.22943388818715 L 399.51702440585876 509.7239318664256 L 398.5429687728246 512.5613982756989 L 416.0018572388385 514.0613027830884 L 401.3027930664213 504.52191011609114 L 400.3287374333872 507.3593765253645 L 203.7143302793879 439.86487854712607 C 203.57989273124767 439.81872834403316 203.4429931862821 439.7968159222796 203.3083880618258 439.7968159222796 Z" fill-opacity="0.6980392156862745"/><path fill="rgb(0,103,88)" stroke="none" paint-order="stroke fill markers" d=" M 368.57067251346837 434.69809999457556 L 351.35527362864565 437.9680451373027 L 352.6132049555272 440.69157387349213 L 154.97967709191087 531.9736678122525 C 154.35294234744276 532.2631412656572 154.07953805129458 533.0058747607308 154.36901150469922 533.6326095051988 C 154.58009968739918 534.0896334453519 155.0322104838469 534.3587726828138 155.50460681912776 534.3587726828138 C 155.680025992988 534.3587726828138 155.85824239333047 534.3216603631151 156.02795319764553 534.2432750924105 L 353.66148106126184 442.9611811536501 L 354.91941238814337 445.68470988983955 L 368.57067251346837 434.69809999457556 Z" fill-opacity="0.6980392156862745"/><path fill="rgb(21,101,192)" stroke="none" paint-order="stroke fill markers" d=" M 285.8462046656772 72.42842138348158 L 281.5962046656772 89.42842138348158 L 284.5962046656772 89.42842138348158 L 284.5962046656772 531.6145758704301 C 284.5962046656772 532.3049318077186 285.1558487283887 532.8645758704301 285.8462046656772 532.8645758704301 C 286.53656060296566 532.8645758704301 287.0962046656772 532.3049318077186 287.0962046656772 531.6145758704301 L 287.0962046656772 89.42842138348158 L 290.0962046656772 89.42842138348158 L 285.8462046656772 72.42842138348158 Z" fill-opacity="0.6980392156862745"/><text fill="rgb(21,101,192)" stroke="none" font-family="geogebra-sans-serif, sans-serif" font-size="16px" font-style="normal" font-weight="bold" text-decoration="normal" x="286" y="72" text-anchor="start" dominant-baseline="alphabetic" fill-opacity="1">z</text><text fill="rgb(176,0,32)" stroke="none" font-family="geogebra-sans-serif, sans-serif" font-size="16px" font-style="normal" font-weight="bold" text-decoration="normal" x="416" y="514" text-anchor="start" dominant-baseline="alphabetic" fill-opacity="1">x</text><text fill="rgb(0,103,88)" stroke="none" font-family="geogebra-sans-serif, sans-serif" font-size="16px" font-style="normal" font-weight="bold" text-decoration="normal" x="369" y="435" text-anchor="start" dominant-baseline="alphabetic" fill-opacity="1">y</text></g></g></svg>