<svg version="1.1" xmlns="http://www.w3.org/2000/svg" xmlns:xlink="http://www.w3.org/1999/xlink" width="562" height="630"><defs><clipPath id="WEhdKSfOgrqd"><path fill="none" stroke="none" d=" M 0 0 L 562 0 L 562 630 L 0 630 L 0 0 Z"/></clipPath></defs><g transform="scale(1,1)" clip-path="url(#WEhdKSfOgrqd)"><g><path fill="rgb(110,109,115)" stroke="none" paint-order="stroke fill markers" fill-rule="evenodd" d=" M 476.31789135810834 475.7802284968646 L 338.69276087543994 428.5357807192322 L 95.37451797324601 492.21307989778023 L 232.9996484559144 539.4575276754126 Z" fill-opacity="0.09803921568627451"/><path fill="none" stroke="rgb(0,0,0)" paint-order="fill stroke markers" d=" M 189.40563416886118 636 L 427.62017109734916 -5" stroke-opacity="0.6980392156862745" stroke-linecap="round" stroke-linejoin="round" stroke-miterlimit="10" stroke-width="2.5"/><path fill="rgb(176,0,32)" stroke="none" paint-order="stroke fill markers" d=" M 232.43935190890352 449.8806111001142 C 231.92018919921563 449.8806111001142 231.4351581022494 450.20657850236773 231.25715994217086 450.725094881727 C 231.0330115789994 451.37804880922647 231.3806271714377 452.08908070285025 232.0335810989372 452.31322906602173 L 353.57973526239005 494.03802825646073 L 352.6056796293559 496.8754946657341 L 370.0645680953698 498.3753991731236 L 355.3655039229526 488.8360065061263 L 354.39144828991846 491.67347291539966 L 232.8452941264656 449.94867372496066 C 232.71085657832538 449.90252352186775 232.57395703335982 449.8806111001142 232.43935190890352 449.8806111001142 Z" fill-opacity="0.6980392156862745"/><path fill="rgb(0,103,88)" stroke="none" paint-order="stroke fill markers" d=" M 392.0995279284158 447.0227385452623 L 374.5773861982669 447.2152202030219 L 375.3369184485584 450.1174797987106 L 148.46481325526702 509.4907628922733 C 147.79694920745496 509.6655454251236 147.39722766183456 510.34864544695296 147.57201019468485 511.01650949476505 C 147.71902966766993 511.57828771558485 148.22570630691482 511.95034322455035 148.78044435519408 511.95034322455035 C 148.88520072066854 511.95034322455035 148.99167097018432 511.93707561521245 149.0977567971766 511.90931255534724 L 375.969861990468 452.5360294617845 L 376.7293942407595 455.4382890574732 L 392.0995279284158 447.0227385452623 Z" fill-opacity="0.6980392156862745"/><path fill="rgb(21,101,192)" stroke="none" paint-order="stroke fill markers" d=" M 285.8462046656772 107.16149366268951 L 281.5962046656772 124.16149366268951 L 284.5962046656772 124.16149366268951 L 284.5962046656772 536.0962626161344 C 284.5962046656772 536.7866185534228 285.1558487283887 537.3462626161344 285.8462046656772 537.3462626161344 C 286.53656060296566 537.3462626161344 287.0962046656772 536.7866185534228 287.0962046656772 536.0962626161344 L 287.0962046656772 124.16149366268951 L 290.0962046656772 124.16149366268951 L 285.8462046656772 107.16149366268951 Z" fill-opacity="0.6980392156862745"/><text fill="rgb(21,101,192)" stroke="none" font-family="geogebra-sans-serif, sans-serif" font-size="16px" font-style="normal" font-weight="bold" text-decoration="normal" x="286" y="107" text-anchor="start" dominant-baseline="alphabetic" fill-opacity="1">z</text><text fill="rgb(176,0,32)" stroke="none" font-family="geogebra-sans-serif, sans-serif" font-size="16px" font-style="normal" font-weight="bold" text-decoration="normal" x="370" y="498" text-anchor="start" dominant-baseline="alphabetic" fill-opacity="1">x</text><text fill="rgb(0,103,88)" stroke="none" font-family="geogebra-sans-serif, sans-serif" font-size="16px" font-style="normal" font-weight="bold" text-decoration="normal" x="392" y="447" text-anchor="start" dominant-baseline="alphabetic" fill-opacity="1">y</text></g></g></svg>