<svg version="1.1" xmlns="http://www.w3.org/2000/svg" xmlns:xlink="http://www.w3.org/1999/xlink" width="638" height="630"><defs><clipPath id="nhMLFHbbIVXd"><path fill="none" stroke="none" d=" M 0 0 L 638 0 L 638 630 L 0 630 L 0 0 Z"/></clipPath></defs><g transform="scale(1,1)" clip-path="url(#nhMLFHbbIVXd)"><g><path fill="rgb(110,109,115)" stroke="none" paint-order="stroke fill markers" fill-rule="evenodd" d=" M 587.8492905950452 467.28395857370015 L 322.126861708637 590.2922400330763 L 49.56519610707301 498.8722781812273 L 315.28762499348124 375.8639967218511 Z" fill-opacity="0.09803921568627451"/><path fill="none" stroke="rgb(28,28,31)" paint-order="fill stroke markers" d=" M 185.31495377997135 477.03798380684407 L 0 459.61813118151224" stroke-opacity="0.6980392156862745" stroke-linecap="round" stroke-linejoin="round" stroke-miterlimit="10" stroke-width="2.5"/><path fill="none" stroke="rgb(0,0,0)" paint-order="fill stroke markers" d=" M 185.31495377997135 477.03798380684407 L 639 519.6849827794866" stroke-opacity="0.6980392156862745" stroke-linejoin="round" stroke-miterlimit="10" stroke-width="2.5" stroke-dasharray="2.5,3"/><path fill="rgb(20,62,146)" stroke="none" paint-order="stroke fill markers" d=" M 197.18724734485798 427.31604188006463 C 196.66477672152894 427.31604188006463 196.17760329979367 427.646200830094 196.00229066755236 428.16888211410196 C 195.78275791855967 428.82340231414867 196.1353849203532 429.5319622279617 196.78990512039994 429.75149497695435 L 453.23402497520476 515.7654676407709 L 452.280026883199 518.6097404196108 L 469.74906992696634 519.9863431709534 L 454.98302147721523 510.55096754623116 L 454.0290233852095 513.3952403250711 L 197.58490353040472 427.3812676612544 C 197.45306461436596 427.33704754450304 197.31903312473824 427.31604188006463 197.18724734485798 427.31604188006463 Z" fill-opacity="0.6980392156862745"/><path fill="rgb(176,0,32)" stroke="none" paint-order="stroke fill markers" d=" M 436.94126389796673 416.6678676669477 L 419.72868564224467 419.952627900303 L 420.9889604874686 422.6750729988304 L 170.6937204927155 538.5417970019374 C 170.06723511347872 538.8318097426093 169.79447014650052 539.5747782659304 170.0844828871724 540.2012636451672 C 170.29580458505333 540.6577606726121 170.74762337872392 540.9264496730302 171.21963232029762 540.9264496730302 C 171.3953969303285 540.9264496730302 171.5739611786103 540.8891922935012 171.74394953040212 540.8105012507102 L 422.0391895251553 424.9437772476032 L 423.2994643703792 427.66622234613055 L 436.94126389796696 416.6678676669477 Z" fill-opacity="0.6980392156862745"/><path fill="rgb(0,103,88)" stroke="none" paint-order="stroke fill markers" d=" M 318.8410432298881 43.09287665685275 L 314.5910432298881 60.09287665685275 L 317.5910432298881 60.09287665685275 L 317.5910432298881 556.3101317407611 C 317.5910432298881 557.0004876780496 318.1506872925996 557.5601317407611 318.8410432298881 557.5601317407611 C 319.5313991671766 557.5601317407611 320.0910432298881 557.0004876780496 320.0910432298881 556.3101317407611 L 320.0910432298881 60.09287665685275 L 323.0910432298881 60.09287665685275 L 318.8410432298881 43.09287665685275 Z" fill-opacity="0.6980392156862745"/><path fill="rgb(28,28,31)" stroke="none" paint-order="stroke fill markers" d=" M 190.31495377997135 477.03798380684407 C 190.31495377997135 479.799407555998 188.07637752912532 482.03798380684407 185.31495377997135 482.03798380684407 C 182.55353003081737 482.03798380684407 180.31495377997135 479.799407555998 180.31495377997135 477.03798380684407 C 180.31495377997135 474.2765600576901 182.55353003081737 472.03798380684407 185.31495377997135 472.03798380684407 C 188.07637752912532 472.03798380684407 190.31495377997135 474.2765600576901 190.31495377997135 477.03798380684407 Z" fill-opacity="1"/><text fill="rgb(20,62,146)" stroke="none" font-family="geogebra-sans-serif, sans-serif" font-size="16px" font-style="normal" font-weight="bold" text-decoration="normal" x="470" y="520" text-anchor="start" dominant-baseline="alphabetic" fill-opacity="1">x</text><text fill="rgb(176,0,32)" stroke="none" font-family="geogebra-sans-serif, sans-serif" font-size="16px" font-style="normal" font-weight="bold" text-decoration="normal" x="437" y="417" text-anchor="start" dominant-baseline="alphabetic" fill-opacity="1">y</text><text fill="rgb(0,103,88)" stroke="none" font-family="geogebra-sans-serif, sans-serif" font-size="16px" font-style="normal" font-weight="bold" text-decoration="normal" x="319" y="43" text-anchor="start" dominant-baseline="alphabetic" fill-opacity="1">z</text></g></g></svg>