<svg version="1.1" xmlns="http://www.w3.org/2000/svg" xmlns:xlink="http://www.w3.org/1999/xlink" width="562" height="630"><defs><clipPath id="ezrVTEzoQaxO"><path fill="none" stroke="none" d=" M 0 0 L 562 0 L 562 630 L 0 630 L 0 0 Z"/></clipPath></defs><g transform="scale(1,1)" clip-path="url(#ezrVTEzoQaxO)"><g><path fill="rgb(110,109,115)" stroke="none" paint-order="stroke fill markers" fill-rule="evenodd" d=" M 465.1136744938477 474.0995959672255 L 365.0226705064525 439.7399975834929 L 106.57873483750669 486.0507606224369 L 206.66973882490188 520.4103590061695 Z" fill-opacity="0.09803921568627451"/><path fill="none" stroke="rgb(0,0,0)" paint-order="fill stroke markers" d=" M -5 598.680763399977 L 568 119.23178380814073" stroke-opacity="0.6980392156862745" stroke-linecap="round" stroke-linejoin="round" stroke-miterlimit="10" stroke-width="2.5"/><path fill="rgb(176,0,32)" stroke="none" paint-order="stroke fill markers" d=" M 247.00483383244236 454.9225086890315 C 246.48567112275447 454.9225086890315 246.00064002578824 455.248476091285 245.8226418657097 455.76699247064425 C 245.59849350253825 456.41994639814374 245.94610909497655 457.1309782917675 246.59906302247603 457.355126654939 L 330.6110906906557 486.19507645147826 L 329.6370350576216 489.0325428607516 L 347.09592352363546 490.5324473681411 L 332.39685935121827 480.9930547011438 L 331.4228037181841 483.8305211104172 L 247.41077605000444 454.9905713138779 C 247.27633850186422 454.944421110785 247.13943895689866 454.9225086890315 247.00483383244236 454.9225086890315 Z" fill-opacity="0.6980392156862745"/><path fill="rgb(0,103,88)" stroke="none" paint-order="stroke fill markers" d=" M 386.3808624176264 452.00017321798487 L 386.9100065618941 454.95313892631714 L 145.19954324016544 498.26541848107775 C 144.52001077037988 498.38718441496997 144.06785165457956 499.03676511654226 144.18961758847178 499.7162975863278 C 144.2980238439688 500.32127443152086 144.82477898492684 500.7460339068185 145.418569000768 500.7460339068185 C 145.49174599234973 500.7460339068185 145.56594106912934 500.7395829164167 145.64049669372184 500.7262232380215 L 387.3509600154505 457.41394368326087 L 387.88010415971814 460.36690939159325 L 403.8639556358894 453.1850578206056 L 386.3808624176281 452.00017321798487 Z" fill-opacity="0.6980392156862745"/><path fill="rgb(21,101,192)" stroke="none" paint-order="stroke fill markers" d=" M 285.8462046656772 124.52802980229342 L 281.5962046656772 141.52802980229342 L 284.5962046656772 141.52802980229342 L 284.5962046656772 538.3371059889865 C 284.5962046656772 539.027461926275 285.1558487283887 539.5871059889865 285.8462046656772 539.5871059889865 C 286.53656060296566 539.5871059889865 287.0962046656772 539.027461926275 287.0962046656772 538.3371059889865 L 287.0962046656772 141.52802980229342 L 290.0962046656772 141.52802980229342 L 285.8462046656772 124.52802980229342 Z" fill-opacity="0.6980392156862745"/><text fill="rgb(21,101,192)" stroke="none" font-family="geogebra-sans-serif, sans-serif" font-size="16px" font-style="normal" font-weight="bold" text-decoration="normal" x="286" y="125" text-anchor="start" dominant-baseline="alphabetic" fill-opacity="1">z</text><text fill="rgb(176,0,32)" stroke="none" font-family="geogebra-sans-serif, sans-serif" font-size="16px" font-style="normal" font-weight="bold" text-decoration="normal" x="347" y="491" text-anchor="start" dominant-baseline="alphabetic" fill-opacity="1">x</text><text fill="rgb(0,103,88)" stroke="none" font-family="geogebra-sans-serif, sans-serif" font-size="16px" font-style="normal" font-weight="bold" text-decoration="normal" x="404" y="453" text-anchor="start" dominant-baseline="alphabetic" fill-opacity="1">y</text></g></g></svg>