<svg version="1.1" xmlns="http://www.w3.org/2000/svg" xmlns:xlink="http://www.w3.org/1999/xlink" width="562" height="630"><defs><clipPath id="sQxHDkCoWwhq"><path fill="none" stroke="none" d=" M 0 0 L 562 0 L 562 630 L 0 630 L 0 0 Z"/></clipPath></defs><g transform="scale(1,1)" clip-path="url(#sQxHDkCoWwhq)"><g><path fill="rgb(110,109,115)" stroke="none" paint-order="stroke fill markers" fill-rule="evenodd" d=" M 446.4399797200799 471.2985417511603 L 408.9058532248067 458.41369235726063 L 125.25242961127444 475.7802284968646 L 162.78655610654764 488.66507789076434 Z" fill-opacity="0.09803921568627451"/><path fill="none" stroke="rgb(0,0,0)" paint-order="fill stroke markers" d=" M -5 368.35028873184143 L 568 320.34337097626883" stroke-opacity="0.6980392156862745" stroke-linecap="round" stroke-linejoin="round" stroke-miterlimit="10" stroke-width="2.5"/><path fill="rgb(176,0,32)" stroke="none" paint-order="stroke fill markers" d=" M 271.28063703834044 463.325671337227 C 270.7614743286525 463.325671337227 270.27644323168636 463.6516387394805 270.0984450716078 464.1701551188398 C 269.8742967084363 464.82310904633925 270.22191230087464 465.53414093996304 270.8748662283741 465.7582893031345 L 292.3300164044318 473.1234901098409 L 291.35596077139763 475.96095651911423 L 308.8148492374115 477.4608610265037 L 294.1157850649943 467.92146835950643 L 293.1417294319602 470.7589347687798 L 271.68657925590253 463.39373396207344 C 271.5521417077623 463.34758375898053 271.41524216279674 463.325671337227 271.28063703834044 463.325671337227 Z" fill-opacity="0.6980392156862745"/><path fill="rgb(0,103,88)" stroke="none" paint-order="stroke fill markers" d=" M 406.24338980879895 460.25240412927724 L 406.42671999863745 463.24679722997297 L 406.42671999863654 463.24679722997297 L 139.74152395571394 479.5744622938253 L 139.74152395571392 479.5744622938253 C 139.05245827050027 479.6166499888384 138.52806004784367 480.2094479796676 138.57024774285676 480.89851366488125 C 138.6108434943931 481.56157760664115 139.16127924431063 482.07216699519796 139.81672952655714 482.07216699519796 C 139.84243270390144 482.07216699519796 139.86829737045892 482.07138182121514 139.8942991139127 482.0697898777384 L 406.57949515683623 465.742124813886 L 406.76282534667473 468.73651791458167 L 423.4713351483456 463.4555899461779 L 406.24338980879895 460.25240412927724 Z" fill-opacity="0.6980392156862745"/><path fill="rgb(21,101,192)" stroke="none" paint-order="stroke fill markers" d=" M 285.8462046656772 153.47225670163346 L 281.5962046656772 170.47225670163346 L 284.5962046656772 170.47225670163346 L 284.5962046656772 542.0718449437401 C 284.5962046656772 542.7622008810285 285.1558487283887 543.3218449437401 285.8462046656772 543.3218449437401 C 286.53656060296566 543.3218449437401 287.0962046656772 542.7622008810285 287.0962046656772 542.0718449437401 L 287.0962046656772 170.47225670163346 L 290.0962046656772 170.47225670163346 L 285.8462046656772 153.47225670163346 Z" fill-opacity="0.6980392156862745"/><text fill="rgb(21,101,192)" stroke="none" font-family="geogebra-sans-serif, sans-serif" font-size="16px" font-style="normal" font-weight="bold" text-decoration="normal" x="286" y="153" text-anchor="start" dominant-baseline="alphabetic" fill-opacity="1">z</text><text fill="rgb(176,0,32)" stroke="none" font-family="geogebra-sans-serif, sans-serif" font-size="16px" font-style="normal" font-weight="bold" text-decoration="normal" x="309" y="477" text-anchor="start" dominant-baseline="alphabetic" fill-opacity="1">x</text><text fill="rgb(0,103,88)" stroke="none" font-family="geogebra-sans-serif, sans-serif" font-size="16px" font-style="normal" font-weight="bold" text-decoration="normal" x="423" y="463" text-anchor="start" dominant-baseline="alphabetic" fill-opacity="1">y</text></g></g></svg>