<svg version="1.1" xmlns="http://www.w3.org/2000/svg" xmlns:xlink="http://www.w3.org/1999/xlink" width="638" height="630"><defs><clipPath id="CpuvqxpkBeMX"><path fill="none" stroke="none" d=" M 0 0 L 638 0 L 638 630 L 0 630 L 0 0 Z"/></clipPath></defs><g transform="scale(1,1)" clip-path="url(#CpuvqxpkBeMX)"><g><path fill="rgb(110,109,115)" stroke="none" paint-order="stroke fill markers" fill-rule="evenodd" d=" M 541.9702216836884 468.6339133146124 L 191.8156527209959 512.0486008885099 L 95.61741780279684 479.782731999622 L 445.7719867654892 436.3680444257245 Z" fill-opacity="0.09803921568627451"/><path fill="none" stroke="rgb(28,28,31)" paint-order="fill stroke markers" d=" M 213.4482376078945 472.07651045572203 L 0 397.1130131041702" stroke-opacity="0.6980392156862745" stroke-linecap="round" stroke-linejoin="round" stroke-miterlimit="10" stroke-width="2.5"/><path fill="none" stroke="rgb(0,0,0)" paint-order="fill stroke markers" d=" M 213.4482376078945 472.07651045572203 L 639 621.5312390144597" stroke-opacity="0.6980392156862745" stroke-linejoin="round" stroke-miterlimit="10" stroke-width="2.5" stroke-dasharray="2.5,3"/><path fill="rgb(20,62,146)" stroke="none" paint-order="stroke fill markers" d=" M 275.9043078124664 453.71854660924475 C 275.3818371891374 453.71854660924475 274.89466376740205 454.0487055592742 274.71935113516076 454.57138684328214 C 274.4998183861681 455.22590704332885 274.85244538796167 455.9344669571418 275.50696558800837 456.15399970613447 L 355.58765475944807 483.0138794069899 L 355.58765475944824 483.0138794069899 L 354.6336566674425 485.8581521858298 L 372.1026997112091 487.23475493717234 L 372.1026997112097 487.23475493717234 L 357.3366512614587 477.7993793124501 L 356.382653169453 480.64365209129 L 356.38265316945296 480.64365209129 L 276.3019639980131 453.78377239043454 C 276.17012508197433 453.73955227368316 276.0360935923466 453.71854660924475 275.9043078124664 453.71854660924475 Z" fill-opacity="0.6980392156862745"/><path fill="rgb(176,0,32)" stroke="none" paint-order="stroke fill markers" d=" M 471.3148052965105 448.6434717108547 L 471.68394041828395 451.62067497262126 L 138.40018993893523 492.943596856469 C 137.71507995617682 493.02854173079504 137.22855000627877 493.65279453351894 137.31349488060476 494.3379045162774 C 137.39196560229288 494.9707982042057 137.93066930980302 495.43422825802907 138.55242601359018 495.43422825802907 C 138.60372346208237 495.43422825802907 138.65558624558304 495.43107372724575 138.70780254041313 495.42459957460784 L 471.99155301976185 454.1016776907601 L 472.3606881415353 457.0788809525266 L 488.7085652023666 450.76941064164095 L 471.3148052965105 448.6434717108547 Z" fill-opacity="0.6980392156862745"/><path fill="rgb(0,103,88)" stroke="none" paint-order="stroke fill markers" d=" M 318.8410432298881 62.549231517647456 L 314.5910432298881 79.54923151764746 L 317.5910432298881 79.54923151764746 L 317.5910432298881 564.1474611830945 C 317.5910432298881 564.837817120383 318.1506872925996 565.3974611830945 318.8410432298881 565.3974611830945 C 319.5313991671766 565.3974611830945 320.0910432298881 564.837817120383 320.0910432298881 564.1474611830945 L 320.0910432298881 79.54923151764746 L 323.0910432298881 79.54923151764746 L 318.8410432298881 62.549231517647456 Z" fill-opacity="0.6980392156862745"/><path fill="rgb(28,28,31)" stroke="none" paint-order="stroke fill markers" d=" M 218.4482376078945 472.07651045572203 C 218.4482376078945 474.837934204876 216.20966135704847 477.07651045572203 213.4482376078945 477.07651045572203 C 210.68681385874052 477.07651045572203 208.4482376078945 474.837934204876 208.4482376078945 472.07651045572203 C 208.4482376078945 469.3150867065681 210.68681385874052 467.07651045572203 213.4482376078945 467.07651045572203 C 216.20966135704847 467.07651045572203 218.4482376078945 469.3150867065681 218.4482376078945 472.07651045572203 Z" fill-opacity="1"/><text fill="rgb(20,62,146)" stroke="none" font-family="geogebra-sans-serif, sans-serif" font-size="16px" font-style="normal" font-weight="bold" text-decoration="normal" x="372" y="487" text-anchor="start" dominant-baseline="alphabetic" fill-opacity="1">x</text><text fill="rgb(176,0,32)" stroke="none" font-family="geogebra-sans-serif, sans-serif" font-size="16px" font-style="normal" font-weight="bold" text-decoration="normal" x="489" y="451" text-anchor="start" dominant-baseline="alphabetic" fill-opacity="1">y</text><text fill="rgb(0,103,88)" stroke="none" font-family="geogebra-sans-serif, sans-serif" font-size="16px" font-style="normal" font-weight="bold" text-decoration="normal" x="319" y="63" text-anchor="start" dominant-baseline="alphabetic" fill-opacity="1">z</text></g></g></svg>