<svg version="1.1" xmlns="http://www.w3.org/2000/svg" xmlns:xlink="http://www.w3.org/1999/xlink" width="638" height="630"><defs><clipPath id="qTWNeNtanJHe"><path fill="none" stroke="none" d=" M 0 0 L 638 0 L 638 630 L 0 630 L 0 0 Z"/></clipPath></defs><g transform="scale(1,1)" clip-path="url(#qTWNeNtanJHe)"><g><path fill="rgb(110,109,115)" stroke="none" paint-order="stroke fill markers" fill-rule="evenodd" d=" M 562.8243439161233 468.02029752328866 L 251.04802044265097 547.6138914087674 L 74.68458975928601 488.4597984458062 L 386.46091323275834 408.8662045603275 Z" fill-opacity="0.09803921568627451"/><path fill="none" stroke="rgb(28,28,31)" paint-order="fill stroke markers" d=" M 200.66038132247488 474.33172561532297 L 0 427.1628613557832" stroke-opacity="0.6980392156862745" stroke-linecap="round" stroke-linejoin="round" stroke-miterlimit="10" stroke-width="2.5"/><path fill="none" stroke="rgb(0,0,0)" paint-order="fill stroke markers" d=" M 200.66038132247488 474.33172561532297 L 639 577.3714080713773" stroke-opacity="0.6980392156862745" stroke-linejoin="round" stroke-miterlimit="10" stroke-width="2.5" stroke-dasharray="2.5,3"/><path fill="rgb(20,62,146)" stroke="none" paint-order="stroke fill markers" d=" M 240.12382578173532 441.71740809598106 C 239.60135515840628 441.71740809598106 239.114181736671 442.0475670460105 238.93886910442967 442.57024833001844 C 238.71933635543698 443.22476853006515 239.07196335723052 443.9333284438781 239.72648355727725 444.1528611928708 L 399.97236849388304 497.9009649677995 L 399.972368493883 497.9009649677995 L 399.0183704018773 500.74523774663936 L 416.4874134456439 502.1218404979819 L 416.4874134456445 502.1218404979819 L 401.7213649958935 492.6864648732597 L 400.7673669038878 495.53073765209956 L 400.76736690388776 495.53073765209956 L 240.52148196728203 441.78263387717084 C 240.38964305124327 441.73841376041946 240.25561156161555 441.71740809598106 240.12382578173532 441.71740809598106 Z" fill-opacity="0.6980392156862745"/><path fill="rgb(176,0,32)" stroke="none" paint-order="stroke fill markers" d=" M 465.1779737003668 435.2687092895076 L 447.6549914930757 435.3558560792299 L 448.3970635774846 438.26262903588497 L 153.0924535250574 513.6511477763801 C 152.42355086873195 513.8219123995026 152.01973020516562 514.5025972204979 152.1904948282882 515.1714998768234 C 152.3347781257313 515.7366724468692 152.84309255411944 516.1126034492739 153.40075222451975 516.1126034492739 C 153.50310341562695 516.1126034492739 153.60711684245183 516.099939899272 153.71084692873148 516.0734585735926 L 449.01545698115865 440.6849398330975 L 449.7575290655675 443.59171278975253 L 465.1779737003668 435.2687092895076 Z" fill-opacity="0.6980392156862745"/><path fill="rgb(0,103,88)" stroke="none" paint-order="stroke fill markers" d=" M 318.8410432298881 53.705433853649765 L 314.5910432298881 70.70543385364977 L 317.5910432298881 70.70543385364977 L 317.5910432298881 560.5850387093066 C 317.5910432298881 561.275394646595 318.1506872925996 561.8350387093066 318.8410432298881 561.8350387093066 C 319.5313991671766 561.8350387093066 320.0910432298881 561.275394646595 320.0910432298881 560.5850387093066 L 320.0910432298881 70.70543385364977 L 323.0910432298881 70.70543385364977 L 318.8410432298881 53.705433853649765 Z" fill-opacity="0.6980392156862745"/><path fill="rgb(28,28,31)" stroke="none" paint-order="stroke fill markers" d=" M 205.66038132247488 474.33172561532297 C 205.66038132247488 477.0931493644769 203.42180507162885 479.33172561532297 200.66038132247488 479.33172561532297 C 197.8989575733209 479.33172561532297 195.66038132247488 477.0931493644769 195.66038132247488 474.33172561532297 C 195.66038132247488 471.570301866169 197.8989575733209 469.33172561532297 200.66038132247488 469.33172561532297 C 203.42180507162885 469.33172561532297 205.66038132247488 471.570301866169 205.66038132247488 474.33172561532297 Z" fill-opacity="1"/><text fill="rgb(20,62,146)" stroke="none" font-family="geogebra-sans-serif, sans-serif" font-size="16px" font-style="normal" font-weight="bold" text-decoration="normal" x="416" y="502" text-anchor="start" dominant-baseline="alphabetic" fill-opacity="1">x</text><text fill="rgb(176,0,32)" stroke="none" font-family="geogebra-sans-serif, sans-serif" font-size="16px" font-style="normal" font-weight="bold" text-decoration="normal" x="465" y="435" text-anchor="start" dominant-baseline="alphabetic" fill-opacity="1">y</text><text fill="rgb(0,103,88)" stroke="none" font-family="geogebra-sans-serif, sans-serif" font-size="16px" font-style="normal" font-weight="bold" text-decoration="normal" x="319" y="54" text-anchor="start" dominant-baseline="alphabetic" fill-opacity="1">z</text></g></g></svg>