<svg version="1.1" xmlns="http://www.w3.org/2000/svg" xmlns:xlink="http://www.w3.org/1999/xlink" width="638" height="630"><defs><clipPath id="lpnLoEKSxTHp"><path fill="none" stroke="none" d=" M 0 0 L 638 0 L 638 630 L 0 630 L 0 0 Z"/></clipPath></defs><g transform="scale(1,1)" clip-path="url(#lpnLoEKSxTHp)"><g><path fill="rgb(110,109,115)" stroke="none" paint-order="stroke fill markers" fill-rule="evenodd" d=" M 525.2869238977404 469.1248059476714 L 144.42975854367185 483.59636847230394 L 112.36368023760551 472.8410788426746 L 493.220845591674 458.36951631804214 Z" fill-opacity="0.09803921568627451"/><path fill="none" stroke="rgb(28,28,31)" paint-order="fill stroke markers" d=" M 223.67852263623013 470.2723383280413 L 0 371.13929748355577" stroke-opacity="0.6980392156862745" stroke-linecap="round" stroke-linejoin="round" stroke-miterlimit="10" stroke-width="2.5"/><path fill="none" stroke="rgb(0,0,0)" paint-order="fill stroke markers" d=" M 223.67852263623013 470.2723383280413 L 639 654.3404396989231" stroke-opacity="0.6980392156862745" stroke-linejoin="round" stroke-miterlimit="10" stroke-width="2.5" stroke-dasharray="2.5,3"/><path fill="rgb(20,62,146)" stroke="none" paint-order="stroke fill markers" d=" M 304.52869343705134 463.3194574198557 C 304.00622281372233 463.3194574198557 303.519049391987 463.64961636988517 303.3437367597457 464.1722976538931 C 303.12420401075303 464.8268178539398 303.4768310125466 465.5353777677528 304.1313512125933 465.75491051674544 L 320.0798837719004 471.1042109583423 L 320.07988377190037 471.1042109583423 L 319.1258856798947 473.9484837371822 L 336.5949287236606 475.3250864885246 L 336.59492872366184 475.3250864885246 L 321.8288802739109 465.8897108638025 L 320.8748821819052 468.7339836426424 L 320.87488218190515 468.7339836426424 L 304.926349622598 463.3846832010455 C 304.79451070655927 463.34046308429413 304.66047921693155 463.3194574198557 304.52869343705134 463.3194574198557 Z" fill-opacity="0.6980392156862745"/><path fill="rgb(176,0,32)" stroke="none" paint-order="stroke fill markers" d=" M 490.38392513868394 459.568525595122 L 490.4978349830734 462.5663622396628 L 126.62841061473566 476.39243564608813 C 125.93855250587578 476.4186484252181 125.40056166887604 476.9991385742825 125.426774448006 477.68899668314236 C 125.45237304858347 478.36269107076424 126.00657931778643 478.8915514657445 126.6750301694676 478.8915514657445 C 126.69106808432394 478.8915514657445 126.70717176382223 478.8912470284245 126.72333548506023 478.890632849872 L 126.72333548506026 478.890632849872 L 490.5927598533965 465.06455944344674 L 490.592759853398 465.06455944344674 L 490.70666969778745 468.06239608798745 L 507.53303840396643 463.1699717233476 L 490.38392513868394 459.568525595122 Z" fill-opacity="0.6980392156862745"/><path fill="rgb(0,103,88)" stroke="none" paint-order="stroke fill markers" d=" M 318.8410432298881 69.62426964884531 L 314.5910432298881 86.62426964884531 L 317.5910432298881 86.62426964884531 L 317.5910432298881 566.9973991621249 C 317.5910432298881 567.6877550994134 318.1506872925996 568.2473991621249 318.8410432298881 568.2473991621249 C 319.5313991671766 568.2473991621249 320.0910432298881 567.6877550994134 320.0910432298881 566.9973991621249 L 320.0910432298881 86.62426964884531 L 323.0910432298881 86.62426964884531 L 318.8410432298881 69.62426964884531 Z" fill-opacity="0.6980392156862745"/><path fill="rgb(28,28,31)" stroke="none" paint-order="stroke fill markers" d=" M 228.67852263623013 470.2723383280413 C 228.67852263623013 473.03376207719526 226.4399463853841 475.2723383280413 223.67852263623013 475.2723383280413 C 220.91709888707615 475.2723383280413 218.67852263623013 473.03376207719526 218.67852263623013 470.2723383280413 C 218.67852263623013 467.51091457888737 220.91709888707615 465.2723383280413 223.67852263623013 465.2723383280413 C 226.4399463853841 465.2723383280413 228.67852263623013 467.51091457888737 228.67852263623013 470.2723383280413 Z" fill-opacity="1"/><text fill="rgb(20,62,146)" stroke="none" font-family="geogebra-sans-serif, sans-serif" font-size="16px" font-style="normal" font-weight="bold" text-decoration="normal" x="337" y="475" text-anchor="start" dominant-baseline="alphabetic" fill-opacity="1">x</text><text fill="rgb(176,0,32)" stroke="none" font-family="geogebra-sans-serif, sans-serif" font-size="16px" font-style="normal" font-weight="bold" text-decoration="normal" x="508" y="463" text-anchor="start" dominant-baseline="alphabetic" fill-opacity="1">y</text><text fill="rgb(0,103,88)" stroke="none" font-family="geogebra-sans-serif, sans-serif" font-size="16px" font-style="normal" font-weight="bold" text-decoration="normal" x="319" y="70" text-anchor="start" dominant-baseline="alphabetic" fill-opacity="1">z</text></g></g></svg>