<svg version="1.1" xmlns="http://www.w3.org/2000/svg" xmlns:xlink="http://www.w3.org/1999/xlink" width="562" height="630"><defs><clipPath id="lmPqgzZtFrOA"><path fill="none" stroke="none" d=" M 0 0 L 562 0 L 562 630 L 0 630 L 0 0 Z"/></clipPath></defs><g transform="scale(1,1)" clip-path="url(#lmPqgzZtFrOA)"><g><path fill="rgb(110,109,115)" stroke="none" paint-order="stroke fill markers" fill-rule="evenodd" d=" M 480.0526303128619 476.34043934007764 L 329.91612433176914 424.80104176447867 L 91.63977901849248 494.26718632289464 L 241.77628499958524 545.8065838984936 Z" fill-opacity="0.09803921568627451"/><path fill="none" stroke="rgb(0,0,0)" paint-order="fill stroke markers" d=" M 237.36932269306539 636 L 368.82175398270624 -5" stroke-opacity="0.6980392156862745" stroke-linecap="round" stroke-linejoin="round" stroke-miterlimit="10" stroke-width="2.5"/><path fill="rgb(176,0,32)" stroke="none" paint-order="stroke fill markers" d=" M 227.5841912677239 448.1999785704751 C 227.065028558036 448.1999785704751 226.57999746106978 448.5259459727286 226.40199930099124 449.04446235208786 C 226.17785093781978 449.69741627958734 226.5254665302581 450.4084481732111 227.17842045775757 450.6325965363826 L 361.2359501196348 496.6523455247882 L 360.2618944866007 499.48981193406155 L 377.72078295261457 500.98971644145104 L 363.0217187801974 491.45032377445375 L 362.04766314716323 494.2877901837271 L 227.99013348528598 448.26804119532153 C 227.85569593714575 448.2218909922286 227.7187963921802 448.1999785704751 227.5841912677239 448.1999785704751 Z" fill-opacity="0.6980392156862745"/><path fill="rgb(0,103,88)" stroke="none" paint-order="stroke fill markers" d=" M 388.17805202592456 444.96863212014784 L 370.6679702941243 445.6465242543958 L 371.50762359248245 448.5266253530651 L 149.5518511716653 513.2347345541183 C 148.8890862071795 513.4279544340468 148.50844470827386 514.1218672550606 148.70166458820233 514.7846322195464 C 148.86083014689427 515.330587200436 149.35975085591042 515.6851016943666 149.90114135740808 515.6851016943667 C 150.0169747462639 515.6851016943667 150.1347522700341 515.6688731242459 150.25156225363042 515.6348188030094 L 372.2073346744474 450.92670960195625 L 372.20733467444757 450.92670960195625 L 373.0469879728057 453.80681070062553 L 388.17805202592456 444.96863212014784 Z" fill-opacity="0.6980392156862745"/><path fill="rgb(21,101,192)" stroke="none" paint-order="stroke fill markers" d=" M 285.8462046656772 101.37264828282144 L 281.5962046656772 118.37264828282144 L 284.5962046656772 118.37264828282144 L 284.5962046656772 535.3493148251837 C 284.5962046656772 536.0396707624722 285.1558487283887 536.5993148251837 285.8462046656772 536.5993148251837 C 286.53656060296566 536.5993148251837 287.0962046656772 536.0396707624722 287.0962046656772 535.3493148251837 L 287.0962046656772 118.37264828282144 L 290.0962046656772 118.37264828282144 L 285.8462046656772 101.37264828282144 Z" fill-opacity="0.6980392156862745"/><text fill="rgb(21,101,192)" stroke="none" font-family="geogebra-sans-serif, sans-serif" font-size="16px" font-style="normal" font-weight="bold" text-decoration="normal" x="286" y="101" text-anchor="start" dominant-baseline="alphabetic" fill-opacity="1">z</text><text fill="rgb(176,0,32)" stroke="none" font-family="geogebra-sans-serif, sans-serif" font-size="16px" font-style="normal" font-weight="bold" text-decoration="normal" x="378" y="501" text-anchor="start" dominant-baseline="alphabetic" fill-opacity="1">x</text><text fill="rgb(0,103,88)" stroke="none" font-family="geogebra-sans-serif, sans-serif" font-size="16px" font-style="normal" font-weight="bold" text-decoration="normal" x="388" y="445" text-anchor="start" dominant-baseline="alphabetic" fill-opacity="1">y</text></g></g></svg>