<svg version="1.1" xmlns="http://www.w3.org/2000/svg" xmlns:xlink="http://www.w3.org/1999/xlink" width="638" height="630"><defs><clipPath id="gyvTDwAwBiFX"><path fill="none" stroke="none" d=" M 0 0 L 638 0 L 638 630 L 0 630 L 0 0 Z"/></clipPath></defs><g transform="scale(1,1)" clip-path="url(#gyvTDwAwBiFX)"><g><path fill="rgb(110,109,115)" stroke="none" paint-order="stroke fill markers" fill-rule="evenodd" d=" M 583.6784661485583 467.40668173196485 L 310.280388164306 583.1791819290248 L 53.75176171577516 497.1368648919904 L 327.1498397000274 381.3643646949305 Z" fill-opacity="0.09803921568627451"/><path fill="none" stroke="rgb(28,28,31)" paint-order="fill stroke markers" d=" M 187.87252503705528 476.5869407749239 L 0 454.485026780841" stroke-opacity="0.6980392156862745" stroke-linecap="round" stroke-linejoin="round" stroke-miterlimit="10" stroke-width="2.5"/><path fill="none" stroke="rgb(0,0,0)" paint-order="fill stroke markers" d=" M 187.87252503705528 476.5869407749239 L 639 529.6589940197089" stroke-opacity="0.6980392156862745" stroke-linejoin="round" stroke-miterlimit="10" stroke-width="2.5" stroke-dasharray="2.5,3"/><path fill="rgb(20,62,146)" stroke="none" paint-order="stroke fill markers" d=" M 204.3433437510042 429.71626958271736 C 203.82087312767516 429.71626958271736 203.3336997059399 430.04642853274675 203.15838707369858 430.5691098167547 C 202.9388543247059 431.2236300168014 203.29148132649942 431.9321899306144 203.94600152654615 432.1517226796071 L 444.3570822283178 512.788050528609 L 443.40308413631203 515.6323233074489 L 460.87212718007936 517.0089260587915 L 446.10607873032825 507.57355043406926 L 445.15208063832256 510.4178232129091 L 445.1520806383225 510.4178232129091 L 204.74099993655093 429.78149536390714 C 204.60916102051218 429.73727524715576 204.47512953088446 429.71626958271736 204.3433437510042 429.71626958271736 Z" fill-opacity="0.6980392156862745"/><path fill="rgb(176,0,32)" stroke="none" paint-order="stroke fill markers" d=" M 441.64738219836664 419.76800793737436 L 424.3358447422564 422.48336627573053 L 425.50565667898456 425.2458904896857 L 425.5056566789845 425.2458904896857 L 167.76188257381136 534.3894563786197 C 167.12617424280901 534.6586519172968 166.82905691962307 535.3922214437354 167.09825245830015 536.0279297747377 C 167.30007730854237 536.5045414575791 167.76292676302134 536.7908311453418 168.24986083412284 536.7908311453418 C 168.4124031749353 536.7908311453418 168.5776292062572 536.7589305786837 168.73672585441813 536.6915598902489 L 426.4804999595912 427.54799400131503 L 426.4804999595913 427.54799400131503 L 427.6503118963194 430.3105182152701 L 441.6473821983669 419.76800793737436 Z" fill-opacity="0.6980392156862745"/><path fill="rgb(0,103,88)" stroke="none" paint-order="stroke fill markers" d=" M 318.8410432298881 44.861636189652245 L 314.5910432298881 61.861636189652245 L 317.5910432298881 61.861636189652245 L 317.5910432298881 557.0226162355186 C 317.5910432298881 557.7129721728071 318.1506872925996 558.2726162355186 318.8410432298881 558.2726162355186 C 319.5313991671766 558.2726162355186 320.0910432298881 557.7129721728071 320.0910432298881 557.0226162355186 L 320.0910432298881 61.861636189652245 L 323.0910432298881 61.861636189652245 L 318.8410432298881 44.861636189652245 Z" fill-opacity="0.6980392156862745"/><path fill="rgb(28,28,31)" stroke="none" paint-order="stroke fill markers" d=" M 192.87252503705528 476.5869407749239 C 192.87252503705528 479.34836452407785 190.63394878620926 481.5869407749239 187.87252503705528 481.5869407749239 C 185.1111012879013 481.5869407749239 182.87252503705528 479.34836452407785 182.87252503705528 476.5869407749239 C 182.87252503705528 473.82551702576995 185.1111012879013 471.5869407749239 187.87252503705528 471.5869407749239 C 190.63394878620926 471.5869407749239 192.87252503705528 473.82551702576995 192.87252503705528 476.5869407749239 Z" fill-opacity="1"/><text fill="rgb(20,62,146)" stroke="none" font-family="geogebra-sans-serif, sans-serif" font-size="16px" font-style="normal" font-weight="bold" text-decoration="normal" x="461" y="517" text-anchor="start" dominant-baseline="alphabetic" fill-opacity="1">x</text><text fill="rgb(176,0,32)" stroke="none" font-family="geogebra-sans-serif, sans-serif" font-size="16px" font-style="normal" font-weight="bold" text-decoration="normal" x="442" y="420" text-anchor="start" dominant-baseline="alphabetic" fill-opacity="1">y</text><text fill="rgb(0,103,88)" stroke="none" font-family="geogebra-sans-serif, sans-serif" font-size="16px" font-style="normal" font-weight="bold" text-decoration="normal" x="319" y="45" text-anchor="start" dominant-baseline="alphabetic" fill-opacity="1">z</text></g></g></svg>