<svg version="1.1" xmlns="http://www.w3.org/2000/svg" xmlns:xlink="http://www.w3.org/1999/xlink" width="638" height="630"><defs><clipPath id="pkERdLOyPcdy"><path fill="none" stroke="none" d=" M 0 0 L 638 0 L 638 630 L 0 630 L 0 0 Z"/></clipPath></defs><g transform="scale(1,1)" clip-path="url(#pkERdLOyPcdy)"><g><path fill="rgb(110,109,115)" stroke="none" paint-order="stroke fill markers" fill-rule="evenodd" d=" M 596.1909394880192 467.0385122571706 L 345.819808797299 604.5183562411794 L 41.1920648896687 502.34310475970096 L 291.5631955803889 364.86326077569225 Z" fill-opacity="0.09803921568627451"/><path fill="none" stroke="rgb(28,28,31)" paint-order="fill stroke markers" d=" M 180.19981126580353 477.94006987068445 L 0 469.5500550523078" stroke-opacity="0.6980392156862745" stroke-linecap="round" stroke-linejoin="round" stroke-miterlimit="10" stroke-width="2.5"/><path fill="none" stroke="rgb(0,0,0)" paint-order="fill stroke markers" d=" M 180.19981126580353 477.94006987068445 L 639 499.30158160099336" stroke-opacity="0.6980392156862745" stroke-linejoin="round" stroke-miterlimit="10" stroke-width="2.5" stroke-dasharray="2.5,3"/><path fill="rgb(20,62,146)" stroke="none" paint-order="stroke fill markers" d=" M 182.87505453256557 422.5155864747591 C 182.35258390923653 422.5155864747591 181.86541048750124 422.84574542478856 181.69009785525992 423.3684267087965 C 181.47056510626723 424.0229469088432 181.82319210806077 424.7315068226562 182.4777123081075 424.95103957164883 L 470.98791046897867 521.7203018650947 L 470.0339123769729 524.5645746439346 L 487.50295542074025 525.9411773952772 L 472.73690697098914 516.505801770555 L 471.78290887898345 519.3500745493948 L 471.7829088789831 519.3500745493948 L 183.27271071811228 422.5808122559489 C 183.14087180207352 422.5365921391975 183.0068403124458 422.5155864747591 182.87505453256557 422.5155864747591 Z" fill-opacity="0.6980392156862745"/><path fill="rgb(176,0,32)" stroke="none" paint-order="stroke fill markers" d=" M 427.52902729716686 410.4675871260944 L 410.5821317050777 414.92462984417796 L 412.0260791015244 417.5542716289644 L 176.55625185792744 546.8517470331087 C 175.95112225157106 547.1840262525318 175.7299333100295 547.9439462522661 176.06221252945258 548.5490758586225 C 176.28968569372807 548.9633381365755 176.71757518012728 549.1976644039828 177.1590170175509 549.1976644039829 C 177.36240706448157 549.1976644039829 177.56867402656306 549.1479212422449 177.75954135496633 549.0431151870973 L 413.22936859856327 419.7456397829531 L 414.67331599500994 422.37528156773953 L 427.52902729716703 410.4675871260944 Z" fill-opacity="0.6980392156862745"/><path fill="rgb(0,103,88)" stroke="none" paint-order="stroke fill markers" d=" M 318.8410432298881 39.55535759125371 L 314.5910432298881 56.55535759125371 L 317.5910432298881 56.55535759125371 L 317.5910432298881 554.8851627512458 C 317.5910432298881 555.5755186885343 318.1506872925996 556.1351627512458 318.8410432298881 556.1351627512458 C 319.5313991671766 556.1351627512458 320.0910432298881 555.5755186885343 320.0910432298881 554.8851627512458 L 320.0910432298881 56.55535759125371 L 323.0910432298881 56.55535759125371 L 318.8410432298881 39.55535759125371 Z" fill-opacity="0.6980392156862745"/><path fill="rgb(28,28,31)" stroke="none" paint-order="stroke fill markers" d=" M 185.19981126580353 477.94006987068445 C 185.19981126580353 480.7014936198384 182.9612350149575 482.94006987068445 180.19981126580353 482.94006987068445 C 177.43838751664956 482.94006987068445 175.19981126580353 480.7014936198384 175.19981126580353 477.94006987068445 C 175.19981126580353 475.1786461215305 177.43838751664956 472.94006987068445 180.19981126580353 472.94006987068445 C 182.9612350149575 472.94006987068445 185.19981126580353 475.1786461215305 185.19981126580353 477.94006987068445 Z" fill-opacity="1"/><text fill="rgb(20,62,146)" stroke="none" font-family="geogebra-sans-serif, sans-serif" font-size="16px" font-style="normal" font-weight="bold" text-decoration="normal" x="488" y="526" text-anchor="start" dominant-baseline="alphabetic" fill-opacity="1">x</text><text fill="rgb(176,0,32)" stroke="none" font-family="geogebra-sans-serif, sans-serif" font-size="16px" font-style="normal" font-weight="bold" text-decoration="normal" x="428" y="410" text-anchor="start" dominant-baseline="alphabetic" fill-opacity="1">y</text><text fill="rgb(0,103,88)" stroke="none" font-family="geogebra-sans-serif, sans-serif" font-size="16px" font-style="normal" font-weight="bold" text-decoration="normal" x="319" y="40" text-anchor="start" dominant-baseline="alphabetic" fill-opacity="1">z</text></g></g></svg>