<svg version="1.1" xmlns="http://www.w3.org/2000/svg" xmlns:xlink="http://www.w3.org/1999/xlink" width="638" height="630"><defs><clipPath id="TeTdAdUrOZDT"><path fill="none" stroke="none" d=" M 0 0 L 638 0 L 638 630 L 0 630 L 0 0 Z"/></clipPath></defs><g transform="scale(1,1)" clip-path="url(#TeTdAdUrOZDT)"><g><path fill="rgb(110,109,115)" stroke="none" paint-order="stroke fill markers" fill-rule="evenodd" d=" M 546.1410461301753 468.51119015634765 L 203.6621262653269 519.1616589925613 L 91.43085219409465 481.5181452888588 L 433.9097720589431 430.8676764526451 Z" fill-opacity="0.09803921568627451"/><path fill="none" stroke="rgb(28,28,31)" paint-order="fill stroke markers" d=" M 210.89066635081053 472.5275534876422 L 0 403.33903593619095" stroke-opacity="0.6980392156862745" stroke-linecap="round" stroke-linejoin="round" stroke-miterlimit="10" stroke-width="2.5"/><path fill="none" stroke="rgb(0,0,0)" paint-order="fill stroke markers" d=" M 210.89066635081053 472.5275534876422 L 639 612.9806643704851" stroke-opacity="0.6980392156862745" stroke-linejoin="round" stroke-miterlimit="10" stroke-width="2.5" stroke-dasharray="2.5,3"/><path fill="rgb(20,62,146)" stroke="none" paint-order="stroke fill markers" d=" M 268.7482114063202 451.318318906592 C 268.2257407829912 451.318318906592 267.73856736125583 451.64847785662147 267.56325472901455 452.1711591406294 C 267.3437219800219 452.8256793406761 267.69634898181545 453.5342392544891 268.35086918186215 453.75377200348174 L 364.46459750633517 485.99129651915183 L 364.4645975063351 485.99129651915183 L 363.5105994143294 488.8355692979917 L 380.97964245809675 490.2121720493343 L 366.21359400834564 480.77679642461203 L 365.25959591633995 483.6210692034519 L 365.2595959163399 483.6210692034519 L 269.1458675918669 451.3835446877818 C 269.0140286758281 451.33932457103043 268.8799971862004 451.318318906592 268.7482114063202 451.318318906592 Z" fill-opacity="0.6980392156862745"/><path fill="rgb(176,0,32)" stroke="none" paint-order="stroke fill markers" d=" M 466.563583272868 445.9521404035939 L 467.0024902801462 448.91986017455645 L 141.34064911741896 497.0831893028603 C 140.6577214627215 497.184189988991 140.18597644641983 497.8196894724298 140.2869771325505 498.5026171271273 C 140.3788096666021 499.12355327625056 140.912508847463 499.56990612460265 141.52196713581873 499.56990612460265 C 141.58281274278363 499.56990612460265 141.64441345124325 499.56545726407484 141.70640495681747 499.55628911199574 L 467.3682461195447 451.39295998369187 L 467.8071531268229 454.3606797546544 L 484.00244690196666 447.6692703712143 L 466.563583272868 445.9521404035939 Z" fill-opacity="0.6980392156862745"/><path fill="rgb(0,103,88)" stroke="none" paint-order="stroke fill markers" d=" M 318.8410432298881 60.78047198484791 L 314.5910432298881 77.7804719848479 L 317.5910432298881 77.7804719848479 L 317.5910432298881 563.434976688337 C 317.5910432298881 564.1253326256254 318.1506872925996 564.684976688337 318.8410432298881 564.684976688337 C 319.5313991671766 564.684976688337 320.0910432298881 564.1253326256254 320.0910432298881 563.434976688337 L 320.0910432298881 77.7804719848479 L 323.0910432298881 77.7804719848479 L 318.8410432298881 60.78047198484791 Z" fill-opacity="0.6980392156862745"/><path fill="rgb(28,28,31)" stroke="none" paint-order="stroke fill markers" d=" M 215.89066635081053 472.5275534876422 C 215.89066635081053 475.28897723679614 213.6520900999645 477.5275534876422 210.89066635081053 477.5275534876422 C 208.12924260165656 477.5275534876422 205.89066635081053 475.28897723679614 205.89066635081053 472.5275534876422 C 205.89066635081053 469.76612973848825 208.12924260165656 467.5275534876422 210.89066635081053 467.5275534876422 C 213.6520900999645 467.5275534876422 215.89066635081053 469.76612973848825 215.89066635081053 472.5275534876422 Z" fill-opacity="1"/><text fill="rgb(20,62,146)" stroke="none" font-family="geogebra-sans-serif, sans-serif" font-size="16px" font-style="normal" font-weight="bold" text-decoration="normal" x="381" y="490" text-anchor="start" dominant-baseline="alphabetic" fill-opacity="1">x</text><text fill="rgb(176,0,32)" stroke="none" font-family="geogebra-sans-serif, sans-serif" font-size="16px" font-style="normal" font-weight="bold" text-decoration="normal" x="484" y="448" text-anchor="start" dominant-baseline="alphabetic" fill-opacity="1">y</text><text fill="rgb(0,103,88)" stroke="none" font-family="geogebra-sans-serif, sans-serif" font-size="16px" font-style="normal" font-weight="bold" text-decoration="normal" x="319" y="61" text-anchor="start" dominant-baseline="alphabetic" fill-opacity="1">z</text></g></g></svg>