<svg version="1.1" xmlns="http://www.w3.org/2000/svg" xmlns:xlink="http://www.w3.org/1999/xlink" width="562" height="630"><defs><clipPath id="upSSbtfPXILo"><path fill="none" stroke="none" d=" M 0 0 L 562 0 L 562 630 L 0 630 L 0 0 Z"/></clipPath></defs><g transform="scale(1,1)" clip-path="url(#upSSbtfPXILo)"><g><path fill="rgb(110,109,115)" stroke="none" paint-order="stroke fill markers" fill-rule="evenodd" d=" M 457.6441965843406 472.97917428079944 L 382.5759435937942 447.20947549299996 L 114.04821274701379 481.94254777220794 L 189.1164657375602 507.71224656000743 Z" fill-opacity="0.09803921568627451"/><path fill="none" stroke="rgb(0,0,0)" paint-order="fill stroke markers" d=" M -5 470.6447785578391 L 568 232.09971418015692" stroke-opacity="0.6980392156862745" stroke-linecap="round" stroke-linejoin="round" stroke-miterlimit="10" stroke-width="2.5"/><path fill="rgb(176,0,32)" stroke="none" paint-order="stroke fill markers" d=" M 256.7151551148016 458.28377374830967 C 256.19599240511366 458.28377374830967 255.71096130814746 458.6097411505632 255.53296314806892 459.12825752992245 C 255.30881478489746 459.78121145742193 255.65643037733577 460.4922433510457 256.30938430483525 460.7163917142172 L 315.2986609761661 480.9664419148233 L 314.32460534313196 483.80390832409665 L 331.78349380914585 485.30381283148614 L 317.08442963672866 475.76442016448885 L 316.1103740036945 478.60188657376216 L 316.11037400369435 478.60188657376216 L 257.12109733236366 458.3518363731561 C 256.98665978422343 458.3056861700632 256.8497602392579 458.28377374830967 256.7151551148016 458.28377374830967 Z" fill-opacity="0.6980392156862745"/><path fill="rgb(0,103,88)" stroke="none" paint-order="stroke fill markers" d=" M 394.3021763371105 455.2591037146187 L 394.68700941443495 458.2343185812455 L 394.6870094144341 458.2343185812455 L 143.01882947853966 490.78667008894803 L 143.01882947853963 490.78667008894803 C 142.33417706257802 490.87522735554666 141.85094646639834 491.5020376496328 141.939503732997 492.1866900655944 C 142.0210220193168 492.81692283832484 142.55862779292502 493.2764812869401 143.17760234919854 493.27648128694017 C 143.23104986252858 493.27648128694017 143.28510406641226 493.2730547914159 143.33952370964337 493.26601581113704 L 143.3395237096434 493.26601581113704 L 395.00770364553784 460.7136643034345 L 395.0077036455387 460.7136643034345 L 395.39253672286316 463.6888791700611 L 411.7069074408719 457.29327067083454 L 394.302176337111 455.2591037146187 Z" fill-opacity="0.6980392156862745"/><path fill="rgb(21,101,192)" stroke="none" paint-order="stroke fill markers" d=" M 285.8462046656772 136.1057205620295 L 281.5962046656772 153.1057205620295 L 284.5962046656772 153.1057205620295 L 284.5962046656772 539.8310015708879 C 284.5962046656772 540.5213575081764 285.1558487283887 541.0810015708879 285.8462046656772 541.0810015708879 C 286.53656060296566 541.0810015708879 287.0962046656772 540.5213575081764 287.0962046656772 539.8310015708879 L 287.0962046656772 153.1057205620295 L 290.0962046656772 153.1057205620295 L 285.8462046656772 136.1057205620295 Z" fill-opacity="0.6980392156862745"/><text fill="rgb(21,101,192)" stroke="none" font-family="geogebra-sans-serif, sans-serif" font-size="16px" font-style="normal" font-weight="bold" text-decoration="normal" x="286" y="136" text-anchor="start" dominant-baseline="alphabetic" fill-opacity="1">z</text><text fill="rgb(176,0,32)" stroke="none" font-family="geogebra-sans-serif, sans-serif" font-size="16px" font-style="normal" font-weight="bold" text-decoration="normal" x="332" y="485" text-anchor="start" dominant-baseline="alphabetic" fill-opacity="1">x</text><text fill="rgb(0,103,88)" stroke="none" font-family="geogebra-sans-serif, sans-serif" font-size="16px" font-style="normal" font-weight="bold" text-decoration="normal" x="412" y="457" text-anchor="start" dominant-baseline="alphabetic" fill-opacity="1">y</text></g></g></svg>