<svg version="1.1" xmlns="http://www.w3.org/2000/svg" xmlns:xlink="http://www.w3.org/1999/xlink" width="638" height="630"><defs><clipPath id="ORCSqCPcTFQR"><path fill="none" stroke="none" d=" M 0 0 L 638 0 L 638 630 L 0 630 L 0 0 Z"/></clipPath></defs><g transform="scale(1,1)" clip-path="url(#ORCSqCPcTFQR)"><g><path fill="rgb(110,109,115)" stroke="none" paint-order="stroke fill markers" fill-rule="evenodd" d=" M 571.1659928090972 467.77485120675914 L 274.740967531313 561.8400076168704 L 66.31145854188168 491.9306250242799 L 362.736483819666 397.86546861416866 Z" fill-opacity="0.09803921568627451"/><path fill="none" stroke="rgb(28,28,31)" paint-order="fill stroke markers" d=" M 195.54523880830703 475.23381167916335 L 0 438.42158791259396" stroke-opacity="0.6980392156862745" stroke-linecap="round" stroke-linejoin="round" stroke-miterlimit="10" stroke-width="2.5"/><path fill="none" stroke="rgb(0,0,0)" paint-order="fill stroke markers" d=" M 195.54523880830703 475.23381167916335 L 639 558.716058543492" stroke-opacity="0.6980392156862745" stroke-linejoin="round" stroke-miterlimit="10" stroke-width="2.5" stroke-dasharray="2.5,3"/><path fill="rgb(20,62,146)" stroke="none" paint-order="stroke fill markers" d=" M 225.81163296944285 436.91695269067554 C 225.2891623461138 436.91695269067554 224.80198892437855 437.24711164070493 224.62667629213723 437.7697929247129 C 224.40714354314454 438.4243131247596 224.75977054493808 439.1328730385726 225.4142907449848 439.35240578756526 L 417.7262539876567 503.85579919212324 L 417.7262539876569 503.85579919212324 L 416.77225589565114 506.70007197096317 L 434.24129893941847 508.07667472230577 L 419.47525048966736 498.6412990975835 L 418.52125239766167 501.48557187642336 L 418.5212523976616 501.48557187642336 L 226.2092891549896 436.9821784718653 C 226.07745023895083 436.93795835511395 225.94341874932311 436.91695269067554 225.81163296944285 436.91695269067554 Z" fill-opacity="0.6980392156862745"/><path fill="rgb(176,0,32)" stroke="none" paint-order="stroke fill markers" d=" M 455.76573709956597 429.06842874865436 L 438.2765359755678 430.1594576411734 L 439.18394012895504 433.0189362129441 L 439.1839401289549 433.0189362129441 L 158.96262675787125 521.9421357538611 C 158.30460742134755 522.1509463687981 157.9404518019411 522.8536508861532 158.14926241687812 523.5116702226769 C 158.3181662042458 524.0439322349963 158.81022232459864 524.3839206733735 159.34038807369865 524.3839206733735 C 159.46565011466427 524.3839206733735 159.59303956148958 524.3649413912393 159.7187968856939 524.32503456367 L 439.94011025677753 435.401835022753 L 439.94011025677776 435.401835022753 L 440.84751441016493 438.2613135945236 L 455.76573709956676 429.06842874865436 Z" fill-opacity="0.6980392156862745"/><path fill="rgb(0,103,88)" stroke="none" paint-order="stroke fill markers" d=" M 318.8410432298881 50.16791478805078 L 314.5910432298881 67.16791478805078 L 317.5910432298881 67.16791478805078 L 317.5910432298881 559.1600697197914 C 317.5910432298881 559.8504256570799 318.1506872925996 560.4100697197914 318.8410432298881 560.4100697197914 C 319.5313991671766 560.4100697197914 320.0910432298881 559.8504256570799 320.0910432298881 559.1600697197914 L 320.0910432298881 67.16791478805078 L 323.0910432298881 67.16791478805078 L 318.8410432298881 50.16791478805078 Z" fill-opacity="0.6980392156862745"/><path fill="rgb(28,28,31)" stroke="none" paint-order="stroke fill markers" d=" M 200.54523880830703 475.23381167916335 C 200.54523880830703 477.9952354283173 198.306662557461 480.23381167916335 195.54523880830703 480.23381167916335 C 192.78381505915306 480.23381167916335 190.54523880830703 477.9952354283173 190.54523880830703 475.23381167916335 C 190.54523880830703 472.4723879300094 192.78381505915306 470.23381167916335 195.54523880830703 470.23381167916335 C 198.306662557461 470.23381167916335 200.54523880830703 472.4723879300094 200.54523880830703 475.23381167916335 Z" fill-opacity="1"/><text fill="rgb(20,62,146)" stroke="none" font-family="geogebra-sans-serif, sans-serif" font-size="16px" font-style="normal" font-weight="bold" text-decoration="normal" x="434" y="508" text-anchor="start" dominant-baseline="alphabetic" fill-opacity="1">x</text><text fill="rgb(176,0,32)" stroke="none" font-family="geogebra-sans-serif, sans-serif" font-size="16px" font-style="normal" font-weight="bold" text-decoration="normal" x="456" y="429" text-anchor="start" dominant-baseline="alphabetic" fill-opacity="1">y</text><text fill="rgb(0,103,88)" stroke="none" font-family="geogebra-sans-serif, sans-serif" font-size="16px" font-style="normal" font-weight="bold" text-decoration="normal" x="319" y="50" text-anchor="start" dominant-baseline="alphabetic" fill-opacity="1">z</text></g></g></svg>