<svg version="1.1" xmlns="http://www.w3.org/2000/svg" xmlns:xlink="http://www.w3.org/1999/xlink" width="562" height="630"><defs><clipPath id="ScAFTDCtkHCB"><path fill="none" stroke="none" d=" M 0 0 L 562 0 L 562 630 L 0 630 L 0 0 Z"/></clipPath></defs><g transform="scale(1,1)" clip-path="url(#ScAFTDCtkHCB)"><g><path fill="rgb(110,109,115)" stroke="none" paint-order="stroke fill markers" fill-rule="evenodd" d=" M 502.4610640413832 479.70170439935583 L 277.25630506974403 402.3926080359574 L 69.23134528997113 506.59182487358134 L 294.43610426161035 583.9009212369798 Z" fill-opacity="0.09803921568627451"/><path fill="none" stroke="rgb(0,0,0)" paint-order="fill stroke markers" d=" M 398.0987574376803 636 L 166.24769360789276 -5" stroke-opacity="0.6980392156862745" stroke-linecap="round" stroke-linejoin="round" stroke-miterlimit="10" stroke-width="2.5"/><path fill="rgb(176,0,32)" stroke="none" paint-order="stroke fill markers" d=" M 198.4532274206462 438.11618339264055 C 197.9340647109583 438.11618339264055 197.44903361399207 438.4421507948941 197.27103545391353 438.96066717425333 C 197.04688709074208 439.6136211017528 197.39450268318038 440.3246529953766 198.04745661067986 440.5488013585481 L 407.17323926310354 512.3382491347531 L 406.1991836300694 515.1757155440265 L 423.6580720960833 516.675620051416 L 408.9590079236661 507.1362273844187 L 407.98495229063195 509.97369379369206 L 198.85916963820827 438.184246017487 C 198.72473209006804 438.1380958143941 198.5878325451025 438.11618339264055 198.4532274206462 438.11618339264055 Z" fill-opacity="0.6980392156862745"/><path fill="rgb(0,103,88)" stroke="none" paint-order="stroke fill markers" d=" M 364.6491966109772 432.64399356946114 L 347.5460098598711 436.45758806242816 L 348.88957656117105 439.1399058137689 L 156.06441737232927 535.7255780106931 C 155.44716604388515 536.0347577604882 155.1974246850171 536.7857785375159 155.5066044348123 537.40302986596 C 155.7257832162354 537.840601841776 156.16700698487907 538.0934835297546 156.62521095470711 538.0934835297546 C 156.81336238400465 538.0934835297546 157.00437693745116 538.050843771849 157.18405629007924 537.960842803477 L 350.009215478921 441.37517060655296 L 351.35278218022097 444.0574883578937 L 364.6491966109772 432.64399356946114 Z" fill-opacity="0.6980392156862745"/><path fill="rgb(21,101,192)" stroke="none" paint-order="stroke fill markers" d=" M 285.8462046656772 66.63957600361346 L 281.5962046656772 83.63957600361346 L 284.5962046656772 83.63957600361346 L 284.5962046656772 530.8676280794795 C 284.5962046656772 531.5579840167679 285.1558487283887 532.1176280794795 285.8462046656772 532.1176280794795 C 286.53656060296566 532.1176280794795 287.0962046656772 531.5579840167679 287.0962046656772 530.8676280794795 L 287.0962046656772 83.63957600361346 L 290.0962046656772 83.63957600361346 L 285.8462046656772 66.63957600361346 Z" fill-opacity="0.6980392156862745"/><text fill="rgb(21,101,192)" stroke="none" font-family="geogebra-sans-serif, sans-serif" font-size="16px" font-style="normal" font-weight="bold" text-decoration="normal" x="286" y="67" text-anchor="start" dominant-baseline="alphabetic" fill-opacity="1">z</text><text fill="rgb(176,0,32)" stroke="none" font-family="geogebra-sans-serif, sans-serif" font-size="16px" font-style="normal" font-weight="bold" text-decoration="normal" x="424" y="517" text-anchor="start" dominant-baseline="alphabetic" fill-opacity="1">x</text><text fill="rgb(0,103,88)" stroke="none" font-family="geogebra-sans-serif, sans-serif" font-size="16px" font-style="normal" font-weight="bold" text-decoration="normal" x="365" y="433" text-anchor="start" dominant-baseline="alphabetic" fill-opacity="1">y</text></g></g></svg>