<svg version="1.1" xmlns="http://www.w3.org/2000/svg" xmlns:xlink="http://www.w3.org/1999/xlink" width="562" height="630"><defs><clipPath id="stKMtbeaXaSg"><path fill="none" stroke="none" d=" M 0 0 L 562 0 L 562 630 L 0 630 L 0 0 Z"/></clipPath></defs><g transform="scale(1,1)" clip-path="url(#stKMtbeaXaSg)"><g><path fill="rgb(110,109,115)" stroke="none" paint-order="stroke fill markers" fill-rule="evenodd" d=" M 468.84841344860126 474.6598068104385 L 356.24603396278167 436.00525862873934 L 102.84399588275315 488.1048670475513 L 215.44637536857272 526.7594152292505 Z" fill-opacity="0.09803921568627451"/><path fill="none" stroke="rgb(0,0,0)" paint-order="fill stroke markers" d=" M 52.55145151186002 636 L 568 25.335378611742826" stroke-opacity="0.6980392156862745" stroke-linecap="round" stroke-linejoin="round" stroke-miterlimit="10" stroke-width="2.5"/><path fill="rgb(176,0,32)" stroke="none" paint-order="stroke fill markers" d=" M 242.14967319126276 453.2418761593924 C 241.63051048157487 453.2418761593924 241.14547938460865 453.56784356164593 240.9674812245301 454.0863599410052 C 240.74333286135865 454.73931386850467 241.09094845379695 455.45034576212845 241.74390238129644 455.67449412529993 L 338.2673055479005 488.80939371980577 L 337.29324991486635 491.64686012907913 L 354.75213838088024 493.1467646364686 L 340.05307420846304 483.60737196947133 L 339.0790185754289 486.4448383787447 L 242.55561540882485 453.30993878423885 C 242.42117786068462 453.26378858114595 242.28427831571906 453.2418761593924 242.14967319126276 453.2418761593924 Z" fill-opacity="0.6980392156862745"/><path fill="rgb(0,103,88)" stroke="none" paint-order="stroke fill markers" d=" M 382.4348843006004 450.3916259181294 L 383.0390487375561 453.33016047350173 L 383.03904873755613 453.33016047350173 L 146.2887064713048 502.00617041623127 C 145.6124948788952 502.1451999182816 145.1770227532475 502.80608340395844 145.31605225529782 503.48229499636807 C 145.43762227392259 504.07358716580836 145.95820620168897 504.4808079307346 146.5391469387502 504.4808079307346 C 146.62257972328604 504.4808079307346 146.70725741246525 504.47240869580054 146.7921768354346 504.454949212375 L 383.54251910168585 455.7789392696455 L 384.1466835386416 458.7174738250179 L 399.9424797333982 451.1309513954912 L 382.4348843006031 450.3916259181294 Z" fill-opacity="0.6980392156862745"/><path fill="rgb(21,101,192)" stroke="none" paint-order="stroke fill markers" d=" M 285.8462046656772 118.73918442242547 L 281.5962046656772 135.73918442242547 L 284.5962046656772 135.73918442242547 L 284.5962046656772 537.5901581980359 C 284.5962046656772 538.2805141353243 285.1558487283887 538.8401581980359 285.8462046656772 538.8401581980359 C 286.53656060296566 538.8401581980359 287.0962046656772 538.2805141353243 287.0962046656772 537.5901581980359 L 287.0962046656772 135.73918442242547 L 290.0962046656772 135.73918442242547 L 285.8462046656772 118.73918442242547 Z" fill-opacity="0.6980392156862745"/><text fill="rgb(21,101,192)" stroke="none" font-family="geogebra-sans-serif, sans-serif" font-size="16px" font-style="normal" font-weight="bold" text-decoration="normal" x="286" y="119" text-anchor="start" dominant-baseline="alphabetic" fill-opacity="1">z</text><text fill="rgb(176,0,32)" stroke="none" font-family="geogebra-sans-serif, sans-serif" font-size="16px" font-style="normal" font-weight="bold" text-decoration="normal" x="355" y="493" text-anchor="start" dominant-baseline="alphabetic" fill-opacity="1">x</text><text fill="rgb(0,103,88)" stroke="none" font-family="geogebra-sans-serif, sans-serif" font-size="16px" font-style="normal" font-weight="bold" text-decoration="normal" x="400" y="451" text-anchor="start" dominant-baseline="alphabetic" fill-opacity="1">y</text></g></g></svg>