<svg version="1.1" xmlns="http://www.w3.org/2000/svg" xmlns:xlink="http://www.w3.org/1999/xlink" width="562" height="630"><defs><clipPath id="GzCuPUeyPQqF"><path fill="none" stroke="none" d=" M 0 0 L 562 0 L 562 630 L 0 630 L 0 0 Z"/></clipPath></defs><g transform="scale(1,1)" clip-path="url(#GzCuPUeyPQqF)"><g><path fill="rgb(110,109,115)" stroke="none" paint-order="stroke fill markers" fill-rule="evenodd" d=" M 438.97050181057284 470.1781200647343 L 426.45912631214844 465.8831702667677 L 132.72190752078154 471.6720156466357 L 145.23328301920594 475.9669654446023 Z" fill-opacity="0.09803921568627451"/><path fill="none" stroke="rgb(0,0,0)" paint-order="fill stroke markers" d=" M -5 326.6891952697027 L 568 355.20955726065284" stroke-opacity="0.6980392156862745" stroke-linecap="round" stroke-linejoin="round" stroke-miterlimit="10" stroke-width="2.5"/><path fill="rgb(176,0,32)" stroke="none" paint-order="stroke fill markers" d=" M 282.0647814739892 464.80943281727605 L 281.39701098462376 466.75467728629724 L 281.39701137886664 466.75467728629724 C 281.2697218520619 466.71099067074556 281.13315228654716 466.6872766918822 280.99104402449757 466.6872766918822 C 280.3006880872091 466.6872766918822 279.74104402449757 467.2469207545937 279.74104402449757 467.9372766918822 C 279.74104402449757 468.4855245077119 280.0939992308448 468.9513352180003 280.5850770479195 469.11987622712746 L 280.5850770198611 469.11987622712746 L 279.9173065750059 471.0651205664883 L 293.5024195229213 472.2322264898487 L 293.50241952292185 472.2322264898487 L 282.0647814739892 464.80943281727605 Z" fill-opacity="0.6980392156862745"/><path fill="rgb(0,103,88)" stroke="none" paint-order="stroke fill markers" d=" M 414.2338463995257 463.6495914469747 L 414.2929576170789 466.6490090344338 L 137.55243848798065 472.1028908481668 C 136.86221657467732 472.11649344149953 136.31370824052044 472.68705593695194 136.32731083385318 473.37727785025527 C 136.34074809025404 474.0591102476282 136.89768805057622 474.6026531323175 137.57658310866074 474.6026531323175 C 137.58493648249103 474.6026531323175 137.5933083200113 474.6025708413147 137.60169783594168 474.6024055043828 L 137.6016978359417 474.6024055043828 L 414.34221696503135 469.14852369064994 L 414.34221696504 469.14852369064994 L 414.4013281825932 472.14794127810893 L 431.31428695332806 467.5638027964068 L 414.23384639952593 463.6495914469747 Z" fill-opacity="0.6980392156862745"/><path fill="rgb(21,101,192)" stroke="none" paint-order="stroke fill markers" d=" M 285.8462046656772 165.0499474613694 L 281.5962046656772 182.0499474613694 L 284.5962046656772 182.0499474613694 L 284.5962046656772 543.5657405256414 C 284.5962046656772 544.2560964629299 285.1558487283887 544.8157405256414 285.8462046656772 544.8157405256414 C 286.53656060296566 544.8157405256414 287.0962046656772 544.2560964629299 287.0962046656772 543.5657405256414 L 287.0962046656772 182.0499474613694 L 290.0962046656772 182.0499474613694 L 285.8462046656772 165.0499474613694 Z" fill-opacity="0.6980392156862745"/><text fill="rgb(21,101,192)" stroke="none" font-family="geogebra-sans-serif, sans-serif" font-size="16px" font-style="normal" font-weight="bold" text-decoration="normal" x="286" y="165" text-anchor="start" dominant-baseline="alphabetic" fill-opacity="1">z</text><text fill="rgb(176,0,32)" stroke="none" font-family="geogebra-sans-serif, sans-serif" font-size="16px" font-style="normal" font-weight="bold" text-decoration="normal" x="294" y="472" text-anchor="start" dominant-baseline="alphabetic" fill-opacity="1">x</text><text fill="rgb(0,103,88)" stroke="none" font-family="geogebra-sans-serif, sans-serif" font-size="16px" font-style="normal" font-weight="bold" text-decoration="normal" x="431" y="468" text-anchor="start" dominant-baseline="alphabetic" fill-opacity="1">y</text></g></g></svg>