<svg version="1.1" xmlns="http://www.w3.org/2000/svg" xmlns:xlink="http://www.w3.org/1999/xlink" width="638" height="630"><defs><clipPath id="kHEaXreklkKa"><path fill="none" stroke="none" d=" M 0 0 L 638 0 L 638 630 L 0 630 L 0 0 Z"/></clipPath></defs><g transform="scale(1,1)" clip-path="url(#kHEaXreklkKa)"><g><path fill="rgb(110,109,115)" stroke="none" paint-order="stroke fill markers" fill-rule="evenodd" d=" M 516.9452750047664 469.37025226420093 L 160.35765780998545 469.37025226420093 L 120.73681145500984 469.37025226420093 L 477.3244286497908 469.37025226420093 Z" fill-opacity="0.09803921568627451"/><path fill="none" stroke="rgb(28,28,31)" paint-order="fill stroke markers" d=" M 226.7926123041871 469.37025226420093 L 0 329.63777430139487" stroke-opacity="0.6980392156862745" stroke-linecap="round" stroke-linejoin="round" stroke-miterlimit="10" stroke-width="2.5"/><path fill="none" stroke="rgb(0,0,0)" paint-order="fill stroke markers" d=" M 226.7926123041871 469.37025226420093 L 639 723.3413103692874" stroke-opacity="0.6980392156862745" stroke-linejoin="round" stroke-miterlimit="10" stroke-width="2.5" stroke-dasharray="2.5,3"/><path fill="rgb(20,62,146)" stroke="none" paint-order="stroke fill markers" d=" M 321.65146640737595 465.12025226420093 L 321.65146640737595 468.12025226420093 L 299.03062005240025 468.12025226420093 C 298.3402641151118 468.12025226420093 297.78062005240025 468.67989632691246 297.78062005240025 469.37025226420093 C 297.78062005240025 470.0606082014894 298.3402641151118 470.62025226420093 299.03062005240025 470.62025226420093 L 321.65146640737595 470.62025226420093 L 321.65146640737595 473.62025226420093 L 338.65146640737595 469.37025226420093 L 321.65146640737595 465.12025226420093 Z" fill-opacity="0.6980392156862745"/><path fill="rgb(176,0,32)" stroke="none" paint-order="stroke fill markers" d=" M 480.13485182727857 465.12025226420093 L 480.13485182727857 468.12025226420093 L 140.54723463249763 468.12025226420093 C 139.85687869520913 468.12025226420093 139.29723463249763 468.67989632691246 139.29723463249763 469.37025226420093 C 139.29723463249763 470.0606082014894 139.85687869520913 470.62025226420093 140.54723463249763 470.62025226420093 L 480.13485182727857 470.62025226420093 L 480.13485182727857 473.62025226420093 L 497.13485182727857 469.37025226420093 L 480.13485182727857 465.12025226420093 Z" fill-opacity="0.6980392156862745"/><path fill="rgb(0,103,88)" stroke="none" paint-order="stroke fill markers" d=" M 318.8410432298881 73.16178871444441 L 314.5910432298881 90.16178871444441 L 317.5910432298881 90.16178871444441 L 317.5910432298881 568.4223681516401 C 317.5910432298881 569.1127240889285 318.1506872925996 569.6723681516401 318.8410432298881 569.6723681516401 C 319.5313991671766 569.6723681516401 320.0910432298881 569.1127240889285 320.0910432298881 568.4223681516401 L 320.0910432298881 90.16178871444441 L 323.0910432298881 90.16178871444441 L 318.8410432298881 73.16178871444441 Z" fill-opacity="0.6980392156862745"/><path fill="rgb(28,28,31)" stroke="none" paint-order="stroke fill markers" d=" M 231.7926123041871 469.37025226420093 C 231.7926123041871 472.1316760133549 229.55403605334106 474.37025226420093 226.7926123041871 474.37025226420093 C 224.0311885550331 474.37025226420093 221.7926123041871 472.1316760133549 221.7926123041871 469.37025226420093 C 221.7926123041871 466.608828515047 224.0311885550331 464.37025226420093 226.7926123041871 464.37025226420093 C 229.55403605334106 464.37025226420093 231.7926123041871 466.608828515047 231.7926123041871 469.37025226420093 Z" fill-opacity="1"/><text fill="rgb(20,62,146)" stroke="none" font-family="geogebra-sans-serif, sans-serif" font-size="16px" font-style="normal" font-weight="bold" text-decoration="normal" x="339" y="469" text-anchor="start" dominant-baseline="alphabetic" fill-opacity="1">x</text><text fill="rgb(176,0,32)" stroke="none" font-family="geogebra-sans-serif, sans-serif" font-size="16px" font-style="normal" font-weight="bold" text-decoration="normal" x="497" y="469" text-anchor="start" dominant-baseline="alphabetic" fill-opacity="1">y</text><text fill="rgb(0,103,88)" stroke="none" font-family="geogebra-sans-serif, sans-serif" font-size="16px" font-style="normal" font-weight="bold" text-decoration="normal" x="319" y="73" text-anchor="start" dominant-baseline="alphabetic" fill-opacity="1">z</text></g></g></svg>