<svg version="1.1" xmlns="http://www.w3.org/2000/svg" xmlns:xlink="http://www.w3.org/1999/xlink" width="638" height="630"><defs><clipPath id="qgeFmrtoeiFl"><path fill="none" stroke="none" d=" M 0 0 L 638 0 L 638 630 L 0 630 L 0 0 Z"/></clipPath></defs><g transform="scale(1,1)" clip-path="url(#qgeFmrtoeiFl)"><g><path fill="rgb(110,109,115)" stroke="none" paint-order="stroke fill markers" fill-rule="evenodd" d=" M 516.9452750047664 469.37025226420093 L 398.0827359398394 469.37025226420093 L 120.73681145500984 469.37025226420093 L 239.59935051993682 469.37025226420093 Z" fill-opacity="0.09803921568627451"/><path fill="none" stroke="rgb(28,28,31)" paint-order="fill stroke markers" d=" M 214.78629522692177 469.37025226420093 L 152.7334840987074 5.684341886080802e-14" stroke-opacity="0.6980392156862745" stroke-linecap="round" stroke-linejoin="round" stroke-miterlimit="10" stroke-width="2.5"/><path fill="none" stroke="rgb(0,0,0)" paint-order="fill stroke markers" d=" M 214.78629522692177 469.37025226420093 L 236.15445854909368 631" stroke-opacity="0.6980392156862745" stroke-linejoin="round" stroke-miterlimit="10" stroke-width="2.5" stroke-dasharray="2.5,3"/><path fill="rgb(20,62,146)" stroke="none" paint-order="stroke fill markers" d=" M 440.51400547230287 465.12025226420093 L 440.51400547230287 468.12025226420093 L 180.16808098747333 468.12025226420093 C 179.47772505018483 468.12025226420093 178.91808098747333 468.67989632691246 178.91808098747333 469.37025226420093 C 178.91808098747333 470.0606082014894 179.47772505018483 470.62025226420093 180.16808098747333 470.62025226420093 L 440.51400547230287 470.62025226420093 L 440.51400547230287 473.62025226420093 L 457.51400547230287 469.37025226420093 L 440.51400547230287 465.12025226420093 Z" fill-opacity="0.6980392156862745"/><path fill="rgb(176,0,32)" stroke="none" paint-order="stroke fill markers" d=" M 361.2723127623516 465.12025226420093 L 361.2723127623516 468.12025226420093 L 259.4097736974246 468.12025226420093 C 258.71941776013614 468.12025226420093 258.1597736974246 468.67989632691246 258.1597736974246 469.37025226420093 C 258.1597736974246 470.0606082014894 258.71941776013614 470.62025226420093 259.4097736974246 470.62025226420093 L 361.2723127623516 470.62025226420093 L 361.2723127623516 473.62025226420093 L 378.2723127623516 469.37025226420093 L 361.2723127623516 465.12025226420093 Z" fill-opacity="0.6980392156862745"/><path fill="rgb(0,103,88)" stroke="none" paint-order="stroke fill markers" d=" M 318.8410432298881 73.16178871444441 L 314.5910432298881 90.16178871444441 L 317.5910432298881 90.16178871444441 L 317.5910432298881 568.4223681516401 C 317.5910432298881 569.1127240889285 318.1506872925996 569.6723681516401 318.8410432298881 569.6723681516401 C 319.5313991671766 569.6723681516401 320.0910432298881 569.1127240889285 320.0910432298881 568.4223681516401 L 320.0910432298881 90.16178871444441 L 323.0910432298881 90.16178871444441 L 318.8410432298881 73.16178871444441 Z" fill-opacity="0.6980392156862745"/><path fill="rgb(28,28,31)" stroke="none" paint-order="stroke fill markers" d=" M 219.78629522692177 469.37025226420093 C 219.78629522692177 472.1316760133549 217.54771897607574 474.37025226420093 214.78629522692177 474.37025226420093 C 212.0248714777678 474.37025226420093 209.78629522692177 472.1316760133549 209.78629522692177 469.37025226420093 C 209.78629522692177 466.608828515047 212.0248714777678 464.37025226420093 214.78629522692177 464.37025226420093 C 217.54771897607574 464.37025226420093 219.78629522692177 466.608828515047 219.78629522692177 469.37025226420093 Z" fill-opacity="1"/><text fill="rgb(20,62,146)" stroke="none" font-family="geogebra-sans-serif, sans-serif" font-size="16px" font-style="normal" font-weight="bold" text-decoration="normal" x="458" y="469" text-anchor="start" dominant-baseline="alphabetic" fill-opacity="1">x</text><text fill="rgb(176,0,32)" stroke="none" font-family="geogebra-sans-serif, sans-serif" font-size="16px" font-style="normal" font-weight="bold" text-decoration="normal" x="378" y="469" text-anchor="start" dominant-baseline="alphabetic" fill-opacity="1">y</text><text fill="rgb(0,103,88)" stroke="none" font-family="geogebra-sans-serif, sans-serif" font-size="16px" font-style="normal" font-weight="bold" text-decoration="normal" x="319" y="73" text-anchor="start" dominant-baseline="alphabetic" fill-opacity="1">z</text></g></g></svg>