<svg version="1.1" xmlns="http://www.w3.org/2000/svg" xmlns:xlink="http://www.w3.org/1999/xlink" width="638" height="630"><defs><clipPath id="VCLpixozDNGP"><path fill="none" stroke="none" d=" M 0 0 L 638 0 L 638 630 L 0 630 L 0 0 Z"/></clipPath></defs><g transform="scale(1,1)" clip-path="url(#VCLpixozDNGP)"><g><path fill="rgb(110,109,115)" stroke="none" paint-order="stroke fill markers" fill-rule="evenodd" d=" M 516.9452750047664 469.37025226420093 L 120.73681145500984 469.37025226420093 L 120.73681145500984 469.37025226420093 L 516.9452750047664 469.37025226420093 Z" fill-opacity="0.09803921568627451"/><path fill="none" stroke="rgb(28,28,31)" paint-order="fill stroke markers" d=" M 228.793665150398 469.37025226420093 L 0 357.5155715240063" stroke-opacity="0.6980392156862745" stroke-linecap="round" stroke-linejoin="round" stroke-miterlimit="10" stroke-width="2.5"/><path fill="none" stroke="rgb(0,0,0)" paint-order="fill stroke markers" d=" M 228.793665150398 469.37025226420093 L 639 669.9155715240063" stroke-opacity="0.6980392156862745" stroke-linejoin="round" stroke-miterlimit="10" stroke-width="2.5" stroke-dasharray="2.5,3"/><path fill="rgb(20,62,146)" stroke="none" paint-order="stroke fill markers" d=" M 318.8410432298881 468.12025226420093 C 318.1506872925996 468.12025226420093 317.5910432298881 468.67989632691246 317.5910432298881 469.37025226420093 C 317.5910432298881 470.0606082014894 318.1506872925996 470.62025226420093 318.8410432298881 470.62025226420093 C 319.5313991671766 470.62025226420093 320.0910432298881 470.0606082014894 320.0910432298881 469.37025226420093 C 320.0910432298881 468.67989632691246 319.5313991671766 468.12025226420093 318.8410432298881 468.12025226420093 Z" fill-opacity="0.6980392156862745"/><path fill="rgb(176,0,32)" stroke="none" paint-order="stroke fill markers" d=" M 499.94527500476636 465.12025226420093 L 499.94527500476636 468.12025226420093 L 120.73681145500984 468.12025226420093 C 120.04645551772136 468.12025226420093 119.48681145500984 468.67989632691246 119.48681145500984 469.37025226420093 C 119.48681145500984 470.0606082014894 120.04645551772136 470.62025226420093 120.73681145500984 470.62025226420093 L 499.94527500476636 470.62025226420093 L 499.94527500476636 473.62025226420093 L 516.9452750047664 469.37025226420093 L 499.94527500476636 465.12025226420093 Z" fill-opacity="0.6980392156862745"/><path fill="rgb(0,103,88)" stroke="none" paint-order="stroke fill markers" d=" M 318.8410432298881 73.16178871444441 L 314.5910432298881 90.16178871444441 L 317.5910432298881 90.16178871444441 L 317.5910432298881 568.4223681516401 C 317.5910432298881 569.1127240889285 318.1506872925996 569.6723681516401 318.8410432298881 569.6723681516401 C 319.5313991671766 569.6723681516401 320.0910432298881 569.1127240889285 320.0910432298881 568.4223681516401 L 320.0910432298881 90.16178871444441 L 323.0910432298881 90.16178871444441 L 318.8410432298881 73.16178871444441 Z" fill-opacity="0.6980392156862745"/><path fill="rgb(28,28,31)" stroke="none" paint-order="stroke fill markers" d=" M 233.793665150398 469.37025226420093 C 233.793665150398 472.1316760133549 231.55508889955198 474.37025226420093 228.793665150398 474.37025226420093 C 226.03224140124402 474.37025226420093 223.793665150398 472.1316760133549 223.793665150398 469.37025226420093 C 223.793665150398 466.608828515047 226.03224140124402 464.37025226420093 228.793665150398 464.37025226420093 C 231.55508889955198 464.37025226420093 233.793665150398 466.608828515047 233.793665150398 469.37025226420093 Z" fill-opacity="1"/><text fill="rgb(20,62,146)" stroke="none" font-family="geogebra-sans-serif, sans-serif" font-size="16px" font-style="normal" font-weight="bold" text-decoration="normal" x="319" y="469" text-anchor="start" dominant-baseline="alphabetic" fill-opacity="1">x</text><text fill="rgb(176,0,32)" stroke="none" font-family="geogebra-sans-serif, sans-serif" font-size="16px" font-style="normal" font-weight="bold" text-decoration="normal" x="517" y="469" text-anchor="start" dominant-baseline="alphabetic" fill-opacity="1">y</text><text fill="rgb(0,103,88)" stroke="none" font-family="geogebra-sans-serif, sans-serif" font-size="16px" font-style="normal" font-weight="bold" text-decoration="normal" x="319" y="73" text-anchor="start" dominant-baseline="alphabetic" fill-opacity="1">z</text></g></g></svg>