<svg version="1.1" xmlns="http://www.w3.org/2000/svg" xmlns:xlink="http://www.w3.org/1999/xlink" width="638" height="630"><defs><clipPath id="JNmIPueFquud"><path fill="none" stroke="none" d=" M 0 0 L 638 0 L 638 630 L 0 630 L 0 0 Z"/></clipPath></defs><g transform="scale(1,1)" clip-path="url(#JNmIPueFquud)"><g><path fill="rgb(110,109,115)" stroke="none" paint-order="stroke fill markers" fill-rule="evenodd" d=" M 516.9452750047664 469.37025226420093 L 318.8410432298881 469.37025226420093 L 120.73681145500984 469.37025226420093 L 318.8410432298881 469.37025226420093 Z" fill-opacity="0.09803921568627451"/><path fill="none" stroke="rgb(28,28,31)" paint-order="fill stroke markers" d=" M 218.78840091934353 469.37025226420093 L -14.316353993012171 0" stroke-opacity="0.6980392156862745" stroke-linecap="round" stroke-linejoin="round" stroke-miterlimit="10" stroke-width="2.5"/><path fill="none" stroke="rgb(0,0,0)" paint-order="fill stroke markers" d=" M 218.78840091934353 469.37025226420093 L 299.05906688240873 631" stroke-opacity="0.6980392156862745" stroke-linejoin="round" stroke-miterlimit="10" stroke-width="2.5" stroke-dasharray="2.5,3"/><path fill="rgb(20,62,146)" stroke="none" paint-order="stroke fill markers" d=" M 400.89315911732723 465.12025226420093 L 400.89315911732723 468.12025226420093 L 219.78892734244897 468.12025226420093 C 219.09857140516047 468.12025226420093 218.53892734244897 468.67989632691246 218.53892734244897 469.37025226420093 C 218.53892734244897 470.0606082014894 219.09857140516047 470.62025226420093 219.78892734244897 470.62025226420093 L 400.89315911732723 470.62025226420093 L 400.89315911732723 473.62025226420093 L 417.89315911732723 469.37025226420093 L 400.89315911732723 465.12025226420093 Z" fill-opacity="0.6980392156862745"/><path fill="rgb(176,0,32)" stroke="none" paint-order="stroke fill markers" d=" M 400.89315911732723 465.12025226420093 L 400.89315911732723 468.12025226420093 L 219.78892734244897 468.12025226420093 C 219.09857140516047 468.12025226420093 218.53892734244897 468.67989632691246 218.53892734244897 469.37025226420093 C 218.53892734244897 470.0606082014894 219.09857140516047 470.62025226420093 219.78892734244897 470.62025226420093 L 400.89315911732723 470.62025226420093 L 400.89315911732723 473.62025226420093 L 417.89315911732723 469.37025226420093 L 400.89315911732723 465.12025226420093 Z" fill-opacity="0.6980392156862745"/><path fill="rgb(0,103,88)" stroke="none" paint-order="stroke fill markers" d=" M 318.8410432298881 73.16178871444441 L 314.5910432298881 90.16178871444441 L 317.5910432298881 90.16178871444441 L 317.5910432298881 568.4223681516401 C 317.5910432298881 569.1127240889285 318.1506872925996 569.6723681516401 318.8410432298881 569.6723681516401 C 319.5313991671766 569.6723681516401 320.0910432298881 569.1127240889285 320.0910432298881 568.4223681516401 L 320.0910432298881 90.16178871444441 L 323.0910432298881 90.16178871444441 L 318.8410432298881 73.16178871444441 Z" fill-opacity="0.6980392156862745"/><path fill="rgb(28,28,31)" stroke="none" paint-order="stroke fill markers" d=" M 223.78840091934353 469.37025226420093 C 223.78840091934353 472.1316760133549 221.5498246684975 474.37025226420093 218.78840091934353 474.37025226420093 C 216.02697717018955 474.37025226420093 213.78840091934353 472.1316760133549 213.78840091934353 469.37025226420093 C 213.78840091934353 466.608828515047 216.02697717018955 464.37025226420093 218.78840091934353 464.37025226420093 C 221.5498246684975 464.37025226420093 223.78840091934353 466.608828515047 223.78840091934353 469.37025226420093 Z" fill-opacity="1"/><text fill="rgb(20,62,146)" stroke="none" font-family="geogebra-sans-serif, sans-serif" font-size="16px" font-style="normal" font-weight="bold" text-decoration="normal" x="418" y="469" text-anchor="start" dominant-baseline="alphabetic" fill-opacity="1">x</text><text fill="rgb(176,0,32)" stroke="none" font-family="geogebra-sans-serif, sans-serif" font-size="16px" font-style="normal" font-weight="bold" text-decoration="normal" x="418" y="469" text-anchor="start" dominant-baseline="alphabetic" fill-opacity="1">y</text><text fill="rgb(0,103,88)" stroke="none" font-family="geogebra-sans-serif, sans-serif" font-size="16px" font-style="normal" font-weight="bold" text-decoration="normal" x="319" y="73" text-anchor="start" dominant-baseline="alphabetic" fill-opacity="1">z</text></g></g></svg>