<svg version="1.1" xmlns="http://www.w3.org/2000/svg" xmlns:xlink="http://www.w3.org/1999/xlink" width="562" height="630"><defs><clipPath id="ZAlevGMpmPiK"><path fill="none" stroke="none" d=" M 0 0 L 562 0 L 562 630 L 0 630 L 0 0 Z"/></clipPath></defs><g transform="scale(1,1)" clip-path="url(#ZAlevGMpmPiK)"><g><path fill="rgb(110,109,115)" stroke="none" paint-order="stroke fill markers" fill-rule="evenodd" d=" M 435.2357628558193 469.61790922152124 L 420.29680703680503 469.61790922152124 L 136.4566464755351 469.61790922152124 L 151.39560229454932 469.61790922152124 Z" fill-opacity="0.09803921568627451"/><path fill="none" stroke="rgb(0,0,0)" paint-order="fill stroke markers" d=" M -5 307.0116362798711 L 568 371.8220155213879" stroke-opacity="0.6980392156862745" stroke-linecap="round" stroke-linejoin="round" stroke-miterlimit="10" stroke-width="2.5"/><path fill="rgb(176,0,32)" stroke="none" paint-order="stroke fill markers" d=" M 278.3767267561701 465.8831702667677 L 278.3767267561701 468.36790922152124 C 277.68637081888164 468.36790922152124 277.1267267561701 468.9275532842328 277.1267267561701 469.61790922152124 C 277.1267267561701 470.3082651588097 277.68637081888164 470.86790922152124 278.3767267561701 470.86790922152124 L 278.3767267561701 473.3526481762748 L 293.31568257518427 469.61790922152124 L 278.3767267561701 465.8831702667677 Z" fill-opacity="0.6980392156862745"/><path fill="rgb(0,103,88)" stroke="none" paint-order="stroke fill markers" d=" M 410.76628494631217 465.36790922152124 L 410.76628494631217 468.36790922152124 L 143.92612438504221 468.36790922152124 C 143.2357684477537 468.36790922152124 142.67612438504221 468.9275532842328 142.67612438504221 469.61790922152124 C 142.67612438504221 470.3082651588097 143.2357684477537 470.86790922152124 143.92612438504221 470.86790922152124 L 410.76628494631217 470.86790922152124 L 410.76628494631217 473.86790922152124 L 427.76628494631217 469.61790922152124 L 410.76628494631217 465.36790922152124 Z" fill-opacity="0.6980392156862745"/><path fill="rgb(21,101,192)" stroke="none" paint-order="stroke fill markers" d=" M 285.8462046656772 170.83879284123748 L 281.5962046656772 187.83879284123748 L 284.5962046656772 187.83879284123748 L 284.5962046656772 544.3126883165921 C 284.5962046656772 545.0030442538806 285.1558487283887 545.5626883165921 285.8462046656772 545.5626883165921 C 286.53656060296566 545.5626883165921 287.0962046656772 545.0030442538806 287.0962046656772 544.3126883165921 L 287.0962046656772 187.83879284123748 L 290.0962046656772 187.83879284123748 L 285.8462046656772 170.83879284123748 Z" fill-opacity="0.6980392156862745"/><text fill="rgb(21,101,192)" stroke="none" font-family="geogebra-sans-serif, sans-serif" font-size="16px" font-style="normal" font-weight="bold" text-decoration="normal" x="286" y="171" text-anchor="start" dominant-baseline="alphabetic" fill-opacity="1">z</text><text fill="rgb(176,0,32)" stroke="none" font-family="geogebra-sans-serif, sans-serif" font-size="16px" font-style="normal" font-weight="bold" text-decoration="normal" x="293" y="470" text-anchor="start" dominant-baseline="alphabetic" fill-opacity="1">x</text><text fill="rgb(0,103,88)" stroke="none" font-family="geogebra-sans-serif, sans-serif" font-size="16px" font-style="normal" font-weight="bold" text-decoration="normal" x="428" y="470" text-anchor="start" dominant-baseline="alphabetic" fill-opacity="1">y</text></g></g></svg>