<svg version="1.1" xmlns="http://www.w3.org/2000/svg" xmlns:xlink="http://www.w3.org/1999/xlink" width="562" height="630"><defs><clipPath id="LOlhzVxiWcci"><path fill="none" stroke="none" d=" M 0 0 L 562 0 L 562 630 L 0 630 L 0 0 Z"/></clipPath></defs><g transform="scale(1,1)" clip-path="url(#LOlhzVxiWcci)"><g><path fill="rgb(110,109,115)" stroke="none" paint-order="stroke fill markers" fill-rule="evenodd" d=" M 435.2357628558193 469.61790922152124 L 255.9682930276488 469.61790922152124 L 136.4566464755351 469.61790922152124 L 315.7241163037056 469.61790922152124 Z" fill-opacity="0.09803921568627451"/><path fill="none" stroke="rgb(0,0,0)" paint-order="fill stroke markers" d=" M -5 487.9439059820719 L 568 196.29719939524585" stroke-opacity="0.6980392156862745" stroke-linecap="round" stroke-linejoin="round" stroke-miterlimit="10" stroke-width="2.5"/><path fill="rgb(176,0,32)" stroke="none" paint-order="stroke fill markers" d=" M 358.47993957976246 465.36790922152124 L 358.47993957976246 468.36790922152124 L 196.21246975159193 468.36790922152124 C 195.52211381430342 468.36790922152124 194.96246975159193 468.9275532842328 194.96246975159193 469.61790922152124 C 194.96246975159193 470.3082651588097 195.52211381430342 470.86790922152124 196.21246975159193 470.86790922152124 L 358.47993957976246 470.86790922152124 L 358.47993957976246 473.86790922152124 L 375.47993957976246 469.61790922152124 L 358.47993957976246 465.36790922152124 Z" fill-opacity="0.6980392156862745"/><path fill="rgb(0,103,88)" stroke="none" paint-order="stroke fill markers" d=" M 328.60202794173404 465.36790922152124 L 328.60202794173404 468.36790922152124 L 226.09038138962035 468.36790922152124 C 225.40002545233185 468.36790922152124 224.84038138962035 468.9275532842328 224.84038138962035 469.61790922152124 C 224.84038138962035 470.3082651588097 225.40002545233185 470.86790922152124 226.09038138962035 470.86790922152124 L 328.60202794173404 470.86790922152124 L 328.60202794173404 473.86790922152124 L 345.60202794173404 469.61790922152124 L 328.60202794173404 465.36790922152124 Z" fill-opacity="0.6980392156862745"/><path fill="rgb(21,101,192)" stroke="none" paint-order="stroke fill markers" d=" M 285.8462046656772 170.83879284123748 L 281.5962046656772 187.83879284123748 L 284.5962046656772 187.83879284123748 L 284.5962046656772 544.3126883165921 C 284.5962046656772 545.0030442538806 285.1558487283887 545.5626883165921 285.8462046656772 545.5626883165921 C 286.53656060296566 545.5626883165921 287.0962046656772 545.0030442538806 287.0962046656772 544.3126883165921 L 287.0962046656772 187.83879284123748 L 290.0962046656772 187.83879284123748 L 285.8462046656772 170.83879284123748 Z" fill-opacity="0.6980392156862745"/><text fill="rgb(21,101,192)" stroke="none" font-family="geogebra-sans-serif, sans-serif" font-size="16px" font-style="normal" font-weight="bold" text-decoration="normal" x="286" y="171" text-anchor="start" dominant-baseline="alphabetic" fill-opacity="1">z</text><text fill="rgb(176,0,32)" stroke="none" font-family="geogebra-sans-serif, sans-serif" font-size="16px" font-style="normal" font-weight="bold" text-decoration="normal" x="375" y="470" text-anchor="start" dominant-baseline="alphabetic" fill-opacity="1">x</text><text fill="rgb(0,103,88)" stroke="none" font-family="geogebra-sans-serif, sans-serif" font-size="16px" font-style="normal" font-weight="bold" text-decoration="normal" x="346" y="470" text-anchor="start" dominant-baseline="alphabetic" fill-opacity="1">y</text></g></g></svg>