<svg version="1.1" xmlns="http://www.w3.org/2000/svg" xmlns:xlink="http://www.w3.org/1999/xlink" width="638" height="630"><defs><clipPath id="QzAFdlpndPsW"><path fill="none" stroke="none" d=" M 0 0 L 638 0 L 638 630 L 0 630 L 0 0 Z"/></clipPath></defs><g transform="scale(1,1)" clip-path="url(#QzAFdlpndPsW)"><g><path fill="rgb(110,109,115)" stroke="none" paint-order="stroke fill markers" fill-rule="evenodd" d=" M 516.9452750047664 469.37025226420093 L 199.97850416496112 469.37025226420093 L 120.73681145500981 469.37025226420093 L 437.7035822948151 469.37025226420093 Z" fill-opacity="0.09803921568627451"/><path fill="none" stroke="rgb(28,28,31)" paint-order="fill stroke markers" d=" M 224.79155945797618 469.37025226420093 L 2.842170943040401e-14 292.51437634627" stroke-opacity="0.6980392156862745" stroke-linecap="round" stroke-linejoin="round" stroke-miterlimit="10" stroke-width="2.5"/><path fill="none" stroke="rgb(0,0,0)" paint-order="fill stroke markers" d=" M 224.79155945797618 469.37025226420093 L 639 795.2508001873296" stroke-opacity="0.6980392156862745" stroke-linejoin="round" stroke-miterlimit="10" stroke-width="2.5" stroke-dasharray="2.5,3"/><path fill="rgb(20,62,146)" stroke="none" paint-order="stroke fill markers" d=" M 341.46188958486374 465.12025226420093 L 341.46188958486374 468.12025226420093 L 279.22019687491246 468.12025226420093 C 278.529840937624 468.12025226420093 277.97019687491246 468.67989632691246 277.97019687491246 469.37025226420093 C 277.97019687491246 470.0606082014894 278.529840937624 470.62025226420093 279.22019687491246 470.62025226420093 L 341.46188958486374 470.62025226420093 L 341.46188958486374 473.62025226420093 L 358.46188958486374 469.37025226420093 L 341.46188958486374 465.12025226420093 Z" fill-opacity="0.6980392156862745"/><path fill="rgb(176,0,32)" stroke="none" paint-order="stroke fill markers" d=" M 460.3244286497908 465.12025226420093 L 460.3244286497908 468.12025226420093 L 160.35765780998545 468.12025226420093 C 159.66730187269695 468.12025226420093 159.10765780998545 468.67989632691246 159.10765780998545 469.37025226420093 C 159.10765780998545 470.0606082014894 159.66730187269695 470.62025226420093 160.35765780998545 470.62025226420093 L 460.3244286497908 470.62025226420093 L 460.3244286497908 473.62025226420093 L 477.3244286497908 469.37025226420093 L 460.3244286497908 465.12025226420093 Z" fill-opacity="0.6980392156862745"/><path fill="rgb(0,103,88)" stroke="none" paint-order="stroke fill markers" d=" M 318.8410432298881 73.16178871444436 L 314.5910432298881 90.16178871444436 L 317.5910432298881 90.16178871444436 L 317.5910432298881 568.4223681516401 C 317.5910432298881 569.1127240889285 318.1506872925996 569.6723681516401 318.8410432298881 569.6723681516401 C 319.5313991671766 569.6723681516401 320.0910432298881 569.1127240889285 320.0910432298881 568.4223681516401 L 320.0910432298881 90.16178871444436 L 323.0910432298881 90.16178871444436 L 318.8410432298881 73.16178871444436 Z" fill-opacity="0.6980392156862745"/><path fill="rgb(28,28,31)" stroke="none" paint-order="stroke fill markers" d=" M 229.79155945797618 469.37025226420093 C 229.79155945797618 472.1316760133549 227.55298320713015 474.37025226420093 224.79155945797618 474.37025226420093 C 222.0301357088222 474.37025226420093 219.79155945797618 472.1316760133549 219.79155945797618 469.37025226420093 C 219.79155945797618 466.608828515047 222.0301357088222 464.37025226420093 224.79155945797618 464.37025226420093 C 227.55298320713015 464.37025226420093 229.79155945797618 466.608828515047 229.79155945797618 469.37025226420093 Z" fill-opacity="1"/><text fill="rgb(20,62,146)" stroke="none" font-family="geogebra-sans-serif, sans-serif" font-size="16px" font-style="normal" font-weight="bold" text-decoration="normal" x="358" y="469" text-anchor="start" dominant-baseline="alphabetic" fill-opacity="1">x</text><text fill="rgb(176,0,32)" stroke="none" font-family="geogebra-sans-serif, sans-serif" font-size="16px" font-style="normal" font-weight="bold" text-decoration="normal" x="477" y="469" text-anchor="start" dominant-baseline="alphabetic" fill-opacity="1">y</text><text fill="rgb(0,103,88)" stroke="none" font-family="geogebra-sans-serif, sans-serif" font-size="16px" font-style="normal" font-weight="bold" text-decoration="normal" x="319" y="73" text-anchor="start" dominant-baseline="alphabetic" fill-opacity="1">z</text></g></g></svg>