<svg version="1.1" xmlns="http://www.w3.org/2000/svg" xmlns:xlink="http://www.w3.org/1999/xlink" width="638" height="630"><defs><clipPath id="MDadxqDrxCHI"><path fill="none" stroke="none" d=" M 0 0 L 638 0 L 638 630 L 0 630 L 0 0 Z"/></clipPath></defs><g transform="scale(1,1)" clip-path="url(#MDadxqDrxCHI)"><g><path fill="rgb(110,109,115)" stroke="none" paint-order="stroke fill markers" fill-rule="evenodd" d=" M 516.9452750047664 469.37025226420093 L 338.65146640737595 469.37025226420093 L 120.73681145500984 469.37025226420093 L 299.03062005240025 469.37025226420093 Z" fill-opacity="0.09803921568627451"/><path fill="none" stroke="rgb(28,28,31)" paint-order="fill stroke markers" d=" M 217.7878744962381 469.37025226420093 L 31.584459008566427 0" stroke-opacity="0.6980392156862745" stroke-linecap="round" stroke-linejoin="round" stroke-miterlimit="10" stroke-width="2.5"/><path fill="none" stroke="rgb(0,0,0)" paint-order="fill stroke markers" d=" M 217.7878744962381 469.37025226420093 L 281.9078542513164 631" stroke-opacity="0.6980392156862745" stroke-linejoin="round" stroke-miterlimit="10" stroke-width="2.5" stroke-dasharray="2.5,3"/><path fill="rgb(20,62,146)" stroke="none" paint-order="stroke fill markers" d=" M 410.7983707060712 465.12025226420093 L 410.7983707060712 468.12025226420093 L 209.88371575370505 468.12025226420093 C 209.19335981641655 468.12025226420093 208.63371575370505 468.67989632691246 208.63371575370505 469.37025226420093 C 208.63371575370505 470.0606082014894 209.19335981641655 470.62025226420093 209.88371575370505 470.62025226420093 L 410.7983707060712 470.62025226420093 L 410.7983707060712 473.62025226420093 L 427.7983707060712 469.37025226420093 L 410.7983707060712 465.12025226420093 Z" fill-opacity="0.6980392156862745"/><path fill="rgb(176,0,32)" stroke="none" paint-order="stroke fill markers" d=" M 390.98794752858333 465.12025226420093 L 390.98794752858333 468.12025226420093 L 229.69413893119287 468.12025226420093 C 229.00378299390437 468.12025226420093 228.44413893119287 468.67989632691246 228.44413893119287 469.37025226420093 C 228.44413893119287 470.0606082014894 229.00378299390437 470.62025226420093 229.69413893119287 470.62025226420093 L 390.98794752858333 470.62025226420093 L 390.98794752858333 473.62025226420093 L 407.98794752858333 469.37025226420093 L 390.98794752858333 465.12025226420093 Z" fill-opacity="0.6980392156862745"/><path fill="rgb(0,103,88)" stroke="none" paint-order="stroke fill markers" d=" M 318.8410432298881 73.16178871444441 L 314.5910432298881 90.16178871444441 L 317.5910432298881 90.16178871444441 L 317.5910432298881 568.4223681516401 C 317.5910432298881 569.1127240889285 318.1506872925996 569.6723681516401 318.8410432298881 569.6723681516401 C 319.5313991671766 569.6723681516401 320.0910432298881 569.1127240889285 320.0910432298881 568.4223681516401 L 320.0910432298881 90.16178871444441 L 323.0910432298881 90.16178871444441 L 318.8410432298881 73.16178871444441 Z" fill-opacity="0.6980392156862745"/><path fill="rgb(28,28,31)" stroke="none" paint-order="stroke fill markers" d=" M 222.7878744962381 469.37025226420093 C 222.7878744962381 472.1316760133549 220.54929824539207 474.37025226420093 217.7878744962381 474.37025226420093 C 215.0264507470841 474.37025226420093 212.7878744962381 472.1316760133549 212.7878744962381 469.37025226420093 C 212.7878744962381 466.608828515047 215.0264507470841 464.37025226420093 217.7878744962381 464.37025226420093 C 220.54929824539207 464.37025226420093 222.7878744962381 466.608828515047 222.7878744962381 469.37025226420093 Z" fill-opacity="1"/><text fill="rgb(20,62,146)" stroke="none" font-family="geogebra-sans-serif, sans-serif" font-size="16px" font-style="normal" font-weight="bold" text-decoration="normal" x="428" y="469" text-anchor="start" dominant-baseline="alphabetic" fill-opacity="1">x</text><text fill="rgb(176,0,32)" stroke="none" font-family="geogebra-sans-serif, sans-serif" font-size="16px" font-style="normal" font-weight="bold" text-decoration="normal" x="408" y="469" text-anchor="start" dominant-baseline="alphabetic" fill-opacity="1">y</text><text fill="rgb(0,103,88)" stroke="none" font-family="geogebra-sans-serif, sans-serif" font-size="16px" font-style="normal" font-weight="bold" text-decoration="normal" x="319" y="73" text-anchor="start" dominant-baseline="alphabetic" fill-opacity="1">z</text></g></g></svg>