<svg version="1.1" xmlns="http://www.w3.org/2000/svg" xmlns:xlink="http://www.w3.org/1999/xlink" width="638" height="630"><defs><clipPath id="iUBSWqaagumE"><path fill="none" stroke="none" d=" M 0 0 L 638 0 L 638 630 L 0 630 L 0 0 Z"/></clipPath></defs><g transform="scale(1,1)" clip-path="url(#iUBSWqaagumE)"><g><path fill="rgb(110,109,115)" stroke="none" paint-order="stroke fill markers" fill-rule="evenodd" d=" M 516.9452750047664 469.37025226420093 L 516.9452750047664 469.37025226420093 L 120.73681145500984 469.37025226420093 L 120.73681145500984 469.37025226420093 Z" fill-opacity="0.09803921568627451"/><path fill="none" stroke="rgb(28,28,31)" paint-order="fill stroke markers" d=" M 208.78313668828906 469.37025226420093 L 339.16376231723376 0" stroke-opacity="0.6980392156862745" stroke-linecap="round" stroke-linejoin="round" stroke-miterlimit="10" stroke-width="2.5"/><path fill="none" stroke="rgb(0,0,0)" paint-order="fill stroke markers" d=" M 208.78313668828906 469.37025226420093 L 163.885984539456 631" stroke-opacity="0.6980392156862745" stroke-linejoin="round" stroke-miterlimit="10" stroke-width="2.5" stroke-dasharray="2.5,3"/><path fill="rgb(20,62,146)" stroke="none" paint-order="stroke fill markers" d=" M 499.94527500476636 465.12025226420093 L 499.94527500476636 468.12025226420093 L 120.73681145500984 468.12025226420093 C 120.04645551772136 468.12025226420093 119.48681145500984 468.67989632691246 119.48681145500984 469.37025226420093 C 119.48681145500984 470.0606082014894 120.04645551772136 470.62025226420093 120.73681145500984 470.62025226420093 L 499.94527500476636 470.62025226420093 L 499.94527500476636 473.62025226420093 L 516.9452750047664 469.37025226420093 L 499.94527500476636 465.12025226420093 Z" fill-opacity="0.6980392156862745"/><path fill="rgb(176,0,32)" stroke="none" paint-order="stroke fill markers" d=" M 318.8410432298881 468.12025226420093 C 318.1506872925996 468.12025226420093 317.5910432298881 468.67989632691246 317.5910432298881 469.37025226420093 C 317.5910432298881 470.0606082014894 318.1506872925996 470.62025226420093 318.8410432298881 470.62025226420093 C 319.5313991671766 470.62025226420093 320.0910432298881 470.0606082014894 320.0910432298881 469.37025226420093 C 320.0910432298881 468.67989632691246 319.5313991671766 468.12025226420093 318.8410432298881 468.12025226420093 Z" fill-opacity="0.6980392156862745"/><path fill="rgb(0,103,88)" stroke="none" paint-order="stroke fill markers" d=" M 318.8410432298881 73.16178871444441 L 314.5910432298881 90.16178871444441 L 317.5910432298881 90.16178871444441 L 317.5910432298881 568.4223681516401 C 317.5910432298881 569.1127240889285 318.1506872925996 569.6723681516401 318.8410432298881 569.6723681516401 C 319.5313991671766 569.6723681516401 320.0910432298881 569.1127240889285 320.0910432298881 568.4223681516401 L 320.0910432298881 90.16178871444441 L 323.0910432298881 90.16178871444441 L 318.8410432298881 73.16178871444441 Z" fill-opacity="0.6980392156862745"/><path fill="rgb(28,28,31)" stroke="none" paint-order="stroke fill markers" d=" M 213.78313668828906 469.37025226420093 C 213.78313668828906 472.1316760133549 211.54456043744304 474.37025226420093 208.78313668828906 474.37025226420093 C 206.02171293913509 474.37025226420093 203.78313668828906 472.1316760133549 203.78313668828906 469.37025226420093 C 203.78313668828906 466.608828515047 206.02171293913509 464.37025226420093 208.78313668828906 464.37025226420093 C 211.54456043744304 464.37025226420093 213.78313668828906 466.608828515047 213.78313668828906 469.37025226420093 Z" fill-opacity="1"/><text fill="rgb(20,62,146)" stroke="none" font-family="geogebra-sans-serif, sans-serif" font-size="16px" font-style="normal" font-weight="bold" text-decoration="normal" x="517" y="469" text-anchor="start" dominant-baseline="alphabetic" fill-opacity="1">x</text><text fill="rgb(176,0,32)" stroke="none" font-family="geogebra-sans-serif, sans-serif" font-size="16px" font-style="normal" font-weight="bold" text-decoration="normal" x="319" y="469" text-anchor="start" dominant-baseline="alphabetic" fill-opacity="1">y</text><text fill="rgb(0,103,88)" stroke="none" font-family="geogebra-sans-serif, sans-serif" font-size="16px" font-style="normal" font-weight="bold" text-decoration="normal" x="319" y="73" text-anchor="start" dominant-baseline="alphabetic" fill-opacity="1">z</text></g></g></svg>