<svg version="1.1" xmlns="http://www.w3.org/2000/svg" xmlns:xlink="http://www.w3.org/1999/xlink" width="562" height="630"><defs><clipPath id="qQwHoZCsRLAO"><path fill="none" stroke="none" d=" M 0 0 L 562 0 L 562 630 L 0 630 L 0 0 Z"/></clipPath></defs><g transform="scale(1,1)" clip-path="url(#qQwHoZCsRLAO)"><g><path fill="rgb(110,109,115)" stroke="none" paint-order="stroke fill markers" fill-rule="evenodd" d=" M 435.2357628558193 469.61790922152124 L 345.60202794173404 469.61790922152124 L 136.4566464755351 469.61790922152124 L 226.09038138962038 469.61790922152124 Z" fill-opacity="0.09803921568627451"/><path fill="none" stroke="rgb(0,0,0)" paint-order="fill stroke markers" d=" M -5 265.89066589300717 L 568 411.7140191864202" stroke-opacity="0.6980392156862745" stroke-linecap="round" stroke-linejoin="round" stroke-miterlimit="10" stroke-width="2.5"/><path fill="rgb(176,0,32)" stroke="none" paint-order="stroke fill markers" d=" M 313.6630721227198 465.36790922152124 L 313.6630721227198 468.36790922152124 L 241.02933720863456 468.36790922152124 C 240.33898127134606 468.36790922152124 239.77933720863456 468.9275532842328 239.77933720863456 469.61790922152124 C 239.77933720863456 470.3082651588097 240.33898127134606 470.86790922152124 241.02933720863456 470.86790922152124 L 313.6630721227198 470.86790922152124 L 313.6630721227198 473.86790922152124 L 330.6630721227198 469.61790922152124 L 313.6630721227198 465.36790922152124 Z" fill-opacity="0.6980392156862745"/><path fill="rgb(0,103,88)" stroke="none" paint-order="stroke fill markers" d=" M 373.4188953987766 465.36790922152124 L 373.4188953987766 468.36790922152124 L 181.27351393257774 468.36790922152124 C 180.58315799528924 468.36790922152124 180.02351393257774 468.9275532842328 180.02351393257774 469.61790922152124 C 180.02351393257774 470.3082651588097 180.58315799528924 470.86790922152124 181.27351393257774 470.86790922152124 L 373.4188953987766 470.86790922152124 L 373.4188953987766 473.86790922152124 L 390.4188953987766 469.61790922152124 L 373.4188953987766 465.36790922152124 Z" fill-opacity="0.6980392156862745"/><path fill="rgb(21,101,192)" stroke="none" paint-order="stroke fill markers" d=" M 285.8462046656772 170.83879284123748 L 281.5962046656772 187.83879284123748 L 284.5962046656772 187.83879284123748 L 284.5962046656772 544.3126883165921 C 284.5962046656772 545.0030442538806 285.1558487283887 545.5626883165921 285.8462046656772 545.5626883165921 C 286.53656060296566 545.5626883165921 287.0962046656772 545.0030442538806 287.0962046656772 544.3126883165921 L 287.0962046656772 187.83879284123748 L 290.0962046656772 187.83879284123748 L 285.8462046656772 170.83879284123748 Z" fill-opacity="0.6980392156862745"/><text fill="rgb(21,101,192)" stroke="none" font-family="geogebra-sans-serif, sans-serif" font-size="16px" font-style="normal" font-weight="bold" text-decoration="normal" x="286" y="171" text-anchor="start" dominant-baseline="alphabetic" fill-opacity="1">z</text><text fill="rgb(176,0,32)" stroke="none" font-family="geogebra-sans-serif, sans-serif" font-size="16px" font-style="normal" font-weight="bold" text-decoration="normal" x="331" y="470" text-anchor="start" dominant-baseline="alphabetic" fill-opacity="1">x</text><text fill="rgb(0,103,88)" stroke="none" font-family="geogebra-sans-serif, sans-serif" font-size="16px" font-style="normal" font-weight="bold" text-decoration="normal" x="390" y="470" text-anchor="start" dominant-baseline="alphabetic" fill-opacity="1">y</text></g></g></svg>