<svg version="1.1" xmlns="http://www.w3.org/2000/svg" xmlns:xlink="http://www.w3.org/1999/xlink" width="638" height="630"><defs><clipPath id="FtKZPAKEiOZR"><path fill="none" stroke="none" d=" M 0 0 L 638 0 L 638 630 L 0 630 L 0 0 Z"/></clipPath></defs><g transform="scale(1,1)" clip-path="url(#FtKZPAKEiOZR)"><g><path fill="rgb(110,109,115)" stroke="none" paint-order="stroke fill markers" fill-rule="evenodd" d=" M 516.9452750047664 469.37025226420093 L 219.78892734244897 469.37025226420093 L 120.73681145500984 469.37025226420093 L 417.89315911732723 469.37025226420093 Z" fill-opacity="0.09803921568627451"/><path fill="none" stroke="rgb(28,28,31)" paint-order="fill stroke markers" d=" M 223.79103303487076 469.37025226420093 L 0 268.8696887306968" stroke-opacity="0.6980392156862745" stroke-linecap="round" stroke-linejoin="round" stroke-miterlimit="10" stroke-width="2.5"/><path fill="none" stroke="rgb(0,0,0)" paint-order="fill stroke markers" d=" M 223.79103303487076 469.37025226420093 L 639 841.3674262872579" stroke-opacity="0.6980392156862745" stroke-linejoin="round" stroke-miterlimit="10" stroke-width="2.5" stroke-dasharray="2.5,3"/><path fill="rgb(20,62,146)" stroke="none" paint-order="stroke fill markers" d=" M 351.3671011736077 465.12025226420093 L 351.3671011736077 468.12025226420093 L 269.3149852861685 468.12025226420093 C 268.62462934888003 468.12025226420093 268.0649852861685 468.67989632691246 268.0649852861685 469.37025226420093 C 268.0649852861685 470.0606082014894 268.62462934888003 470.62025226420093 269.3149852861685 470.62025226420093 L 351.3671011736077 470.62025226420093 L 351.3671011736077 473.62025226420093 L 368.3671011736077 469.37025226420093 L 351.3671011736077 465.12025226420093 Z" fill-opacity="0.6980392156862745"/><path fill="rgb(176,0,32)" stroke="none" paint-order="stroke fill markers" d=" M 450.4192170610468 465.12025226420093 L 450.4192170610468 468.12025226420093 L 170.26286939872938 468.12025226420093 C 169.57251346144088 468.12025226420093 169.01286939872938 468.67989632691246 169.01286939872938 469.37025226420093 C 169.01286939872938 470.0606082014894 169.57251346144088 470.62025226420093 170.26286939872938 470.62025226420093 L 450.4192170610468 470.62025226420093 L 450.4192170610468 473.62025226420093 L 467.4192170610468 469.37025226420093 L 450.4192170610468 465.12025226420093 Z" fill-opacity="0.6980392156862745"/><path fill="rgb(0,103,88)" stroke="none" paint-order="stroke fill markers" d=" M 318.8410432298881 73.16178871444441 L 314.5910432298881 90.16178871444441 L 317.5910432298881 90.16178871444441 L 317.5910432298881 568.4223681516401 C 317.5910432298881 569.1127240889285 318.1506872925996 569.6723681516401 318.8410432298881 569.6723681516401 C 319.5313991671766 569.6723681516401 320.0910432298881 569.1127240889285 320.0910432298881 568.4223681516401 L 320.0910432298881 90.16178871444441 L 323.0910432298881 90.16178871444441 L 318.8410432298881 73.16178871444441 Z" fill-opacity="0.6980392156862745"/><path fill="rgb(28,28,31)" stroke="none" paint-order="stroke fill markers" d=" M 228.79103303487076 469.37025226420093 C 228.79103303487076 472.1316760133549 226.55245678402474 474.37025226420093 223.79103303487076 474.37025226420093 C 221.0296092857168 474.37025226420093 218.79103303487076 472.1316760133549 218.79103303487076 469.37025226420093 C 218.79103303487076 466.608828515047 221.0296092857168 464.37025226420093 223.79103303487076 464.37025226420093 C 226.55245678402474 464.37025226420093 228.79103303487076 466.608828515047 228.79103303487076 469.37025226420093 Z" fill-opacity="1"/><text fill="rgb(20,62,146)" stroke="none" font-family="geogebra-sans-serif, sans-serif" font-size="16px" font-style="normal" font-weight="bold" text-decoration="normal" x="368" y="469" text-anchor="start" dominant-baseline="alphabetic" fill-opacity="1">x</text><text fill="rgb(176,0,32)" stroke="none" font-family="geogebra-sans-serif, sans-serif" font-size="16px" font-style="normal" font-weight="bold" text-decoration="normal" x="467" y="469" text-anchor="start" dominant-baseline="alphabetic" fill-opacity="1">y</text><text fill="rgb(0,103,88)" stroke="none" font-family="geogebra-sans-serif, sans-serif" font-size="16px" font-style="normal" font-weight="bold" text-decoration="normal" x="319" y="73" text-anchor="start" dominant-baseline="alphabetic" fill-opacity="1">z</text></g></g></svg>