<svg version="1.1" xmlns="http://www.w3.org/2000/svg" xmlns:xlink="http://www.w3.org/1999/xlink" width="562" height="630"><defs><clipPath id="LMyggoTrShFJ"><path fill="none" stroke="none" d=" M 0 0 L 562 0 L 562 630 L 0 630 L 0 0 Z"/></clipPath></defs><g transform="scale(1,1)" clip-path="url(#LMyggoTrShFJ)"><g><path fill="rgb(110,109,115)" stroke="none" paint-order="stroke fill markers" fill-rule="evenodd" d=" M 435.2357628558193 469.61790922152124 L 405.3578512177909 469.61790922152124 L 136.4566464755351 469.61790922152124 L 166.3345581135635 469.61790922152124 Z" fill-opacity="0.09803921568627451"/><path fill="none" stroke="rgb(0,0,0)" paint-order="fill stroke markers" d=" M -5 302.8995392411847 L 568 375.81121588789114" stroke-opacity="0.6980392156862745" stroke-linecap="round" stroke-linejoin="round" stroke-miterlimit="10" stroke-width="2.5"/><path fill="rgb(176,0,32)" stroke="none" paint-order="stroke fill markers" d=" M 283.7851604846914 465.36790922152124 L 283.7851604846914 468.36790922152124 L 270.907248846663 468.36790922152124 C 270.2168929093745 468.36790922152124 269.657248846663 468.9275532842328 269.657248846663 469.61790922152124 C 269.657248846663 470.3082651588097 270.2168929093745 470.86790922152124 270.907248846663 470.86790922152124 L 283.7851604846914 470.86790922152124 L 283.7851604846914 473.86790922152124 L 300.7851604846914 469.61790922152124 L 283.7851604846914 465.36790922152124 Z" fill-opacity="0.6980392156862745"/><path fill="rgb(0,103,88)" stroke="none" paint-order="stroke fill markers" d=" M 403.2968070368051 465.36790922152124 L 403.2968070368051 468.36790922152124 L 151.3956022945493 468.36790922152124 C 150.7052463572608 468.36790922152124 150.1456022945493 468.9275532842328 150.1456022945493 469.61790922152124 C 150.1456022945493 470.3082651588097 150.7052463572608 470.86790922152124 151.3956022945493 470.86790922152124 L 403.2968070368051 470.86790922152124 L 403.2968070368051 473.86790922152124 L 420.2968070368051 469.61790922152124 L 403.2968070368051 465.36790922152124 Z" fill-opacity="0.6980392156862745"/><path fill="rgb(21,101,192)" stroke="none" paint-order="stroke fill markers" d=" M 285.8462046656772 170.83879284123748 L 281.5962046656772 187.83879284123748 L 284.5962046656772 187.83879284123748 L 284.5962046656772 544.3126883165921 C 284.5962046656772 545.0030442538806 285.1558487283887 545.5626883165921 285.8462046656772 545.5626883165921 C 286.53656060296566 545.5626883165921 287.0962046656772 545.0030442538806 287.0962046656772 544.3126883165921 L 287.0962046656772 187.83879284123748 L 290.0962046656772 187.83879284123748 L 285.8462046656772 170.83879284123748 Z" fill-opacity="0.6980392156862745"/><text fill="rgb(21,101,192)" stroke="none" font-family="geogebra-sans-serif, sans-serif" font-size="16px" font-style="normal" font-weight="bold" text-decoration="normal" x="286" y="171" text-anchor="start" dominant-baseline="alphabetic" fill-opacity="1">z</text><text fill="rgb(176,0,32)" stroke="none" font-family="geogebra-sans-serif, sans-serif" font-size="16px" font-style="normal" font-weight="bold" text-decoration="normal" x="301" y="470" text-anchor="start" dominant-baseline="alphabetic" fill-opacity="1">x</text><text fill="rgb(0,103,88)" stroke="none" font-family="geogebra-sans-serif, sans-serif" font-size="16px" font-style="normal" font-weight="bold" text-decoration="normal" x="420" y="470" text-anchor="start" dominant-baseline="alphabetic" fill-opacity="1">y</text></g></g></svg>