<svg version="1.1" xmlns="http://www.w3.org/2000/svg" xmlns:xlink="http://www.w3.org/1999/xlink" width="638" height="630"><defs><clipPath id="kvSHLUWBJAVz"><path fill="none" stroke="none" d=" M 0 0 L 638 0 L 638 630 L 0 630 L 0 0 Z"/></clipPath></defs><g transform="scale(1,1)" clip-path="url(#kvSHLUWBJAVz)"><g><path fill="rgb(110,109,115)" stroke="none" paint-order="stroke fill markers" fill-rule="evenodd" d=" M 516.9452750047664 469.37025226420093 L 259.4097736974246 469.37025226420093 L 120.73681145500984 469.37025226420093 L 378.2723127623516 469.37025226420093 Z" fill-opacity="0.09803921568627451"/><path fill="none" stroke="rgb(28,28,31)" paint-order="fill stroke markers" d=" M 221.78998018865985 469.37025226420093 L -172.86383274205156 0" stroke-opacity="0.6980392156862745" stroke-linecap="round" stroke-linejoin="round" stroke-miterlimit="10" stroke-width="2.5"/><path fill="none" stroke="rgb(0,0,0)" paint-order="fill stroke markers" d=" M 221.78998018865985 469.37025226420093 L 357.69078753479096 631" stroke-opacity="0.6980392156862745" stroke-linejoin="round" stroke-miterlimit="10" stroke-width="2.5" stroke-dasharray="2.5,3"/><path fill="rgb(20,62,146)" stroke="none" paint-order="stroke fill markers" d=" M 371.1775243510955 465.12025226420093 L 371.1775243510955 468.12025226420093 L 249.50456210868072 468.12025226420093 C 248.81420617139221 468.12025226420093 248.25456210868072 468.67989632691246 248.25456210868072 469.37025226420093 C 248.25456210868072 470.0606082014894 248.81420617139221 470.62025226420093 249.50456210868072 470.62025226420093 L 371.1775243510955 470.62025226420093 L 371.1775243510955 473.62025226420093 L 388.1775243510955 469.37025226420093 L 371.1775243510955 465.12025226420093 Z" fill-opacity="0.6980392156862745"/><path fill="rgb(176,0,32)" stroke="none" paint-order="stroke fill markers" d=" M 430.608793883559 465.12025226420093 L 430.608793883559 468.12025226420093 L 190.07329257621723 468.12025226420093 C 189.38293663892873 468.12025226420093 188.82329257621723 468.67989632691246 188.82329257621723 469.37025226420093 C 188.82329257621723 470.0606082014894 189.38293663892873 470.62025226420093 190.07329257621723 470.62025226420093 L 430.608793883559 470.62025226420093 L 430.608793883559 473.62025226420093 L 447.608793883559 469.37025226420093 L 430.608793883559 465.12025226420093 Z" fill-opacity="0.6980392156862745"/><path fill="rgb(0,103,88)" stroke="none" paint-order="stroke fill markers" d=" M 318.8410432298881 73.16178871444441 L 314.5910432298881 90.16178871444441 L 317.5910432298881 90.16178871444441 L 317.5910432298881 568.4223681516401 C 317.5910432298881 569.1127240889285 318.1506872925996 569.6723681516401 318.8410432298881 569.6723681516401 C 319.5313991671766 569.6723681516401 320.0910432298881 569.1127240889285 320.0910432298881 568.4223681516401 L 320.0910432298881 90.16178871444441 L 323.0910432298881 90.16178871444441 L 318.8410432298881 73.16178871444441 Z" fill-opacity="0.6980392156862745"/><path fill="rgb(28,28,31)" stroke="none" paint-order="stroke fill markers" d=" M 226.78998018865985 469.37025226420093 C 226.78998018865985 472.1316760133549 224.55140393781383 474.37025226420093 221.78998018865985 474.37025226420093 C 219.02855643950588 474.37025226420093 216.78998018865985 472.1316760133549 216.78998018865985 469.37025226420093 C 216.78998018865985 466.608828515047 219.02855643950588 464.37025226420093 221.78998018865985 464.37025226420093 C 224.55140393781383 464.37025226420093 226.78998018865985 466.608828515047 226.78998018865985 469.37025226420093 Z" fill-opacity="1"/><text fill="rgb(20,62,146)" stroke="none" font-family="geogebra-sans-serif, sans-serif" font-size="16px" font-style="normal" font-weight="bold" text-decoration="normal" x="388" y="469" text-anchor="start" dominant-baseline="alphabetic" fill-opacity="1">x</text><text fill="rgb(176,0,32)" stroke="none" font-family="geogebra-sans-serif, sans-serif" font-size="16px" font-style="normal" font-weight="bold" text-decoration="normal" x="448" y="469" text-anchor="start" dominant-baseline="alphabetic" fill-opacity="1">y</text><text fill="rgb(0,103,88)" stroke="none" font-family="geogebra-sans-serif, sans-serif" font-size="16px" font-style="normal" font-weight="bold" text-decoration="normal" x="319" y="73" text-anchor="start" dominant-baseline="alphabetic" fill-opacity="1">z</text></g></g></svg>