<svg version="1.1" xmlns="http://www.w3.org/2000/svg" xmlns:xlink="http://www.w3.org/1999/xlink" width="638" height="630"><defs><clipPath id="SzmaQZIZdufk"><path fill="none" stroke="none" d=" M 0 0 L 638 0 L 638 630 L 0 630 L 0 0 Z"/></clipPath></defs><g transform="scale(1,1)" clip-path="url(#SzmaQZIZdufk)"><g><path fill="rgb(110,109,115)" stroke="none" paint-order="stroke fill markers" fill-rule="evenodd" d=" M 516.9452750047664 469.37025226420093 L 497.13485182727857 469.37025226420093 L 120.73681145500984 469.37025226420093 L 140.54723463249766 469.37025226420093 Z" fill-opacity="0.09803921568627451"/><path fill="none" stroke="rgb(28,28,31)" paint-order="fill stroke markers" d=" M 209.78366311139453 469.37025226420093 L 312.20387485254685 0" stroke-opacity="0.6980392156862745" stroke-linecap="round" stroke-linejoin="round" stroke-miterlimit="10" stroke-width="2.5"/><path fill="none" stroke="rgb(0,0,0)" paint-order="fill stroke markers" d=" M 209.78366311139453 469.37025226420093 L 174.51480466347672 631" stroke-opacity="0.6980392156862745" stroke-linejoin="round" stroke-miterlimit="10" stroke-width="2.5" stroke-dasharray="2.5,3"/><path fill="rgb(20,62,146)" stroke="none" paint-order="stroke fill markers" d=" M 490.04006341602246 465.12025226420093 L 490.04006341602246 468.12025226420093 L 130.64202304375377 468.12025226420093 C 129.95166710646527 468.12025226420093 129.39202304375377 468.67989632691246 129.39202304375377 469.37025226420093 C 129.39202304375377 470.0606082014894 129.95166710646527 470.62025226420093 130.64202304375377 470.62025226420093 L 490.04006341602246 470.62025226420093 L 490.04006341602246 473.62025226420093 L 507.04006341602246 469.37025226420093 L 490.04006341602246 465.12025226420093 Z" fill-opacity="0.6980392156862745"/><path fill="rgb(176,0,32)" stroke="none" paint-order="stroke fill markers" d=" M 311.746254818632 465.12025226420093 L 311.746254818632 468.12025226420093 L 308.9358316411442 468.12025226420093 C 308.24547570385573 468.12025226420093 307.6858316411442 468.67989632691246 307.6858316411442 469.37025226420093 C 307.6858316411442 470.0606082014894 308.24547570385573 470.62025226420093 308.9358316411442 470.62025226420093 L 311.746254818632 470.62025226420093 L 311.746254818632 473.62025226420093 L 328.746254818632 469.37025226420093 L 311.746254818632 465.12025226420093 Z" fill-opacity="0.6980392156862745"/><path fill="rgb(0,103,88)" stroke="none" paint-order="stroke fill markers" d=" M 318.8410432298881 73.16178871444441 L 314.5910432298881 90.16178871444441 L 317.5910432298881 90.16178871444441 L 317.5910432298881 568.4223681516401 C 317.5910432298881 569.1127240889285 318.1506872925996 569.6723681516401 318.8410432298881 569.6723681516401 C 319.5313991671766 569.6723681516401 320.0910432298881 569.1127240889285 320.0910432298881 568.4223681516401 L 320.0910432298881 90.16178871444441 L 323.0910432298881 90.16178871444441 L 318.8410432298881 73.16178871444441 Z" fill-opacity="0.6980392156862745"/><path fill="rgb(28,28,31)" stroke="none" paint-order="stroke fill markers" d=" M 214.78366311139453 469.37025226420093 C 214.78366311139453 472.1316760133549 212.5450868605485 474.37025226420093 209.78366311139453 474.37025226420093 C 207.02223936224055 474.37025226420093 204.78366311139453 472.1316760133549 204.78366311139453 469.37025226420093 C 204.78366311139453 466.608828515047 207.02223936224055 464.37025226420093 209.78366311139453 464.37025226420093 C 212.5450868605485 464.37025226420093 214.78366311139453 466.608828515047 214.78366311139453 469.37025226420093 Z" fill-opacity="1"/><text fill="rgb(20,62,146)" stroke="none" font-family="geogebra-sans-serif, sans-serif" font-size="16px" font-style="normal" font-weight="bold" text-decoration="normal" x="507" y="469" text-anchor="start" dominant-baseline="alphabetic" fill-opacity="1">x</text><text fill="rgb(176,0,32)" stroke="none" font-family="geogebra-sans-serif, sans-serif" font-size="16px" font-style="normal" font-weight="bold" text-decoration="normal" x="329" y="469" text-anchor="start" dominant-baseline="alphabetic" fill-opacity="1">y</text><text fill="rgb(0,103,88)" stroke="none" font-family="geogebra-sans-serif, sans-serif" font-size="16px" font-style="normal" font-weight="bold" text-decoration="normal" x="319" y="73" text-anchor="start" dominant-baseline="alphabetic" fill-opacity="1">z</text></g></g></svg>