<svg version="1.1" xmlns="http://www.w3.org/2000/svg" xmlns:xlink="http://www.w3.org/1999/xlink" width="638" height="630"><defs><clipPath id="XmBtyvsqPfTx"><path fill="none" stroke="none" d=" M 0 0 L 638 0 L 638 630 L 0 630 L 0 0 Z"/></clipPath></defs><g transform="scale(1,1)" clip-path="url(#XmBtyvsqPfTx)"><g><path fill="rgb(110,109,115)" stroke="none" paint-order="stroke fill markers" fill-rule="evenodd" d=" M 516.9452750047664 469.37025226420093 L 279.22019687491246 469.37025226420093 L 120.73681145500984 469.37025226420093 L 358.46188958486374 469.37025226420093 Z" fill-opacity="0.09803921568627451"/><path fill="none" stroke="rgb(28,28,31)" paint-order="fill stroke markers" d=" M 220.7894537655544 469.37025226420093 L -116.16826701574428 0" stroke-opacity="0.6980392156862745" stroke-linecap="round" stroke-linejoin="round" stroke-miterlimit="10" stroke-width="2.5"/><path fill="none" stroke="rgb(0,0,0)" paint-order="fill stroke markers" d=" M 220.7894537655544 469.37025226420093 L 336.82235347487625 631" stroke-opacity="0.6980392156862745" stroke-linejoin="round" stroke-miterlimit="10" stroke-width="2.5" stroke-dasharray="2.5,3"/><path fill="rgb(20,62,146)" stroke="none" paint-order="stroke fill markers" d=" M 381.08273593983944 465.12025226420093 L 381.08273593983944 468.12025226420093 L 239.59935051993676 468.12025226420093 C 238.90899458264826 468.12025226420093 238.34935051993676 468.67989632691246 238.34935051993676 469.37025226420093 C 238.34935051993676 470.0606082014894 238.90899458264826 470.62025226420093 239.59935051993676 470.62025226420093 L 381.08273593983944 470.62025226420093 L 381.08273593983944 473.62025226420093 L 398.08273593983944 469.37025226420093 L 381.08273593983944 465.12025226420093 Z" fill-opacity="0.6980392156862745"/><path fill="rgb(176,0,32)" stroke="none" paint-order="stroke fill markers" d=" M 420.7035822948151 465.12025226420093 L 420.7035822948151 468.12025226420093 L 199.97850416496115 468.12025226420093 C 199.28814822767265 468.12025226420093 198.72850416496115 468.67989632691246 198.72850416496115 469.37025226420093 C 198.72850416496115 470.0606082014894 199.28814822767265 470.62025226420093 199.97850416496115 470.62025226420093 L 420.7035822948151 470.62025226420093 L 420.7035822948151 473.62025226420093 L 437.7035822948151 469.37025226420093 L 420.7035822948151 465.12025226420093 Z" fill-opacity="0.6980392156862745"/><path fill="rgb(0,103,88)" stroke="none" paint-order="stroke fill markers" d=" M 318.8410432298881 73.16178871444441 L 314.5910432298881 90.16178871444441 L 317.5910432298881 90.16178871444441 L 317.5910432298881 568.4223681516401 C 317.5910432298881 569.1127240889285 318.1506872925996 569.6723681516401 318.8410432298881 569.6723681516401 C 319.5313991671766 569.6723681516401 320.0910432298881 569.1127240889285 320.0910432298881 568.4223681516401 L 320.0910432298881 90.16178871444441 L 323.0910432298881 90.16178871444441 L 318.8410432298881 73.16178871444441 Z" fill-opacity="0.6980392156862745"/><path fill="rgb(28,28,31)" stroke="none" paint-order="stroke fill markers" d=" M 225.7894537655544 469.37025226420093 C 225.7894537655544 472.1316760133549 223.5508775147084 474.37025226420093 220.7894537655544 474.37025226420093 C 218.02803001640044 474.37025226420093 215.7894537655544 472.1316760133549 215.7894537655544 469.37025226420093 C 215.7894537655544 466.608828515047 218.02803001640044 464.37025226420093 220.7894537655544 464.37025226420093 C 223.5508775147084 464.37025226420093 225.7894537655544 466.608828515047 225.7894537655544 469.37025226420093 Z" fill-opacity="1"/><text fill="rgb(20,62,146)" stroke="none" font-family="geogebra-sans-serif, sans-serif" font-size="16px" font-style="normal" font-weight="bold" text-decoration="normal" x="398" y="469" text-anchor="start" dominant-baseline="alphabetic" fill-opacity="1">x</text><text fill="rgb(176,0,32)" stroke="none" font-family="geogebra-sans-serif, sans-serif" font-size="16px" font-style="normal" font-weight="bold" text-decoration="normal" x="438" y="469" text-anchor="start" dominant-baseline="alphabetic" fill-opacity="1">y</text><text fill="rgb(0,103,88)" stroke="none" font-family="geogebra-sans-serif, sans-serif" font-size="16px" font-style="normal" font-weight="bold" text-decoration="normal" x="319" y="73" text-anchor="start" dominant-baseline="alphabetic" fill-opacity="1">z</text></g></g></svg>