<svg version="1.1" xmlns="http://www.w3.org/2000/svg" xmlns:xlink="http://www.w3.org/1999/xlink" width="800" height="630"><defs><clipPath id="qqwMWypgWbyd"><path fill="none" stroke="none" d=" M 0 0 L 800 0 L 800 630 L 0 630 L 0 0 Z"/></clipPath></defs><g transform="scale(1,1)" clip-path="url(#qqwMWypgWbyd)"><g><path fill="none" stroke="rgb(28,28,31)" paint-order="fill stroke markers" d=" M 82.5 2.5 L 82.5 630.5" stroke-opacity="1" stroke-miterlimit="10"/><path fill="none" stroke="rgb(28,28,31)" paint-order="fill stroke markers" d=" M 82.5 1.5 L 78.5 5.5" stroke-opacity="1" stroke-miterlimit="10"/><path fill="none" stroke="rgb(28,28,31)" paint-order="fill stroke markers" d=" M 82.5 1.5 L 86.5 5.5" stroke-opacity="1" stroke-miterlimit="10"/><path fill="none" stroke="rgb(28,28,31)" paint-order="fill stroke markers" d=" M 0.5 574.5 L 798.5 574.5" stroke-opacity="1" stroke-miterlimit="10"/><path fill="none" stroke="rgb(28,28,31)" paint-order="fill stroke markers" d=" M 799.5 574.5 L 795.5 570.5" stroke-opacity="1" stroke-miterlimit="10"/><path fill="none" stroke="rgb(28,28,31)" paint-order="fill stroke markers" d=" M 799.5 574.5 L 795.5 578.5" stroke-opacity="1" stroke-miterlimit="10"/><path fill="none" stroke="rgb(28,28,31)" paint-order="fill stroke markers" d=" M 12.5 574.5 L 12.5 577.5" stroke-opacity="1" stroke-miterlimit="10"/><path fill="none" stroke="rgb(28,28,31)" paint-order="fill stroke markers" d=" M 82.5 574.5 L 82.5 577.5" stroke-opacity="1" stroke-miterlimit="10"/><path fill="none" stroke="rgb(28,28,31)" paint-order="fill stroke markers" d=" M 152.5 574.5 L 152.5 577.5" stroke-opacity="1" stroke-miterlimit="10"/><path fill="none" stroke="rgb(28,28,31)" paint-order="fill stroke markers" d=" M 222.5 574.5 L 222.5 577.5" stroke-opacity="1" stroke-miterlimit="10"/><path fill="none" stroke="rgb(28,28,31)" paint-order="fill stroke markers" d=" M 292.5 574.5 L 292.5 577.5" stroke-opacity="1" stroke-miterlimit="10"/><path fill="none" stroke="rgb(28,28,31)" paint-order="fill stroke markers" d=" M 362.5 574.5 L 362.5 577.5" stroke-opacity="1" stroke-miterlimit="10"/><path fill="none" stroke="rgb(28,28,31)" paint-order="fill stroke markers" d=" M 432.5 574.5 L 432.5 577.5" stroke-opacity="1" stroke-miterlimit="10"/><path fill="none" stroke="rgb(28,28,31)" paint-order="fill stroke markers" d=" M 502.5 574.5 L 502.5 577.5" stroke-opacity="1" stroke-miterlimit="10"/><path fill="none" stroke="rgb(28,28,31)" paint-order="fill stroke markers" d=" M 572.5 574.5 L 572.5 577.5" stroke-opacity="1" stroke-miterlimit="10"/><path fill="none" stroke="rgb(28,28,31)" paint-order="fill stroke markers" d=" M 642.5 574.5 L 642.5 577.5" stroke-opacity="1" stroke-miterlimit="10"/><path fill="none" stroke="rgb(28,28,31)" paint-order="fill stroke markers" d=" M 713.5 574.5 L 713.5 577.5" stroke-opacity="1" stroke-miterlimit="10"/><path fill="none" stroke="rgb(28,28,31)" paint-order="fill stroke markers" d=" M 783.5 574.5 L 783.5 577.5" stroke-opacity="1" stroke-miterlimit="10"/><path fill="none" stroke="rgb(28,28,31)" paint-order="fill stroke markers" d=" M 79.5 504.5 L 82.5 504.5" stroke-opacity="1" stroke-miterlimit="10"/><path fill="none" stroke="rgb(28,28,31)" paint-order="fill stroke markers" d=" M 79.5 434.5 L 82.5 434.5" stroke-opacity="1" stroke-miterlimit="10"/><path fill="none" stroke="rgb(28,28,31)" paint-order="fill stroke markers" d=" M 79.5 364.5 L 82.5 364.5" stroke-opacity="1" stroke-miterlimit="10"/><path fill="none" stroke="rgb(28,28,31)" paint-order="fill stroke markers" d=" M 79.5 293.5 L 82.5 293.5" stroke-opacity="1" stroke-miterlimit="10"/><path fill="none" stroke="rgb(28,28,31)" paint-order="fill stroke markers" d=" M 79.5 223.5 L 82.5 223.5" stroke-opacity="1" stroke-miterlimit="10"/><path fill="none" stroke="rgb(28,28,31)" paint-order="fill stroke markers" d=" M 79.5 153.5 L 82.5 153.5" stroke-opacity="1" stroke-miterlimit="10"/><path fill="none" stroke="rgb(28,28,31)" paint-order="fill stroke markers" d=" M 79.5 83.5 L 82.5 83.5" stroke-opacity="1" stroke-miterlimit="10"/><path fill="none" stroke="rgb(28,28,31)" paint-order="fill stroke markers" d=" M 79.5 13.5 L 82.5 13.5" stroke-opacity="1" stroke-miterlimit="10"/><path fill="rgb(0,103,88)" stroke="none" paint-order="stroke fill markers" fill-rule="evenodd" d=" M 362.5562270580871 434.11554334026215 L 362.5562270580871 434.11554334026215 L 642.9851312829246 434.11554334026215 Z" fill-opacity="0.09803921568627451"/><path fill="rgb(0,0,0)" stroke="none" paint-order="stroke fill markers" d=" M 252.3417749456683 574.3299954526809 C 252.3417749456683 570.5134125566906 251.61351897532944 566.7318834198162 250.19607567222607 563.1882751620578 L 222.3417749456683 574.3299954526809 Z" fill-opacity="0.09803921568627451"/><path fill="none" stroke="rgb(0,0,0)" paint-order="fill stroke markers" d=" M 252.3417749456683 574.3299954526809 C 252.3417749456683 570.5134125566906 251.61351897532944 566.7318834198162 250.19607567222607 563.1882751620578 L 222.3417749456683 574.3299954526809 Z" stroke-opacity="0.6" stroke-linecap="round" stroke-linejoin="round" stroke-miterlimit="10" stroke-width="2.5"/><path fill="rgb(0,0,0)" stroke="none" paint-order="stroke fill markers" d=" M 392.5562270580871 434.11554334026215 C 392.5562270580871 430.29896044427176 391.82797108774827 426.5174313073975 390.41052778464484 422.973823049639 L 362.5562270580871 434.11554334026215 Z" fill-opacity="0.09803921568627451"/><path fill="none" stroke="rgb(0,0,0)" paint-order="fill stroke markers" d=" M 392.5562270580871 434.11554334026215 C 392.5562270580871 430.29896044427176 391.82797108774827 426.5174313073975 390.41052778464484 422.973823049639 L 362.5562270580871 434.11554334026215 Z" stroke-opacity="0.6" stroke-linecap="round" stroke-linejoin="round" stroke-miterlimit="10" stroke-width="2.5"/><path fill="none" stroke="rgb(21,101,192)" paint-order="fill stroke markers" d=" M 1.0000000000000142 795.6717703983492 L 1.0000000000000142 796.6717703983492 L 1.0000000000000142 795.6717703983492 L 2.0000000000000284 794.6717703983492 L 2.0000000000000284 794.6717703983492 L 3.0000000000000284 793.6717703983492 L 3.0000000000000284 793.6717703983492 L 4.000000000000043 792.6717703983492 L 4.000000000000043 792.6717703983492 L 5 791.6717703983493 L 5 791.6717703983493 L 6 790.6717703983492 L 6 790.6717703983492 L 7.000000000000014 789.6717703983492 L 7.000000000000014 789.6717703983492 L 8.000000000000028 788.6717703983492 L 8.000000000000028 788.6717703983492 L 9.000000000000043 787.6717703983492 L 9.000000000000043 787.6717703983492 L 10.000000000000043 786.6717703983492 L 10.000000000000043 786.6717703983492 L 11 785.6717703983493 L 11 785.6717703983493 L 12.000000000000014 784.6717703983492 L 12.000000000000014 784.6717703983492 L 13.000000000000014 783.6717703983492 L 13.000000000000014 783.6717703983492 L 14.000000000000028 782.6717703983492 L 14.000000000000028 782.6717703983492 L 15.000000000000043 781.6717703983492 L 15.000000000000043 781.6717703983492 L 16.000000000000057 780.6717703983492 L 16.000000000000057 780.6717703983492 L 17 779.6717703983492 L 17 779.6717703983492 L 18.000000000000014 778.6717703983492 L 18.000000000000014 778.6717703983492 L 19.00000000000002 777.6717703983492 L 19.00000000000002 777.6717703983492 L 20.000000000000036 776.6717703983492 L 20.000000000000036 776.6717703983492 L 21.000000000000043 775.6717703983492 L 21.000000000000043 775.6717703983492 L 21.999999999999993 774.6717703983493 L 21.999999999999993 774.6717703983493 L 23.000000000000007 773.6717703983492 L 23.000000000000007 773.6717703983492 L 24.000000000000014 772.6717703983492 L 24.000000000000014 772.6717703983492 L 25.00000000000003 771.6717703983492 L 25.00000000000003 771.6717703983492 L 26.000000000000036 770.6717703983492 L 26.000000000000036 770.6717703983492 L 27.00000000000005 769.6717703983492 L 27.00000000000005 769.6717703983492 L 27.999999999999993 768.6717703983493 L 27.999999999999993 768.6717703983493 L 29.000000000000007 767.6717703983492 L 29.000000000000007 767.6717703983492 L 30.00000000000002 766.6717703983492 L 30.00000000000002 766.6717703983492 L 31.00000000000003 765.6717703983492 L 31.00000000000003 765.6717703983492 L 32.00000000000004 764.6717703983492 L 32.00000000000004 764.6717703983492 L 33.00000000000005 763.6717703983492 L 33.00000000000005 763.6717703983492 L 34 762.6717703983493 L 34 762.6717703983493 L 35.00000000000001 761.6717703983492 L 35.00000000000001 761.6717703983492 L 36.00000000000002 760.6717703983492 L 36.00000000000002 760.6717703983492 L 37.000000000000036 759.6717703983492 L 37.000000000000036 759.6717703983492 L 38.00000000000004 758.6717703983492 L 38.00000000000004 758.6717703983492 L 38.99999999999999 757.6717703983493 L 38.99999999999999 757.6717703983493 L 40 756.6717703983492 L 40 756.6717703983492 L 41.000000000000014 755.6717703983492 L 41.000000000000014 755.6717703983492 L 42.00000000000002 754.6717703983492 L 42.00000000000002 754.6717703983492 L 43.000000000000036 753.6717703983492 L 43.000000000000036 753.6717703983492 L 44.00000000000005 752.6717703983492 L 44.00000000000005 752.6717703983492 L 44.99999999999999 751.6717703983493 L 44.99999999999999 751.6717703983493 L 46.00000000000001 750.6717703983492 L 46.00000000000001 750.6717703983492 L 47.000000000000014 749.6717703983492 L 47.000000000000014 749.6717703983492 L 48.00000000000003 748.6717703983492 L 48.00000000000003 748.6717703983492 L 49.00000000000004 747.6717703983492 L 49.00000000000004 747.6717703983492 L 50.00000000000005 746.6717703983492 L 50.00000000000005 746.6717703983492 L 51 745.6717703983493 L 51 745.6717703983493 L 52.000000000000014 744.6717703983492 L 52.000000000000014 744.6717703983492 L 53.00000000000002 743.6717703983492 L 53.00000000000002 743.6717703983492 L 54.00000000000003 742.6717703983492 L 54.00000000000003 742.6717703983492 L 55.00000000000004 741.6717703983492 L 55.00000000000004 741.6717703983492 L 55.99999999999999 740.6717703983493 L 55.99999999999999 740.6717703983493 L 57 739.6717703983492 L 57 739.6717703983492 L 58.000000000000014 738.6717703983492 L 58.000000000000014 738.6717703983492 L 59.00000000000003 737.6717703983492 L 59.00000000000003 737.6717703983492 L 60.000000000000036 736.6717703983492 L 60.000000000000036 736.6717703983492 L 61.00000000000004 735.6717703983492 L 61.00000000000004 735.6717703983492 L 61.99999999999999 734.6717703983493 L 61.99999999999999 734.6717703983493 L 63.00000000000001 733.6717703983492 L 63.00000000000001 733.6717703983492 L 64.00000000000001 732.6717703983492 L 64.00000000000001 732.6717703983492 L 65.00000000000003 731.6717703983492 L 65.00000000000003 731.6717703983492 L 66.00000000000004 730.6717703983492 L 66.00000000000004 730.6717703983492 L 67.00000000000006 729.6717703983492 L 67.00000000000006 729.6717703983492 L 68 728.6717703983493 L 68 728.6717703983493 L 69.00000000000001 727.6717703983492 L 69.00000000000001 727.6717703983492 L 70.00000000000001 726.6717703983492 L 70.00000000000001 726.6717703983492 L 71.00000000000003 725.6717703983492 L 71.00000000000003 725.6717703983492 L 72.00000000000004 724.6717703983492 L 72.00000000000004 724.6717703983492 L 72.99999999999999 723.6717703983493 L 72.99999999999999 723.6717703983493 L 74 722.6717703983492 L 74 722.6717703983492 L 75.00000000000001 721.6717703983492 L 75.00000000000001 721.6717703983492 L 76.00000000000003 720.6717703983492 L 76.00000000000003 720.6717703983492 L 77.00000000000003 719.6717703983492 L 77.00000000000003 719.6717703983492 L 78.00000000000004 718.6717703983492 L 78.00000000000004 718.6717703983492 L 79 717.6717703983493 L 79 717.6717703983493 L 80 716.6717703983492 L 80 716.6717703983492 L 81.00000000000001 715.6717703983492 L 81.00000000000001 715.6717703983492 L 82.00000000000003 714.6717703983492 L 82.00000000000003 714.6717703983492 L 83.00000000000004 713.6717703983492 L 83.00000000000004 713.6717703983492 L 84.00000000000004 712.6717703983492 L 84.00000000000004 712.6717703983492 L 85 711.6717703983493 L 85 711.6717703983493 L 86.00000000000001 710.6717703983492 L 86.00000000000001 710.6717703983492 L 87.00000000000001 709.6717703983492 L 87.00000000000001 709.6717703983492 L 88.00000000000003 708.6717703983492 L 88.00000000000003 708.6717703983492 L 89.00000000000004 707.6717703983492 L 89.00000000000004 707.6717703983492 L 89.99999999999999 706.6717703983493 L 89.99999999999999 706.6717703983493 L 91 705.6717703983492 L 91 705.6717703983492 L 92.00000000000001 704.6717703983492 L 92.00000000000001 704.6717703983492 L 93.00000000000003 703.6717703983492 L 93.00000000000003 703.6717703983492 L 94.00000000000003 702.6717703983492 L 94.00000000000003 702.6717703983492 L 95.00000000000004 701.6717703983492 L 95.00000000000004 701.6717703983492 L 96 700.6717703983493 L 96 700.6717703983493 L 97 699.6717703983492 L 97 699.6717703983492 L 98.00000000000001 698.6717703983492 L 98.00000000000001 698.6717703983492 L 99.00000000000003 697.6717703983492 L 99.00000000000003 697.6717703983492 L 100.00000000000003 696.6717703983492 L 100.00000000000003 696.6717703983492 L 101.00000000000004 695.6717703983492 L 101.00000000000004 695.6717703983492 L 102 694.6717703983492 L 102 694.6717703983492 L 103 693.6717703983492 L 103 693.6717703983492 L 104.00000000000001 692.6717703983492 L 104.00000000000001 692.6717703983492 L 105.00000000000003 691.6717703983492 L 105.00000000000003 691.6717703983492 L 106.00000000000004 690.6717703983492 L 106.00000000000004 690.6717703983492 L 107.00000000000006 689.6717703983492 L 107.00000000000006 689.6717703983492 L 108 688.6717703983492 L 108 688.6717703983492 L 109.00000000000001 687.6717703983492 L 109.00000000000001 687.6717703983492 L 110.00000000000003 686.6717703983492 L 110.00000000000003 686.6717703983492 L 111.00000000000003 685.6717703983492 L 111.00000000000003 685.6717703983492 L 112.00000000000004 684.6717703983492 L 112.00000000000004 684.6717703983492 L 113 683.6717703983493 L 113 683.6717703983493 L 114 682.6717703983492 L 114 682.6717703983492 L 115.00000000000001 681.6717703983492 L 115.00000000000001 681.6717703983492 L 116.00000000000003 680.6717703983492 L 116.00000000000003 680.6717703983492 L 117.00000000000003 679.6717703983492 L 117.00000000000003 679.6717703983492 L 118.00000000000006 678.6717703983492 L 118.00000000000006 678.6717703983492 L 119 677.6717703983492 L 119 677.6717703983492 L 120 676.6717703983492 L 120 676.6717703983492 L 121.00000000000001 675.6717703983492 L 121.00000000000001 675.6717703983492 L 122.00000000000003 674.6717703983492 L 122.00000000000003 674.6717703983492 L 123 673.6717703983492 L 123 673.6717703983492 L 124.00000000000003 672.6717703983492 L 124.00000000000003 672.6717703983492 L 125.00000000000003 671.6717703983492 L 125.00000000000003 671.6717703983492 L 126 670.6717703983492 L 126 670.6717703983492 L 127.00000000000003 669.6717703983492 L 127.00000000000003 669.6717703983492 L 128.00000000000003 668.6717703983492 L 128.00000000000003 668.6717703983492 L 129 667.6717703983492 L 129 667.6717703983492 L 130.00000000000003 666.6717703983492 L 130.00000000000003 666.6717703983492 L 131.00000000000003 665.6717703983492 L 131.00000000000003 665.6717703983492 L 132 664.6717703983492 L 132 664.6717703983492 L 133.00000000000003 663.6717703983492 L 133.00000000000003 663.6717703983492 L 134.00000000000003 662.6717703983492 L 134.00000000000003 662.6717703983492 L 135 661.6717703983492 L 135 661.6717703983492 L 136.00000000000003 660.6717703983492 L 136.00000000000003 660.6717703983492 L 137 659.6717703983492 L 137 659.6717703983492 L 138 658.6717703983492 L 138 658.6717703983492 L 139.00000000000003 657.6717703983492 L 139.00000000000003 657.6717703983492 L 140 656.6717703983492 L 140 656.6717703983492 L 141 655.6717703983492 L 141 655.6717703983492 L 142.00000000000003 654.6717703983492 L 142.00000000000003 654.6717703983492 L 143 653.6717703983492 L 143 653.6717703983492 L 144.00000000000003 652.6717703983492 L 144.00000000000003 652.6717703983492 L 145.00000000000003 651.6717703983492 L 145.00000000000003 651.6717703983492 L 146 650.6717703983492 L 146 650.6717703983492 L 147 649.6717703983492 L 147 649.6717703983492 L 148.00000000000003 648.6717703983492 L 148.00000000000003 648.6717703983492 L 149 647.6717703983492 L 149 647.6717703983492 L 150.00000000000003 646.6717703983492 L 150.00000000000003 646.6717703983492 L 151.00000000000003 645.6717703983492 L 151.00000000000003 645.6717703983492 L 152 644.6717703983492 L 152 644.6717703983492 L 153.00000000000003 643.6717703983492 L 153.00000000000003 643.6717703983492 L 154 642.6717703983492 L 154 642.6717703983492 L 155 641.6717703983492 L 155 641.6717703983492 L 156.00000000000003 640.6717703983492 L 156.00000000000003 640.6717703983492 L 157 639.6717703983492 L 157 639.6717703983492 L 158 638.6717703983492 L 158 638.6717703983492 L 159.00000000000003 637.6717703983492 L 159.00000000000003 637.6717703983492 L 160 636.6717703983492 L 160 636.6717703983492 L 161 635.6717703983492 L 161 635.6717703983492 L 162.00000000000003 634.6717703983492 L 162.00000000000003 634.6717703983492 L 163 633.6717703983492 L 163 633.6717703983492 L 164 632.6717703983492 L 164 632.6717703983492 L 165.00000000000003 631.6717703983492 L 165.00000000000003 631.6717703983492 L 166 630.6717703983492 L 166 630.6717703983492 L 167.00000000000003 629.6717703983492 L 167.00000000000003 629.6717703983492 L 168.00000000000003 628.6717703983492 L 168.00000000000003 628.6717703983492 L 169 627.6717703983492 L 169 627.6717703983492 L 170.00000000000003 626.6717703983492 L 170.00000000000003 626.6717703983492 L 171.00000000000003 625.6717703983492 L 171.00000000000003 625.6717703983492 L 172 624.6717703983492 L 172 624.6717703983492 L 173.00000000000003 623.6717703983492 L 173.00000000000003 623.6717703983492 L 174 622.6717703983492 L 174 622.6717703983492 L 175 621.6717703983492 L 175 621.6717703983492 L 176.00000000000003 620.6717703983492 L 176.00000000000003 620.6717703983492 L 177 619.6717703983492 L 177 619.6717703983492 L 178 618.6717703983492 L 178 618.6717703983492 L 179.00000000000003 617.6717703983492 L 179.00000000000003 617.6717703983492 L 180 616.6717703983492 L 180 616.6717703983492 L 181 615.6717703983492 L 181 615.6717703983492 L 182.00000000000003 614.6717703983492 L 182.00000000000003 614.6717703983492 L 183 613.6717703983492 L 183 613.6717703983492 L 184 612.6717703983492 L 184 612.6717703983492 L 185.00000000000003 611.6717703983492 L 185.00000000000003 611.6717703983492 L 186 610.6717703983492 L 186 610.6717703983492 L 187.00000000000003 609.6717703983492 L 187.00000000000003 609.6717703983492 L 188.00000000000003 608.6717703983492 L 188.00000000000003 608.6717703983492 L 189 607.6717703983492 L 189 607.6717703983492 L 190.00000000000003 606.6717703983492 L 190.00000000000003 606.6717703983492 L 191 605.6717703983492 L 191 605.6717703983492 L 192 604.6717703983492 L 192 604.6717703983492 L 193.00000000000003 603.6717703983492 L 193.00000000000003 603.6717703983492 L 194 602.6717703983492 L 194 602.6717703983492 L 195 601.6717703983492 L 195 601.6717703983492 L 196.00000000000003 600.6717703983492 L 196.00000000000003 600.6717703983492 L 197 599.6717703983492 L 197 599.6717703983492 L 198 598.6717703983492 L 198 598.6717703983492 L 199.00000000000003 597.6717703983492 L 199.00000000000003 597.6717703983492 L 200 596.6717703983492 L 200 596.6717703983492 L 201 595.6717703983492 L 201 595.6717703983492 L 202.00000000000003 594.6717703983492 L 202.00000000000003 594.6717703983492 L 203 593.6717703983492 L 203 593.6717703983492 L 204.00000000000003 592.6717703983492 L 204.00000000000003 592.6717703983492 L 205.00000000000003 591.6717703983492 L 205.00000000000003 591.6717703983492 L 206 590.6717703983492 L 206 590.6717703983492 L 207.00000000000003 589.6717703983492 L 207.00000000000003 589.6717703983492 L 208.00000000000003 588.6717703983492 L 208.00000000000003 588.6717703983492 L 209 587.6717703983492 L 209 587.6717703983492 L 210.00000000000003 586.6717703983492 L 210.00000000000003 586.6717703983492 L 211 585.6717703983492 L 211 585.6717703983492 L 212 584.6717703983492 L 212 584.6717703983492 L 213 583.6717703983492 L 213 583.6717703983492 L 214 582.6717703983492 L 214 582.6717703983492 L 215 581.6717703983492 L 215 581.6717703983492 L 216 580.6717703983492 L 216 580.6717703983492 L 217 579.6717703983492 L 217 579.6717703983492 L 218 578.6717703983492 L 218 578.6717703983492 L 219.00000000000006 577.6717703983492 L 219.00000000000006 577.6717703983492 L 220 576.6717703983492 L 220 576.6717703983492 L 221 575.6717703983492 L 221 575.6717703983492 L 222.00000000000006 574.6717703983492 L 222.00000000000006 574.6717703983492 L 223 573.6717703983492 L 223 573.6717703983492 L 224 572.6717703983492 L 224 572.6717703983492 L 225.00000000000006 571.6717703983492 L 225.00000000000006 571.6717703983492 L 226 570.6717703983492 L 226 570.6717703983492 L 227 569.6717703983492 L 227 569.6717703983492 L 228 568.6717703983492 L 228 568.6717703983492 L 229 567.6717703983492 L 229 567.6717703983492 L 230 566.6717703983492 L 230 566.6717703983492 L 231 565.6717703983492 L 231 565.6717703983492 L 232 564.6717703983492 L 232 564.6717703983492 L 233 563.6717703983492 L 233 563.6717703983492 L 234 562.6717703983492 L 234 562.6717703983492 L 235 561.6717703983492 L 235 561.6717703983492 L 236.00000000000006 560.6717703983492 L 236.00000000000006 560.6717703983492 L 237 559.6717703983492 L 237 559.6717703983492 L 238 558.6717703983492 L 238 558.6717703983492 L 239.00000000000006 557.6717703983492 L 239.00000000000006 557.6717703983492 L 240 556.6717703983492 L 240 556.6717703983492 L 241 555.6717703983492 L 241 555.6717703983492 L 242.00000000000006 554.6717703983492 L 242.00000000000006 554.6717703983492 L 243 553.6717703983492 L 243 553.6717703983492 L 244 552.6717703983492 L 244 552.6717703983492 L 245 551.6717703983492 L 245 551.6717703983492 L 246 550.6717703983492 L 246 550.6717703983492 L 247 549.6717703983492 L 247 549.6717703983492 L 248 548.6717703983492 L 248 548.6717703983492 L 249 547.6717703983492 L 249 547.6717703983492 L 250 546.6717703983492 L 250 546.6717703983492 L 251 545.6717703983492 L 251 545.6717703983492 L 252 544.6717703983492 L 252 544.6717703983492 L 253 543.6717703983492 L 253 543.6717703983492 L 254 542.6717703983492 L 254 542.6717703983492 L 255 541.6717703983492 L 255 541.6717703983492 L 256.00000000000006 540.6717703983492 L 256.00000000000006 540.6717703983492 L 257 539.6717703983492 L 257 539.6717703983492 L 258 538.6717703983492 L 258 538.6717703983492 L 259.00000000000006 537.6717703983492 L 259.00000000000006 537.6717703983492 L 260 536.6717703983492 L 260 536.6717703983492 L 261 535.6717703983492 L 261 535.6717703983492 L 262 534.6717703983492 L 262 534.6717703983492 L 263 533.6717703983492 L 263 533.6717703983492 L 264 532.6717703983492 L 264 532.6717703983492 L 265.00000000000006 531.6717703983492 L 265.00000000000006 531.6717703983492 L 266 530.6717703983492 L 266 530.6717703983492 L 267 529.6717703983492 L 267 529.6717703983492 L 268 528.6717703983492 L 268 528.6717703983492 L 269 527.6717703983492 L 269 527.6717703983492 L 270 526.6717703983492 L 270 526.6717703983492 L 271.00000000000006 525.6717703983492 L 271.00000000000006 525.6717703983492 L 272 524.6717703983492 L 272 524.6717703983492 L 273 523.6717703983492 L 273 523.6717703983492 L 274 522.6717703983492 L 274 522.6717703983492 L 275 521.6717703983492 L 275 521.6717703983492 L 276.00000000000006 520.6717703983492 L 276.00000000000006 520.6717703983492 L 277 519.6717703983492 L 277 519.6717703983492 L 278 518.6717703983492 L 278 518.6717703983492 L 279 517.6717703983492 L 279 517.6717703983492 L 280 516.6717703983492 L 280 516.6717703983492 L 281 515.6717703983492 L 281 515.6717703983492 L 282.00000000000006 514.6717703983492 L 282.00000000000006 514.6717703983492 L 283 513.6717703983492 L 283 513.6717703983492 L 284 512.6717703983492 L 284 512.6717703983492 L 285 511.6717703983492 L 285 511.6717703983492 L 286 510.67177039834917 L 286 510.67177039834917 L 287 509.67177039834917 L 287 509.67177039834917 L 288.00000000000006 508.67177039834917 L 288.00000000000006 508.67177039834917 L 289 507.67177039834917 L 289 507.67177039834917 L 290 506.6717703983492 L 290 506.6717703983492 L 291 505.67177039834917 L 291 505.67177039834917 L 292 504.67177039834917 L 292 504.67177039834917 L 293.00000000000006 503.67177039834917 L 293.00000000000006 503.67177039834917 L 294.00000000000006 502.67177039834917 L 294.00000000000006 502.67177039834917 L 295 501.67177039834917 L 295 501.67177039834917 L 296 500.6717703983492 L 296 500.6717703983492 L 297 499.67177039834917 L 297 499.67177039834917 L 298 498.67177039834917 L 298 498.67177039834917 L 299.00000000000006 497.67177039834917 L 299.00000000000006 497.67177039834917 L 300 496.67177039834917 L 300 496.67177039834917 L 301 495.67177039834917 L 301 495.67177039834917 L 302 494.6717703983492 L 302 494.6717703983492 L 303 493.67177039834917 L 303 493.67177039834917 L 304 492.67177039834917 L 304 492.67177039834917 L 305.00000000000006 491.67177039834917 L 305.00000000000006 491.67177039834917 L 306 490.67177039834917 L 306 490.67177039834917 L 307 489.6717703983492 L 307 489.6717703983492 L 308 488.6717703983492 L 308 488.6717703983492 L 309 487.67177039834917 L 309 487.67177039834917 L 310.00000000000006 486.67177039834917 L 310.00000000000006 486.67177039834917 L 311.00000000000006 485.67177039834917 L 311.00000000000006 485.67177039834917 L 312 484.67177039834917 L 312 484.67177039834917 L 313 483.6717703983492 L 313 483.6717703983492 L 314 482.67177039834917 L 314 482.67177039834917 L 315 481.67177039834917 L 315 481.67177039834917 L 316.00000000000006 480.67177039834917 L 316.00000000000006 480.67177039834917 L 317 479.67177039834917 L 317 479.67177039834917 L 318 478.67177039834917 L 318 478.67177039834917 L 319 477.6717703983492 L 319 477.6717703983492 L 320 476.67177039834917 L 320 476.67177039834917 L 321 475.67177039834917 L 321 475.67177039834917 L 322.00000000000006 474.67177039834917 L 322.00000000000006 474.67177039834917 L 323 473.67177039834917 L 323 473.67177039834917 L 324 472.6717703983492 L 324 472.6717703983492 L 325 471.6717703983492 L 325 471.6717703983492 L 326 470.67177039834917 L 326 470.67177039834917 L 327 469.67177039834917 L 327 469.67177039834917 L 328.00000000000006 468.67177039834917 L 328.00000000000006 468.67177039834917 L 329 467.67177039834917 L 329 467.67177039834917 L 330 466.6717703983492 L 330 466.6717703983492 L 331 465.67177039834917 L 331 465.67177039834917 L 332 464.67177039834917 L 332 464.67177039834917 L 333.00000000000006 463.67177039834917 L 333.00000000000006 463.67177039834917 L 334 462.67177039834917 L 334 462.67177039834917 L 335 461.67177039834917 L 335 461.67177039834917 L 336 460.6717703983492 L 336 460.6717703983492 L 337 459.67177039834917 L 337 459.67177039834917 L 338 458.67177039834917 L 338 458.67177039834917 L 339.00000000000006 457.67177039834917 L 339.00000000000006 457.67177039834917 L 340.00000000000006 456.67177039834917 L 340.00000000000006 456.67177039834917 L 341.00000000000006 455.67177039834917 L 341.00000000000006 455.67177039834917 L 342 454.6717703983492 L 342 454.6717703983492 L 343.00000000000006 453.67177039834917 L 343.00000000000006 453.67177039834917 L 344.00000000000006 452.67177039834917 L 344.00000000000006 452.67177039834917 L 345 451.6717703983492 L 345 451.6717703983492 L 346.00000000000006 450.67177039834917 L 346.00000000000006 450.67177039834917 L 347.00000000000006 449.67177039834917 L 347.00000000000006 449.67177039834917 L 348 448.67177039834917 L 348 448.67177039834917 L 349.00000000000006 447.67177039834917 L 349.00000000000006 447.67177039834917 L 350.00000000000006 446.67177039834917 L 350.00000000000006 446.67177039834917 L 351 445.67177039834917 L 351 445.67177039834917 L 352.00000000000006 444.67177039834917 L 352.00000000000006 444.67177039834917 L 353 443.67177039834917 L 353 443.67177039834917 L 354 442.67177039834917 L 354 442.67177039834917 L 355.00000000000006 441.67177039834917 L 355.00000000000006 441.67177039834917 L 356.00000000000006 440.67177039834917 L 356.00000000000006 440.67177039834917 L 357 439.67177039834917 L 357 439.67177039834917 L 358.00000000000006 438.67177039834917 L 358.00000000000006 438.67177039834917 L 359 437.67177039834917 L 359 437.67177039834917 L 360.00000000000006 436.67177039834917 L 360.00000000000006 436.67177039834917 L 361.00000000000006 435.67177039834917 L 361.00000000000006 435.67177039834917 L 362 434.67177039834917 L 362 434.67177039834917 L 363 433.6717703983492 L 363 433.6717703983492 L 364 432.6717703983492 L 364 432.6717703983492 L 365 431.67177039834917 L 365 431.67177039834917 L 366.00000000000006 430.67177039834917 L 366.00000000000006 430.67177039834917 L 367.00000000000006 429.67177039834917 L 367.00000000000006 429.67177039834917 L 368.00000000000006 428.67177039834917 L 368.00000000000006 428.67177039834917 L 369 427.6717703983492 L 369 427.6717703983492 L 370 426.67177039834917 L 370 426.67177039834917 L 371 425.67177039834917 L 371 425.67177039834917 L 372.00000000000006 424.67177039834917 L 372.00000000000006 424.67177039834917 L 373.00000000000006 423.67177039834917 L 373.00000000000006 423.67177039834917 L 374.00000000000006 422.67177039834917 L 374.00000000000006 422.67177039834917 L 375 421.6717703983492 L 375 421.6717703983492 L 376 420.67177039834917 L 376 420.67177039834917 L 377.00000000000006 419.67177039834917 L 377.00000000000006 419.67177039834917 L 378.00000000000006 418.67177039834917 L 378.00000000000006 418.67177039834917 L 379.00000000000006 417.67177039834917 L 379.00000000000006 417.67177039834917 L 380 416.6717703983492 L 380 416.6717703983492 L 381 415.6717703983492 L 381 415.6717703983492 L 382 414.67177039834917 L 382 414.67177039834917 L 383.00000000000006 413.67177039834917 L 383.00000000000006 413.67177039834917 L 384.00000000000006 412.67177039834917 L 384.00000000000006 412.67177039834917 L 385.00000000000006 411.67177039834917 L 385.00000000000006 411.67177039834917 L 386 410.6717703983492 L 386 410.6717703983492 L 387 409.6717703983492 L 387 409.6717703983492 L 388 408.67177039834917 L 388 408.67177039834917 L 389.00000000000006 407.67177039834917 L 389.00000000000006 407.67177039834917 L 390.00000000000006 406.67177039834917 L 390.00000000000006 406.67177039834917 L 391.00000000000006 405.67177039834917 L 391.00000000000006 405.67177039834917 L 392 404.6717703983492 L 392 404.6717703983492 L 393 403.67177039834917 L 393 403.67177039834917 L 394 402.67177039834917 L 394 402.67177039834917 L 395.00000000000006 401.67177039834917 L 395.00000000000006 401.67177039834917 L 396.00000000000006 400.67177039834917 L 396.00000000000006 400.67177039834917 L 397.00000000000006 399.67177039834917 L 397.00000000000006 399.67177039834917 L 398 398.6717703983492 L 398 398.6717703983492 L 399 397.67177039834917 L 399 397.67177039834917 L 400.00000000000006 396.67177039834917 L 400.00000000000006 396.67177039834917 L 401.00000000000006 395.67177039834917 L 401.00000000000006 395.67177039834917 L 402.00000000000006 394.67177039834917 L 402.00000000000006 394.67177039834917 L 403 393.6717703983492 L 403 393.6717703983492 L 404 392.6717703983492 L 404 392.6717703983492 L 405 391.67177039834917 L 405 391.67177039834917 L 406.00000000000006 390.67177039834917 L 406.00000000000006 390.67177039834917 L 407.00000000000006 389.67177039834917 L 407.00000000000006 389.67177039834917 L 408.00000000000006 388.67177039834917 L 408.00000000000006 388.67177039834917 L 409 387.6717703983492 L 409 387.6717703983492 L 410 386.67177039834917 L 410 386.67177039834917 L 411 385.67177039834917 L 411 385.67177039834917 L 412.00000000000006 384.67177039834917 L 412.00000000000006 384.67177039834917 L 413.00000000000006 383.67177039834917 L 413.00000000000006 383.67177039834917 L 414.00000000000006 382.67177039834917 L 414.00000000000006 382.67177039834917 L 415 381.6717703983492 L 415 381.6717703983492 L 416 380.67177039834917 L 416 380.67177039834917 L 417.00000000000006 379.67177039834917 L 417.00000000000006 379.67177039834917 L 418.00000000000006 378.67177039834917 L 418.00000000000006 378.67177039834917 L 419.00000000000006 377.67177039834917 L 419.00000000000006 377.67177039834917 L 420.00000000000006 376.67177039834917 L 420.00000000000006 376.67177039834917 L 421 375.6717703983492 L 421 375.6717703983492 L 422 374.67177039834917 L 422 374.67177039834917 L 423.00000000000006 373.67177039834917 L 423.00000000000006 373.67177039834917 L 424.00000000000006 372.67177039834917 L 424.00000000000006 372.67177039834917 L 425.00000000000006 371.67177039834917 L 425.00000000000006 371.67177039834917 L 426 370.6717703983492 L 426 370.6717703983492 L 427 369.67177039834917 L 427 369.67177039834917 L 428 368.67177039834917 L 428 368.67177039834917 L 429.00000000000006 367.67177039834917 L 429.00000000000006 367.67177039834917 L 430.00000000000006 366.67177039834917 L 430.00000000000006 366.67177039834917 L 431.00000000000006 365.67177039834917 L 431.00000000000006 365.67177039834917 L 432 364.6717703983492 L 432 364.6717703983492 L 433 363.67177039834917 L 433 363.67177039834917 L 434.00000000000006 362.67177039834917 L 434.00000000000006 362.67177039834917 L 435.00000000000006 361.67177039834917 L 435.00000000000006 361.67177039834917 L 436.00000000000006 360.67177039834917 L 436.00000000000006 360.67177039834917 L 437.00000000000006 359.67177039834917 L 437.00000000000006 359.67177039834917 L 438 358.6717703983492 L 438 358.6717703983492 L 439 357.67177039834917 L 439 357.67177039834917 L 440.00000000000006 356.67177039834917 L 440.00000000000006 356.67177039834917 L 441.00000000000006 355.67177039834917 L 441.00000000000006 355.67177039834917 L 442.00000000000006 354.67177039834917 L 442.00000000000006 354.67177039834917 L 443 353.6717703983492 L 443 353.6717703983492 L 444 352.6717703983492 L 444 352.6717703983492 L 445 351.67177039834917 L 445 351.67177039834917 L 446.00000000000006 350.67177039834917 L 446.00000000000006 350.67177039834917 L 447.00000000000006 349.67177039834917 L 447.00000000000006 349.67177039834917 L 448 348.6717703983492 L 448 348.6717703983492 L 449 347.6717703983492 L 449 347.6717703983492 L 450 346.67177039834917 L 450 346.67177039834917 L 451 345.67177039834917 L 451 345.67177039834917 L 452.00000000000006 344.67177039834917 L 452.00000000000006 344.67177039834917 L 453.00000000000006 343.67177039834917 L 453.00000000000006 343.67177039834917 L 454.00000000000006 342.67177039834917 L 454.00000000000006 342.67177039834917 L 455 341.6717703983492 L 455 341.6717703983492 L 456 340.67177039834917 L 456 340.67177039834917 L 457.00000000000006 339.67177039834917 L 457.00000000000006 339.67177039834917 L 458.00000000000006 338.67177039834917 L 458.00000000000006 338.67177039834917 L 459.00000000000006 337.67177039834917 L 459.00000000000006 337.67177039834917 L 460 336.6717703983492 L 460 336.6717703983492 L 461 335.6717703983492 L 461 335.6717703983492 L 462 334.67177039834917 L 462 334.67177039834917 L 463.00000000000006 333.67177039834917 L 463.00000000000006 333.67177039834917 L 464.00000000000006 332.67177039834917 L 464.00000000000006 332.67177039834917 L 465.00000000000006 331.67177039834917 L 465.00000000000006 331.67177039834917 L 466 330.6717703983492 L 466 330.6717703983492 L 467 329.67177039834917 L 467 329.67177039834917 L 468 328.67177039834917 L 468 328.67177039834917 L 469.00000000000006 327.67177039834917 L 469.00000000000006 327.67177039834917 L 470.00000000000006 326.67177039834917 L 470.00000000000006 326.67177039834917 L 471.00000000000006 325.67177039834917 L 471.00000000000006 325.67177039834917 L 472 324.6717703983492 L 472 324.6717703983492 L 473 323.67177039834917 L 473 323.67177039834917 L 474.00000000000006 322.67177039834917 L 474.00000000000006 322.67177039834917 L 475.00000000000006 321.67177039834917 L 475.00000000000006 321.67177039834917 L 476.00000000000006 320.67177039834917 L 476.00000000000006 320.67177039834917 L 477 319.6717703983492 L 477 319.6717703983492 L 478 318.6717703983492 L 478 318.6717703983492 L 479 317.6717703983492 L 479 317.6717703983492 L 480.00000000000006 316.67177039834917 L 480.00000000000006 316.67177039834917 L 481.00000000000006 315.67177039834917 L 481.00000000000006 315.67177039834917 L 482 314.6717703983492 L 482 314.6717703983492 L 483.00000000000006 313.67177039834917 L 483.00000000000006 313.67177039834917 L 484 312.6717703983492 L 484 312.6717703983492 L 485 311.6717703983492 L 485 311.6717703983492 L 486.00000000000006 310.67177039834917 L 486.00000000000006 310.67177039834917 L 487.00000000000006 309.67177039834917 L 487.00000000000006 309.67177039834917 L 488.00000000000006 308.67177039834917 L 488.00000000000006 308.67177039834917 L 489 307.6717703983492 L 489 307.6717703983492 L 490 306.6717703983492 L 490 306.6717703983492 L 491.00000000000006 305.67177039834917 L 491.00000000000006 305.67177039834917 L 492.00000000000006 304.67177039834917 L 492.00000000000006 304.67177039834917 L 493.00000000000006 303.67177039834917 L 493.00000000000006 303.67177039834917 L 494 302.6717703983492 L 494 302.6717703983492 L 495 301.6717703983492 L 495 301.6717703983492 L 496 300.6717703983492 L 496 300.6717703983492 L 497.00000000000006 299.67177039834917 L 497.00000000000006 299.67177039834917 L 498.00000000000006 298.67177039834917 L 498.00000000000006 298.67177039834917 L 499 297.6717703983492 L 499 297.6717703983492 L 500.00000000000006 296.67177039834917 L 500.00000000000006 296.67177039834917 L 501 295.6717703983492 L 501 295.6717703983492 L 502 294.6717703983492 L 502 294.6717703983492 L 503.00000000000006 293.67177039834917 L 503.00000000000006 293.67177039834917 L 504.00000000000006 292.67177039834917 L 504.00000000000006 292.67177039834917 L 505.00000000000006 291.67177039834917 L 505.00000000000006 291.67177039834917 L 506 290.6717703983492 L 506 290.6717703983492 L 507 289.6717703983492 L 507 289.6717703983492 L 508.00000000000006 288.67177039834917 L 508.00000000000006 288.67177039834917 L 509.00000000000006 287.67177039834917 L 509.00000000000006 287.67177039834917 L 510.00000000000006 286.67177039834917 L 510.00000000000006 286.67177039834917 L 511 285.6717703983492 L 511 285.6717703983492 L 512 284.6717703983492 L 512 284.6717703983492 L 513 283.6717703983492 L 513 283.6717703983492 L 514 282.67177039834917 L 514 282.67177039834917 L 515 281.67177039834917 L 515 281.67177039834917 L 516 280.6717703983492 L 516 280.6717703983492 L 517 279.67177039834917 L 517 279.67177039834917 L 518 278.6717703983492 L 518 278.6717703983492 L 519 277.6717703983492 L 519 277.6717703983492 L 520 276.67177039834917 L 520 276.67177039834917 L 521 275.67177039834917 L 521 275.67177039834917 L 522 274.67177039834917 L 522 274.67177039834917 L 523 273.6717703983492 L 523 273.6717703983492 L 524 272.6717703983492 L 524 272.6717703983492 L 525 271.6717703983492 L 525 271.6717703983492 L 526 270.67177039834917 L 526 270.67177039834917 L 527 269.67177039834917 L 527 269.67177039834917 L 528 268.6717703983492 L 528 268.6717703983492 L 529 267.6717703983492 L 529 267.6717703983492 L 530 266.6717703983492 L 530 266.6717703983492 L 531 265.67177039834917 L 531 265.67177039834917 L 532 264.67177039834917 L 532 264.67177039834917 L 533 263.6717703983492 L 533 263.6717703983492 L 534 262.67177039834917 L 534 262.67177039834917 L 535 261.6717703983492 L 535 261.6717703983492 L 536 260.6717703983492 L 536 260.6717703983492 L 537 259.67177039834917 L 537 259.67177039834917 L 538 258.67177039834917 L 538 258.67177039834917 L 539 257.67177039834917 L 539 257.67177039834917 L 540 256.6717703983492 L 540 256.6717703983492 L 541 255.67177039834922 L 541 255.67177039834922 L 542 254.67177039834922 L 542 254.67177039834922 L 543 253.67177039834917 L 543 253.67177039834917 L 544 252.67177039834917 L 544 252.67177039834917 L 545 251.67177039834922 L 545 251.67177039834922 L 546 250.67177039834917 L 546 250.67177039834917 L 547 249.67177039834922 L 547 249.67177039834922 L 548 248.67177039834917 L 548 248.67177039834917 L 549 247.67177039834917 L 549 247.67177039834917 L 550 246.67177039834922 L 550 246.67177039834922 L 551 245.67177039834917 L 551 245.67177039834917 L 552 244.67177039834922 L 552 244.67177039834922 L 553 243.67177039834922 L 553 243.67177039834922 L 554 242.67177039834917 L 554 242.67177039834917 L 555 241.67177039834917 L 555 241.67177039834917 L 556 240.67177039834917 L 556 240.67177039834917 L 557 239.67177039834922 L 557 239.67177039834922 L 558 238.67177039834922 L 558 238.67177039834922 L 559 237.67177039834922 L 559 237.67177039834922 L 560 236.67177039834917 L 560 236.67177039834917 L 561 235.67177039834917 L 561 235.67177039834917 L 562 234.67177039834922 L 562 234.67177039834922 L 563 233.67177039834917 L 563 233.67177039834917 L 564 232.67177039834922 L 564 232.67177039834922 L 565 231.67177039834917 L 565 231.67177039834917 L 566 230.67177039834917 L 566 230.67177039834917 L 567 229.67177039834922 L 567 229.67177039834922 L 568 228.67177039834917 L 568 228.67177039834917 L 569 227.67177039834922 L 569 227.67177039834922 L 570 226.67177039834922 L 570 226.67177039834922 L 571 225.67177039834917 L 571 225.67177039834917 L 572 224.67177039834917 L 572 224.67177039834917 L 573 223.67177039834917 L 573 223.67177039834917 L 574 222.67177039834922 L 574 222.67177039834922 L 575 221.67177039834922 L 575 221.67177039834922 L 576 220.67177039834922 L 576 220.67177039834922 L 577 219.67177039834917 L 577 219.67177039834917 L 578 218.67177039834917 L 578 218.67177039834917 L 579 217.67177039834922 L 579 217.67177039834922 L 580 216.67177039834917 L 580 216.67177039834917 L 581 215.67177039834922 L 581 215.67177039834922 L 582 214.67177039834917 L 582 214.67177039834917 L 583 213.67177039834917 L 583 213.67177039834917 L 584 212.67177039834922 L 584 212.67177039834922 L 585 211.67177039834917 L 585 211.67177039834917 L 586 210.67177039834922 L 586 210.67177039834922 L 587 209.67177039834922 L 587 209.67177039834922 L 588 208.67177039834917 L 588 208.67177039834917 L 589 207.67177039834917 L 589 207.67177039834917 L 590 206.67177039834917 L 590 206.67177039834917 L 591 205.67177039834922 L 591 205.67177039834922 L 592 204.67177039834922 L 592 204.67177039834922 L 593 203.67177039834922 L 593 203.67177039834922 L 594 202.67177039834917 L 594 202.67177039834917 L 595 201.67177039834917 L 595 201.67177039834917 L 596 200.67177039834922 L 596 200.67177039834922 L 597.0000000000001 199.67177039834917 L 597.0000000000001 199.67177039834917 L 598 198.67177039834922 L 598 198.67177039834922 L 599 197.67177039834922 L 599 197.67177039834922 L 600 196.67177039834917 L 600 196.67177039834917 L 601 195.67177039834922 L 601 195.67177039834922 L 602.0000000000001 194.67177039834917 L 602.0000000000001 194.67177039834917 L 603 193.67177039834922 L 603 193.67177039834922 L 604 192.67177039834922 L 604 192.67177039834922 L 605 191.67177039834917 L 605 191.67177039834917 L 606 190.67177039834917 L 606 190.67177039834917 L 607 189.67177039834917 L 607 189.67177039834917 L 608 188.67177039834922 L 608 188.67177039834922 L 609.0000000000001 187.67177039834917 L 609.0000000000001 187.67177039834917 L 610 186.67177039834922 L 610 186.67177039834922 L 611 185.67177039834917 L 611 185.67177039834917 L 612 184.67177039834917 L 612 184.67177039834917 L 613 183.67177039834922 L 613 183.67177039834922 L 614.0000000000001 182.67177039834917 L 614.0000000000001 182.67177039834917 L 615 181.67177039834922 L 615 181.67177039834922 L 616 180.67177039834922 L 616 180.67177039834922 L 617 179.67177039834917 L 617 179.67177039834917 L 618 178.67177039834922 L 618 178.67177039834922 L 619.0000000000001 177.67177039834917 L 619.0000000000001 177.67177039834917 L 620 176.67177039834922 L 620 176.67177039834922 L 621 175.67177039834922 L 621 175.67177039834922 L 622 174.67177039834917 L 622 174.67177039834917 L 623 173.67177039834917 L 623 173.67177039834917 L 624 172.67177039834917 L 624 172.67177039834917 L 625 171.67177039834922 L 625 171.67177039834922 L 626.0000000000001 170.67177039834917 L 626.0000000000001 170.67177039834917 L 627 169.67177039834922 L 627 169.67177039834922 L 628 168.67177039834917 L 628 168.67177039834917 L 629 167.67177039834917 L 629 167.67177039834917 L 630 166.67177039834922 L 630 166.67177039834922 L 631.0000000000001 165.67177039834917 L 631.0000000000001 165.67177039834917 L 632 164.67177039834922 L 632 164.67177039834922 L 633 163.67177039834922 L 633 163.67177039834922 L 634 162.67177039834917 L 634 162.67177039834917 L 635 161.67177039834922 L 635 161.67177039834922 L 636.0000000000001 160.67177039834917 L 636.0000000000001 160.67177039834917 L 637 159.67177039834922 L 637 159.67177039834922 L 638 158.67177039834922 L 638 158.67177039834922 L 639 157.67177039834917 L 639 157.67177039834917 L 640 156.67177039834917 L 640 156.67177039834917 L 641 155.67177039834917 L 641 155.67177039834917 L 642 154.67177039834922 L 642 154.67177039834922 L 643.0000000000001 153.67177039834917 L 643.0000000000001 153.67177039834917 L 644 152.67177039834922 L 644 152.67177039834922 L 645.0000000000001 151.6717703983491 L 645.0000000000001 151.6717703983491 L 646 150.67177039834917 L 646 150.67177039834917 L 647 149.67177039834922 L 647 149.67177039834922 L 648.0000000000001 148.67177039834917 L 648.0000000000001 148.67177039834917 L 649 147.67177039834922 L 649 147.67177039834922 L 650 146.67177039834928 L 650 146.67177039834928 L 651 145.67177039834917 L 651 145.67177039834917 L 652 144.67177039834922 L 652 144.67177039834922 L 653.0000000000001 143.67177039834917 L 653.0000000000001 143.67177039834917 L 654 142.67177039834922 L 654 142.67177039834922 L 655.0000000000001 141.67177039834917 L 655.0000000000001 141.67177039834917 L 656 140.67177039834922 L 656 140.67177039834922 L 657 139.67177039834922 L 657 139.67177039834922 L 658 138.67177039834917 L 658 138.67177039834917 L 659 137.67177039834922 L 659 137.67177039834922 L 660.0000000000001 136.67177039834917 L 660.0000000000001 136.67177039834917 L 661 135.67177039834922 L 661 135.67177039834922 L 662.0000000000001 134.6717703983491 L 662.0000000000001 134.6717703983491 L 663 133.67177039834917 L 663 133.67177039834917 L 664 132.67177039834922 L 664 132.67177039834922 L 665.0000000000001 131.67177039834917 L 665.0000000000001 131.67177039834917 L 666 130.67177039834922 L 666 130.67177039834922 L 667 129.67177039834928 L 667 129.67177039834928 L 668 128.67177039834917 L 668 128.67177039834917 L 669 127.67177039834922 L 669 127.67177039834922 L 670 126.67177039834917 L 670 126.67177039834917 L 671 125.67177039834922 L 671 125.67177039834922 L 672.0000000000001 124.67177039834917 L 672.0000000000001 124.67177039834917 L 673 123.67177039834922 L 673 123.67177039834922 L 674 122.67177039834922 L 674 122.67177039834922 L 675 121.67177039834917 L 675 121.67177039834917 L 676 120.67177039834922 L 676 120.67177039834922 L 677.0000000000001 119.67177039834917 L 677.0000000000001 119.67177039834917 L 678 118.67177039834922 L 678 118.67177039834922 L 679.0000000000001 117.67177039834911 L 679.0000000000001 117.67177039834911 L 680 116.67177039834917 L 680 116.67177039834917 L 681 115.67177039834922 L 681 115.67177039834922 L 682.0000000000001 114.67177039834917 L 682.0000000000001 114.67177039834917 L 683 113.67177039834922 L 683 113.67177039834922 L 684 112.67177039834928 L 684 112.67177039834928 L 685 111.67177039834917 L 685 111.67177039834917 L 686.0000000000001 110.67177039834911 L 686.0000000000001 110.67177039834911 L 687 109.67177039834917 L 687 109.67177039834917 L 688 108.67177039834922 L 688 108.67177039834922 L 689.0000000000001 107.67177039834917 L 689.0000000000001 107.67177039834917 L 690 106.67177039834922 L 690 106.67177039834922 L 691 105.67177039834922 L 691 105.67177039834922 L 692 104.67177039834917 L 692 104.67177039834917 L 693 103.67177039834922 L 693 103.67177039834922 L 694 102.67177039834928 L 694 102.67177039834928 L 695 101.67177039834922 L 695 101.67177039834922 L 696.0000000000001 100.67177039834911 L 696.0000000000001 100.67177039834911 L 697 99.67177039834917 L 697 99.67177039834917 L 698 98.67177039834922 L 698 98.67177039834922 L 699.0000000000001 97.67177039834917 L 699.0000000000001 97.67177039834917 L 700 96.67177039834922 L 700 96.67177039834922 L 701 95.67177039834928 L 701 95.67177039834928 L 702 94.67177039834917 L 702 94.67177039834917 L 703.0000000000001 93.67177039834911 L 703.0000000000001 93.67177039834911 L 704 92.67177039834917 L 704 92.67177039834917 L 705 91.67177039834922 L 705 91.67177039834922 L 706.0000000000001 90.67177039834917 L 706.0000000000001 90.67177039834917 L 707 89.67177039834922 L 707 89.67177039834922 L 708 88.67177039834922 L 708 88.67177039834922 L 709 87.67177039834917 L 709 87.67177039834917 L 710.0000000000001 86.67177039834911 L 710.0000000000001 86.67177039834911 L 711 85.67177039834928 L 711 85.67177039834928 L 712 84.67177039834922 L 712 84.67177039834922 L 713.0000000000001 83.67177039834911 L 713.0000000000001 83.67177039834911 L 714 82.67177039834917 L 714 82.67177039834917 L 715 81.67177039834922 L 715 81.67177039834922 L 716.0000000000001 80.67177039834917 L 716.0000000000001 80.67177039834917 L 717 79.67177039834922 L 717 79.67177039834922 L 718 78.67177039834928 L 718 78.67177039834928 L 719 77.67177039834917 L 719 77.67177039834917 L 720.0000000000001 76.67177039834911 L 720.0000000000001 76.67177039834911 L 721 75.67177039834917 L 721 75.67177039834917 L 722 74.67177039834922 L 722 74.67177039834922 L 723.0000000000001 73.67177039834917 L 723.0000000000001 73.67177039834917 L 724 72.67177039834922 L 724 72.67177039834922 L 725 71.67177039834922 L 725 71.67177039834922 L 726 70.67177039834917 L 726 70.67177039834917 L 727.0000000000001 69.67177039834911 L 727.0000000000001 69.67177039834911 L 728 68.67177039834928 L 728 68.67177039834928 L 729 67.67177039834922 L 729 67.67177039834922 L 730.0000000000001 66.67177039834911 L 730.0000000000001 66.67177039834911 L 731 65.67177039834917 L 731 65.67177039834917 L 732 64.67177039834922 L 732 64.67177039834922 L 733.0000000000001 63.67177039834917 L 733.0000000000001 63.67177039834917 L 734 62.671770398349224 L 734 62.671770398349224 L 735 61.67177039834928 L 735 61.67177039834928 L 736 60.67177039834917 L 736 60.67177039834917 L 737.0000000000001 59.67177039834917 L 737.0000000000001 59.67177039834917 L 738 58.67177039834917 L 738 58.67177039834917 L 739 57.67177039834917 L 739 57.67177039834917 L 740.0000000000001 56.67177039834917 L 740.0000000000001 56.67177039834917 L 741 55.67177039834917 L 741 55.67177039834917 L 742 54.67177039834928 L 742 54.67177039834928 L 743 53.67177039834917 L 743 53.67177039834917 L 744.0000000000001 52.671770398349054 L 744.0000000000001 52.671770398349054 L 744.9999999999999 51.67177039834928 L 744.9999999999999 51.67177039834928 L 746 50.67177039834917 L 746 50.67177039834917 L 747.0000000000001 49.67177039834917 L 747.0000000000001 49.67177039834917 L 748 48.67177039834917 L 748 48.67177039834917 L 749 47.67177039834928 L 749 47.67177039834928 L 750.0000000000001 46.67177039834917 L 750.0000000000001 46.67177039834917 L 751 45.67177039834917 L 751 45.67177039834917 L 752 44.67177039834928 L 752 44.67177039834928 L 753 43.67177039834917 L 753 43.67177039834917 L 754.0000000000001 42.67177039834917 L 754.0000000000001 42.67177039834917 L 755 41.67177039834917 L 755 41.67177039834917 L 756 40.67177039834917 L 756 40.67177039834917 L 757.0000000000001 39.67177039834917 L 757.0000000000001 39.67177039834917 L 758 38.67177039834917 L 758 38.67177039834917 L 759 37.67177039834928 L 759 37.67177039834928 L 760 36.67177039834917 L 760 36.67177039834917 L 761.0000000000001 35.671770398349054 L 761.0000000000001 35.671770398349054 L 761.9999999999999 34.67177039834928 L 761.9999999999999 34.67177039834928 L 763 33.67177039834917 L 763 33.67177039834917 L 764.0000000000001 32.67177039834917 L 764.0000000000001 32.67177039834917 L 765 31.671770398349167 L 765 31.671770398349167 L 766 30.67177039834928 L 766 30.67177039834928 L 767.0000000000001 29.671770398349167 L 767.0000000000001 29.671770398349167 L 768 28.671770398349167 L 768 28.671770398349167 L 769 27.67177039834928 L 769 27.67177039834928 L 770 26.671770398349167 L 770 26.671770398349167 L 771.0000000000001 25.671770398349167 L 771.0000000000001 25.671770398349167 L 772 24.671770398349167 L 772 24.671770398349167 L 773 23.671770398349167 L 773 23.671770398349167 L 774.0000000000001 22.671770398349167 L 774.0000000000001 22.671770398349167 L 775 21.671770398349167 L 775 21.671770398349167 L 776 20.67177039834928 L 776 20.67177039834928 L 777 19.671770398349167 L 777 19.671770398349167 L 778.0000000000001 18.671770398349054 L 778.0000000000001 18.671770398349054 L 778.9999999999999 17.67177039834928 L 778.9999999999999 17.67177039834928 L 780 16.671770398349167 L 780 16.671770398349167 L 781.0000000000001 15.671770398349167 L 781.0000000000001 15.671770398349167 L 782 14.671770398349167 L 782 14.671770398349167 L 783 13.671770398349281 L 783 13.671770398349281 L 784.0000000000001 12.671770398349167 L 784.0000000000001 12.671770398349167 L 785 11.671770398349167 L 785 11.671770398349167 L 786 10.671770398349281 L 786 10.671770398349281 L 787 9.671770398349167 L 787 9.671770398349167 L 788.0000000000001 8.671770398349167 L 788.0000000000001 8.671770398349167 L 789 7.671770398349167 L 789 7.671770398349167 L 790 6.671770398349281 L 790 6.671770398349281 L 791.0000000000001 5.671770398349167 L 791.0000000000001 5.671770398349167 L 792 4.671770398349167 L 792 4.671770398349167 L 793 3.671770398349281 L 793 3.671770398349281 L 794 2.6717703983491674 L 794 2.6717703983491674 L 795.0000000000001 1.6717703983490537 L 795.0000000000001 1.6717703983490537 L 795.9999999999999 0.6717703983492811 L 795.9999999999999 0.6717703983492811 L 797 -0.3282296016508326 L 797 -0.3282296016508326 L 798.0000000000001 -1.3282296016508326 L 798.0000000000001 -1.3282296016508326 L 799 -2.3282296016508326 L 799 -2.3282296016508326 L 800 -3.328229601650719" stroke-opacity="0.6980392156862745" stroke-linecap="round" stroke-linejoin="round" stroke-miterlimit="10" stroke-width="4.5"/><path fill="none" stroke="rgb(0,0,0)" paint-order="fill stroke markers" d=" M -5 434.1155433402621 L 806 434.1155433402621" stroke-opacity="0.6980392156862745" stroke-linejoin="round" stroke-miterlimit="10" stroke-width="2.5" stroke-dasharray="2.5,3"/></g></g></svg>