<svg version="1.1" xmlns="http://www.w3.org/2000/svg" xmlns:xlink="http://www.w3.org/1999/xlink" width="1464" height="630"><defs><clipPath id="laTRTZUpRqVR"><path fill="none" stroke="none" d=" M 0 0 L 1464 0 L 1464 630 L 0 630 L 0 0 Z"/></clipPath></defs><g transform="scale(1,1)" clip-path="url(#laTRTZUpRqVR)"><g><path fill="rgb(21,101,192)" stroke="none" paint-order="stroke fill markers" fill-rule="evenodd" d=" M 732.0000000000001 315.0000000000001 L 880.5849056603772 315.0000000000001 L 732.0000000000001 166.41509433962298 Z" fill-opacity="0.4980392156862745"/><path fill="none" stroke="rgb(21,101,192)" paint-order="fill stroke markers" d=" M 732.0000000000001 315.0000000000001 L 880.5849056603772 315.0000000000001 L 732.0000000000001 166.41509433962298 Z" stroke-opacity="0.8" stroke-linecap="round" stroke-linejoin="round" stroke-miterlimit="10" stroke-width="2.5"/><path fill="rgb(21,101,192)" stroke="none" paint-order="stroke fill markers" fill-rule="evenodd" d=" M 732.0000000000001 17.83018867924585 L 880.5849056603772 166.41509433962298 L 732.0000000000001 166.41509433962298 Z" fill-opacity="0.4980392156862745"/><path fill="none" stroke="rgb(21,101,192)" paint-order="fill stroke markers" d=" M 732.0000000000001 17.83018867924585 L 880.5849056603772 166.41509433962298 L 732.0000000000001 166.41509433962298 Z" stroke-opacity="0.8" stroke-linecap="round" stroke-linejoin="round" stroke-miterlimit="10" stroke-width="2.5"/><path fill="rgb(21,101,192)" stroke="none" paint-order="stroke fill markers" fill-rule="evenodd" d=" M 732.0000000000001 315.0000000000001 L 583.415094339623 315.0000000000001 L 732.0000000000001 612.1698113207544 Z" fill-opacity="0.4980392156862745"/><path fill="none" stroke="rgb(21,101,192)" paint-order="fill stroke markers" d=" M 732.0000000000001 315.0000000000001 L 583.415094339623 315.0000000000001 L 732.0000000000001 612.1698113207544 Z" stroke-opacity="0.8" stroke-linecap="round" stroke-linejoin="round" stroke-miterlimit="10" stroke-width="2.5"/><path fill="rgb(241,194,50)" stroke="none" paint-order="stroke fill markers" fill-rule="evenodd" d=" M 655.405516795102 188.87721490830967 L 655.3810775679331 187.32149335019483 L 655.3077840049929 185.7673071014333 L 655.1857084381791 184.21618995621344 L 655.014971341338 182.66967267988892 L 654.7957412113707 181.12928149829824 L 654.5282344019474 179.59653659156388 L 654.2127149099929 178.07295059385828 L 653.8494941151522 176.5600271006164 L 653.4389304724978 175.0592591846686 L 652.9814291587771 173.57212792275806 L 652.4774416725519 172.10010093389667 L 651.9274653886239 170.64463093100252 L 651.332043067186 169.20715428724742 L 650.6917623181832 167.78908961853014 L 650.0072550214127 166.39183638347365 L 649.2791967029349 165.0167735023285 L 648.5083058684106 163.6652579961451 L 647.6953432940226 162.3386236475575 L 646.8411112756818 161.03817968450133 L 645.9464528372574 159.7652094881636 L 645.012250898615 158.5209693264406 L 644.0394274042803 157.3066871141529 L 643.0289424135918 156.12356120124204 L 641.981793153238 154.97275919014353 L 640.899013033115 153.85541678350427 L 639.7816706264758 152.77263666338132 L 638.6308686153773 151.72548740302753 L 637.4477427024664 150.71500241233903 L 636.2334604901787 149.7421789180043 L 634.9892203284558 148.80797697936185 L 633.7162501321179 147.91331854093758 L 632.4158061690619 147.05908652259671 L 631.0891718204742 146.24612394820875 L 629.7376563142908 145.4752331136844 L 628.3625934331457 144.74717479520663 L 626.9653401980892 144.0626674984361 L 625.5472755293719 143.42238674943331 L 624.1097988856168 142.8269644279954 L 622.6543288827227 142.27698814406745 L 621.1823018938612 141.7730006578422 L 619.6951706319508 141.31549934412152 L 618.194402716003 140.90493570146717 L 616.681479222761 140.54171490662648 L 615.1578932250554 140.22619541467185 L 613.6251483183211 139.95868860524868 L 612.0847571367303 139.73945847528134 L 610.5382398604058 139.56872137844022 L 608.987122715186 139.44664581162647 L 607.4329364664245 139.37335224868622 L 605.8772149083096 139.3489130215173 L 604.3214933501948 139.37335224868622 L 602.7673071014333 139.44664581162647 L 601.2161899562134 139.56872137844022 L 599.6696726798889 139.73945847528134 L 598.1292814982983 139.95868860524868 L 596.5965365915639 140.22619541467185 L 595.0729505938583 140.54171490662648 L 593.5600271006164 140.90493570146717 L 592.0592591846686 141.31549934412152 L 590.572127922758 141.7730006578422 L 589.1001009338967 142.27698814406745 L 587.6446309310026 142.82696442799536 L 586.2071542872475 143.42238674943331 L 584.7890896185302 144.0626674984361 L 583.3918363834737 144.7471747952066 L 582.0167735023285 145.4752331136844 L 580.6652579961451 146.24612394820875 L 579.3386236475575 147.05908652259671 L 578.0381796845013 147.91331854093758 L 576.7652094881636 148.80797697936185 L 575.5209693264405 149.7421789180043 L 574.3066871141529 150.71500241233903 L 573.1235612012421 151.72548740302753 L 571.9727591901435 152.77263666338132 L 570.8554167835043 153.85541678350427 L 569.7726366633813 154.9727591901435 L 568.7254874030275 156.12356120124204 L 567.715002412339 157.30668711415288 L 566.7421789180044 158.5209693264406 L 565.8079769793619 159.7652094881636 L 564.9133185409376 161.03817968450133 L 564.0590865225968 162.33862364755748 L 563.2461239482087 163.6652579961451 L 562.4752331136845 165.0167735023285 L 561.7471747952067 166.39183638347365 L 561.0626674984361 167.78908961853014 L 560.4223867494334 169.20715428724742 L 559.8269644279953 170.64463093100252 L 559.2769881440674 172.10010093389667 L 558.7730006578422 173.57212792275803 L 558.3154993441215 175.0592591846686 L 557.9049357014671 176.56002710061637 L 557.5417149066265 178.07295059385825 L 557.2261954146718 179.59653659156388 L 556.9586886052487 181.12928149829824 L 556.7394584752814 182.66967267988892 L 556.5687213784402 184.21618995621344 L 556.4466458116265 185.7673071014333 L 556.3733522486862 187.32149335019483 L 556.3489130215173 188.87721490830967 L 556.3733522486862 190.43293646642448 L 556.4466458116265 191.98712271518602 L 556.5687213784402 193.53823986040587 L 556.7394584752814 195.0847571367304 L 556.9586886052487 196.62514831832107 L 557.2261954146718 198.15789322505543 L 557.5417149066265 199.68147922276103 L 557.9049357014671 201.1944027160029 L 558.3154993441215 202.69517063195067 L 558.7730006578422 204.18230189386128 L 559.2769881440674 205.65432888272267 L 559.8269644279953 207.10979888561678 L 560.4223867494334 208.54727552937186 L 561.0626674984361 209.96534019808914 L 561.7471747952067 211.36259343314566 L 562.4752331136845 212.7376563142908 L 563.2461239482087 214.08917182047423 L 564.0590865225968 215.4158061690618 L 564.9133185409376 216.71625013211795 L 565.8079769793619 217.98922032845564 L 566.7421789180044 219.23346049017874 L 567.715002412339 220.4477427024664 L 568.7254874030275 221.63086861537727 L 569.7726366633813 222.78167062647577 L 570.8554167835043 223.899013033115 L 571.9727591901435 224.981793153238 L 573.1235612012421 226.02894241359178 L 574.306687114153 227.0394274042803 L 575.5209693264405 228.01225089861504 L 576.7652094881636 228.94645283725748 L 578.0381796845013 229.84111127568175 L 579.3386236475575 230.69534329402262 L 580.6652579961451 231.50830586841056 L 582.0167735023285 232.27919670293488 L 583.3918363834737 233.0072550214127 L 584.7890896185302 233.69176231818318 L 586.2071542872475 234.33204306718602 L 587.6446309310026 234.92746538862394 L 589.1001009338967 235.4774416725519 L 590.572127922758 235.9814291587771 L 592.0592591846686 236.43893047249782 L 593.5600271006165 236.84949411515217 L 595.0729505938583 237.21271490999283 L 596.5965365915639 237.5282344019475 L 598.1292814982983 237.79574121137063 L 599.6696726798889 238.01497134133797 L 601.2161899562135 238.18570843817912 L 602.7673071014333 238.3077840049928 L 604.3214933501948 238.38107756793306 L 605.8772149083096 238.40551679510202 L 607.4329364664245 238.38107756793306 L 608.987122715186 238.3077840049928 L 610.5382398604058 238.18570843817912 L 612.0847571367303 238.01497134133797 L 613.6251483183211 237.79574121137063 L 615.1578932250554 237.5282344019475 L 616.681479222761 237.21271490999283 L 618.194402716003 236.84949411515214 L 619.6951706319508 236.43893047249782 L 621.1823018938612 235.9814291587771 L 622.6543288827227 235.4774416725519 L 624.1097988856168 234.92746538862394 L 625.5472755293719 234.33204306718602 L 626.9653401980892 233.6917623181832 L 628.3625934331455 233.00725502141273 L 629.7376563142908 232.27919670293488 L 631.0891718204742 231.50830586841056 L 632.4158061690619 230.69534329402262 L 633.7162501321179 229.84111127568178 L 634.9892203284556 228.94645283725748 L 636.2334604901787 228.01225089861504 L 637.4477427024664 227.03942740428033 L 638.6308686153773 226.0289424135918 L 639.7816706264757 224.98179315323802 L 640.899013033115 223.89901303311507 L 641.981793153238 222.7816706264758 L 643.0289424135918 221.63086861537724 L 644.0394274042803 220.4477427024664 L 645.012250898615 219.23346049017874 L 645.9464528372574 217.9892203284557 L 646.8411112756818 216.71625013211798 L 647.6953432940226 215.41580616906185 L 648.5083058684105 214.08917182047423 L 649.2791967029349 212.73765631429086 L 650.0072550214127 211.36259343314566 L 650.6917623181832 209.96534019808917 L 651.332043067186 208.54727552937186 L 651.9274653886239 207.10979888561678 L 652.4774416725519 205.65432888272267 L 652.9814291587771 204.18230189386128 L 653.4389304724978 202.69517063195073 L 653.8494941151522 201.19440271600294 L 654.2127149099928 199.68147922276108 L 654.5282344019474 198.15789322505543 L 654.7957412113707 196.6251483183211 L 655.014971341338 195.0847571367304 L 655.1857084381791 193.5382398604059 L 655.3077840049929 191.98712271518602 L 655.3810775679331 190.4329364664245 L 655.405516795102 188.87721490830967 Z" fill-opacity="0.4980392156862745"/><path fill="none" stroke="rgb(241,194,50)" paint-order="fill stroke markers" d=" M 655.405516795102 188.87721490830967 L 655.3810775679331 187.32149335019483 L 655.3077840049929 185.7673071014333 L 655.1857084381791 184.21618995621344 L 655.014971341338 182.66967267988892 L 654.7957412113707 181.12928149829824 L 654.5282344019474 179.59653659156388 L 654.2127149099929 178.07295059385828 L 653.8494941151522 176.5600271006164 L 653.4389304724978 175.0592591846686 L 652.9814291587771 173.57212792275806 L 652.4774416725519 172.10010093389667 L 651.9274653886239 170.64463093100252 L 651.332043067186 169.20715428724742 L 650.6917623181832 167.78908961853014 L 650.0072550214127 166.39183638347365 L 649.2791967029349 165.0167735023285 L 648.5083058684106 163.6652579961451 L 647.6953432940226 162.3386236475575 L 646.8411112756818 161.03817968450133 L 645.9464528372574 159.7652094881636 L 645.012250898615 158.5209693264406 L 644.0394274042803 157.3066871141529 L 643.0289424135918 156.12356120124204 L 641.981793153238 154.97275919014353 L 640.899013033115 153.85541678350427 L 639.7816706264758 152.77263666338132 L 638.6308686153773 151.72548740302753 L 637.4477427024664 150.71500241233903 L 636.2334604901787 149.7421789180043 L 634.9892203284558 148.80797697936185 L 633.7162501321179 147.91331854093758 L 632.4158061690619 147.05908652259671 L 631.0891718204742 146.24612394820875 L 629.7376563142908 145.4752331136844 L 628.3625934331457 144.74717479520663 L 626.9653401980892 144.0626674984361 L 625.5472755293719 143.42238674943331 L 624.1097988856168 142.8269644279954 L 622.6543288827227 142.27698814406745 L 621.1823018938612 141.7730006578422 L 619.6951706319508 141.31549934412152 L 618.194402716003 140.90493570146717 L 616.681479222761 140.54171490662648 L 615.1578932250554 140.22619541467185 L 613.6251483183211 139.95868860524868 L 612.0847571367303 139.73945847528134 L 610.5382398604058 139.56872137844022 L 608.987122715186 139.44664581162647 L 607.4329364664245 139.37335224868622 L 605.8772149083096 139.3489130215173 L 604.3214933501948 139.37335224868622 L 602.7673071014333 139.44664581162647 L 601.2161899562134 139.56872137844022 L 599.6696726798889 139.73945847528134 L 598.1292814982983 139.95868860524868 L 596.5965365915639 140.22619541467185 L 595.0729505938583 140.54171490662648 L 593.5600271006164 140.90493570146717 L 592.0592591846686 141.31549934412152 L 590.572127922758 141.7730006578422 L 589.1001009338967 142.27698814406745 L 587.6446309310026 142.82696442799536 L 586.2071542872475 143.42238674943331 L 584.7890896185302 144.0626674984361 L 583.3918363834737 144.7471747952066 L 582.0167735023285 145.4752331136844 L 580.6652579961451 146.24612394820875 L 579.3386236475575 147.05908652259671 L 578.0381796845013 147.91331854093758 L 576.7652094881636 148.80797697936185 L 575.5209693264405 149.7421789180043 L 574.3066871141529 150.71500241233903 L 573.1235612012421 151.72548740302753 L 571.9727591901435 152.77263666338132 L 570.8554167835043 153.85541678350427 L 569.7726366633813 154.9727591901435 L 568.7254874030275 156.12356120124204 L 567.715002412339 157.30668711415288 L 566.7421789180044 158.5209693264406 L 565.8079769793619 159.7652094881636 L 564.9133185409376 161.03817968450133 L 564.0590865225968 162.33862364755748 L 563.2461239482087 163.6652579961451 L 562.4752331136845 165.0167735023285 L 561.7471747952067 166.39183638347365 L 561.0626674984361 167.78908961853014 L 560.4223867494334 169.20715428724742 L 559.8269644279953 170.64463093100252 L 559.2769881440674 172.10010093389667 L 558.7730006578422 173.57212792275803 L 558.3154993441215 175.0592591846686 L 557.9049357014671 176.56002710061637 L 557.5417149066265 178.07295059385825 L 557.2261954146718 179.59653659156388 L 556.9586886052487 181.12928149829824 L 556.7394584752814 182.66967267988892 L 556.5687213784402 184.21618995621344 L 556.4466458116265 185.7673071014333 L 556.3733522486862 187.32149335019483 L 556.3489130215173 188.87721490830967 L 556.3733522486862 190.43293646642448 L 556.4466458116265 191.98712271518602 L 556.5687213784402 193.53823986040587 L 556.7394584752814 195.0847571367304 L 556.9586886052487 196.62514831832107 L 557.2261954146718 198.15789322505543 L 557.5417149066265 199.68147922276103 L 557.9049357014671 201.1944027160029 L 558.3154993441215 202.69517063195067 L 558.7730006578422 204.18230189386128 L 559.2769881440674 205.65432888272267 L 559.8269644279953 207.10979888561678 L 560.4223867494334 208.54727552937186 L 561.0626674984361 209.96534019808914 L 561.7471747952067 211.36259343314566 L 562.4752331136845 212.7376563142908 L 563.2461239482087 214.08917182047423 L 564.0590865225968 215.4158061690618 L 564.9133185409376 216.71625013211795 L 565.8079769793619 217.98922032845564 L 566.7421789180044 219.23346049017874 L 567.715002412339 220.4477427024664 L 568.7254874030275 221.63086861537727 L 569.7726366633813 222.78167062647577 L 570.8554167835043 223.899013033115 L 571.9727591901435 224.981793153238 L 573.1235612012421 226.02894241359178 L 574.306687114153 227.0394274042803 L 575.5209693264405 228.01225089861504 L 576.7652094881636 228.94645283725748 L 578.0381796845013 229.84111127568175 L 579.3386236475575 230.69534329402262 L 580.6652579961451 231.50830586841056 L 582.0167735023285 232.27919670293488 L 583.3918363834737 233.0072550214127 L 584.7890896185302 233.69176231818318 L 586.2071542872475 234.33204306718602 L 587.6446309310026 234.92746538862394 L 589.1001009338967 235.4774416725519 L 590.572127922758 235.9814291587771 L 592.0592591846686 236.43893047249782 L 593.5600271006165 236.84949411515217 L 595.0729505938583 237.21271490999283 L 596.5965365915639 237.5282344019475 L 598.1292814982983 237.79574121137063 L 599.6696726798889 238.01497134133797 L 601.2161899562135 238.18570843817912 L 602.7673071014333 238.3077840049928 L 604.3214933501948 238.38107756793306 L 605.8772149083096 238.40551679510202 L 607.4329364664245 238.38107756793306 L 608.987122715186 238.3077840049928 L 610.5382398604058 238.18570843817912 L 612.0847571367303 238.01497134133797 L 613.6251483183211 237.79574121137063 L 615.1578932250554 237.5282344019475 L 616.681479222761 237.21271490999283 L 618.194402716003 236.84949411515214 L 619.6951706319508 236.43893047249782 L 621.1823018938612 235.9814291587771 L 622.6543288827227 235.4774416725519 L 624.1097988856168 234.92746538862394 L 625.5472755293719 234.33204306718602 L 626.9653401980892 233.6917623181832 L 628.3625934331455 233.00725502141273 L 629.7376563142908 232.27919670293488 L 631.0891718204742 231.50830586841056 L 632.4158061690619 230.69534329402262 L 633.7162501321179 229.84111127568178 L 634.9892203284556 228.94645283725748 L 636.2334604901787 228.01225089861504 L 637.4477427024664 227.03942740428033 L 638.6308686153773 226.0289424135918 L 639.7816706264757 224.98179315323802 L 640.899013033115 223.89901303311507 L 641.981793153238 222.7816706264758 L 643.0289424135918 221.63086861537724 L 644.0394274042803 220.4477427024664 L 645.012250898615 219.23346049017874 L 645.9464528372574 217.9892203284557 L 646.8411112756818 216.71625013211798 L 647.6953432940226 215.41580616906185 L 648.5083058684105 214.08917182047423 L 649.2791967029349 212.73765631429086 L 650.0072550214127 211.36259343314566 L 650.6917623181832 209.96534019808917 L 651.332043067186 208.54727552937186 L 651.9274653886239 207.10979888561678 L 652.4774416725519 205.65432888272267 L 652.9814291587771 204.18230189386128 L 653.4389304724978 202.69517063195073 L 653.8494941151522 201.19440271600294 L 654.2127149099928 199.68147922276108 L 654.5282344019474 198.15789322505543 L 654.7957412113707 196.6251483183211 L 655.014971341338 195.0847571367304 L 655.1857084381791 193.5382398604059 L 655.3077840049929 191.98712271518602 L 655.3810775679331 190.4329364664245 L 655.405516795102 188.87721490830967 Z" stroke-opacity="0.8" stroke-linecap="round" stroke-linejoin="round" stroke-miterlimit="10" stroke-width="2.5"/><path fill="rgb(241,194,50)" stroke="none" paint-order="stroke fill markers" fill-rule="evenodd" d=" M 907.6510869784829 441.12278509169056 L 907.6266477513141 439.5670635335757 L 907.5533541883738 438.0128772848142 L 907.4312786215601 436.4617601395944 L 907.2605415247189 434.91524286326984 L 907.0413113947516 433.37485168167916 L 906.7738045853284 431.8421067749448 L 906.4582850933738 430.3185207772392 L 906.0950642985331 428.8055972839973 L 905.6845006558788 427.3048293680495 L 905.226999342158 425.81769810613895 L 904.7230118559328 424.34567111727756 L 904.1730355720049 422.89020111438344 L 903.5776132505669 421.45272447062837 L 902.9373325015641 420.03465980191106 L 902.2528252047937 418.63740656685457 L 901.5247668863158 417.2623436857094 L 900.7538760517915 415.910828179526 L 899.9409134774035 414.58419383093843 L 899.0866814590627 413.28374986788225 L 898.1920230206383 412.0107796715445 L 897.2578210819959 410.7665395098215 L 896.2849975876612 409.55225729753386 L 895.2745125969727 408.36913138462296 L 894.227363336619 407.21832937352445 L 893.1445832164959 406.1009869668852 L 892.0272408098567 405.01820684676227 L 890.8764387987582 403.97105758640845 L 889.6933128858474 402.96057259571995 L 888.4790306735597 401.9877491013852 L 887.2347905118366 401.05354716274275 L 885.9618203154989 400.15888872431844 L 884.6613763524427 399.3046567059776 L 883.3347420038551 398.49169413158967 L 881.9832264976717 397.72080329706534 L 880.6081636165266 396.99274497858755 L 879.2109103814701 396.30823768181705 L 877.7928457127528 395.6679569328142 L 876.3553690689977 395.07253461137634 L 874.8998990661036 394.52255832744834 L 873.4278720772422 394.0185708412231 L 871.9407408153317 393.5610695275024 L 870.4399728993839 393.1505058848481 L 868.927049406142 392.7872850900074 L 867.4034634084363 392.4717655980528 L 865.870718501702 392.2042587886296 L 864.3303273201113 391.98502865866226 L 862.7838100437868 391.8142915618211 L 861.2326928985669 391.6922159950074 L 859.6785066498054 391.61892243206717 L 858.1227850916906 391.5944832048982 L 856.5670635335757 391.61892243206717 L 855.0128772848142 391.6922159950074 L 853.4617601395944 391.8142915618211 L 851.9152428632699 391.98502865866226 L 850.3748516816792 392.2042587886296 L 848.8421067749448 392.47176559805274 L 847.3185207772392 392.7872850900074 L 845.8055972839973 393.1505058848481 L 844.3048293680495 393.5610695275024 L 842.817698106139 394.0185708412231 L 841.3456711172776 394.52255832744834 L 839.8902011143834 395.0725346113763 L 838.4527244706284 395.6679569328142 L 837.0346598019111 396.30823768181705 L 835.6374065668546 396.9927449785875 L 834.2623436857094 397.72080329706534 L 832.910828179526 398.49169413158967 L 831.5841938309384 399.3046567059776 L 830.2837498678823 400.15888872431844 L 829.0107796715446 401.05354716274275 L 827.7665395098215 401.9877491013852 L 826.5522572975339 402.96057259571995 L 825.369131384623 403.97105758640845 L 824.2183293735244 405.01820684676227 L 823.1009869668852 406.1009869668852 L 822.0182068467623 407.2183293735244 L 820.9710575864084 408.36913138462296 L 819.9605725957199 409.5522572975338 L 818.9877491013852 410.76653950982154 L 818.0535471627428 412.0107796715445 L 817.1588887243184 413.28374986788225 L 816.3046567059777 414.5841938309384 L 815.4916941315896 415.910828179526 L 814.7208032970653 417.2623436857094 L 813.9927449785876 418.63740656685457 L 813.308237681817 420.03465980191106 L 812.6679569328143 421.45272447062837 L 812.0725346113763 422.89020111438344 L 811.5225583274483 424.34567111727756 L 811.0185708412231 425.81769810613895 L 810.5610695275025 427.3048293680495 L 810.150505884848 428.80559728399726 L 809.7872850900073 430.3185207772392 L 809.4717655980528 431.8421067749448 L 809.2042587886295 433.37485168167916 L 808.9850286586623 434.91524286326984 L 808.8142915618212 436.4617601395944 L 808.6922159950074 438.0128772848142 L 808.6189224320672 439.5670635335757 L 808.5944832048982 441.12278509169056 L 808.6189224320672 442.6785066498054 L 808.6922159950074 444.23269289856694 L 808.8142915618212 445.7838100437868 L 808.9850286586623 447.33032732011134 L 809.2042587886295 448.87071850170196 L 809.4717655980528 450.4034634084363 L 809.7872850900073 451.9270494061419 L 810.150505884848 453.43997289938386 L 810.5610695275025 454.9407408153316 L 811.0185708412231 456.42787207724217 L 811.5225583274483 457.89989906610356 L 812.0725346113763 459.3553690689977 L 812.6679569328143 460.79284571275275 L 813.308237681817 462.21091038147006 L 813.9927449785876 463.60816361652655 L 814.7208032970653 464.9832264976717 L 815.4916941315896 466.3347420038551 L 816.3046567059777 467.66137635244274 L 817.1588887243184 468.9618203154988 L 818.0535471627427 470.2347905118366 L 818.9877491013852 471.4790306735597 L 819.9605725957199 472.6933128858473 L 820.9710575864084 473.87643879875816 L 822.0182068467623 475.0272408098567 L 823.1009869668852 476.1445832164959 L 824.2183293735244 477.2273633366189 L 825.369131384623 478.2745125969727 L 826.5522572975339 479.2849975876612 L 827.7665395098215 480.2578210819959 L 829.0107796715445 481.1920230206384 L 830.2837498678823 482.0866814590627 L 831.5841938309385 482.9409134774035 L 832.910828179526 483.7538760517915 L 834.2623436857094 484.52476688631583 L 835.6374065668546 485.25282520479357 L 837.0346598019111 485.93733250156413 L 838.4527244706284 486.5776132505669 L 839.8902011143834 487.1730355720049 L 841.3456711172776 487.7230118559328 L 842.817698106139 488.226999342158 L 844.3048293680495 488.6845006558787 L 845.8055972839974 489.0950642985331 L 847.3185207772392 489.4582850933738 L 848.8421067749448 489.7738045853284 L 850.3748516816792 490.0413113947516 L 851.9152428632698 490.26054152471886 L 853.4617601395944 490.43127862156 L 855.0128772848142 490.55335418837376 L 856.5670635335757 490.626647751314 L 858.1227850916905 490.6510869784829 L 859.6785066498054 490.626647751314 L 861.2326928985669 490.55335418837376 L 862.7838100437868 490.43127862156 L 864.3303273201113 490.26054152471886 L 865.870718501702 490.0413113947516 L 867.4034634084363 489.7738045853284 L 868.9270494061419 489.4582850933738 L 870.4399728993839 489.0950642985331 L 871.9407408153317 488.6845006558787 L 873.4278720772422 488.226999342158 L 874.8998990661036 487.7230118559328 L 876.3553690689977 487.1730355720049 L 877.7928457127528 486.5776132505669 L 879.2109103814701 485.93733250156413 L 880.6081636165266 485.2528252047937 L 881.9832264976717 484.52476688631583 L 883.3347420038551 483.7538760517915 L 884.6613763524427 482.9409134774035 L 885.9618203154989 482.0866814590627 L 887.2347905118365 481.1920230206384 L 888.4790306735597 480.2578210819959 L 889.6933128858473 479.2849975876612 L 890.8764387987582 478.2745125969727 L 892.0272408098567 477.22736333661896 L 893.1445832164959 476.144583216496 L 894.227363336619 475.0272408098567 L 895.2745125969727 473.87643879875816 L 896.2849975876612 472.6933128858473 L 897.2578210819959 471.47903067355963 L 898.1920230206383 470.23479051183665 L 899.0866814590627 468.9618203154989 L 899.9409134774035 467.66137635244274 L 900.7538760517914 466.3347420038552 L 901.5247668863158 464.98322649767175 L 902.2528252047936 463.60816361652655 L 902.9373325015641 462.21091038147006 L 903.5776132505669 460.79284571275275 L 904.1730355720049 459.3553690689977 L 904.7230118559328 457.89989906610356 L 905.226999342158 456.4278720772422 L 905.6845006558788 454.94074081533165 L 906.0950642985331 453.43997289938386 L 906.4582850933738 451.92704940614203 L 906.7738045853284 450.4034634084363 L 907.0413113947516 448.870718501702 L 907.2605415247189 447.33032732011134 L 907.4312786215601 445.78381004378684 L 907.5533541883738 444.23269289856694 L 907.6266477513141 442.6785066498054 L 907.6510869784829 441.1227850916906 Z" fill-opacity="0.4980392156862745"/><path fill="none" stroke="rgb(241,194,50)" paint-order="fill stroke markers" d=" M 907.6510869784829 441.12278509169056 L 907.6266477513141 439.5670635335757 L 907.5533541883738 438.0128772848142 L 907.4312786215601 436.4617601395944 L 907.2605415247189 434.91524286326984 L 907.0413113947516 433.37485168167916 L 906.7738045853284 431.8421067749448 L 906.4582850933738 430.3185207772392 L 906.0950642985331 428.8055972839973 L 905.6845006558788 427.3048293680495 L 905.226999342158 425.81769810613895 L 904.7230118559328 424.34567111727756 L 904.1730355720049 422.89020111438344 L 903.5776132505669 421.45272447062837 L 902.9373325015641 420.03465980191106 L 902.2528252047937 418.63740656685457 L 901.5247668863158 417.2623436857094 L 900.7538760517915 415.910828179526 L 899.9409134774035 414.58419383093843 L 899.0866814590627 413.28374986788225 L 898.1920230206383 412.0107796715445 L 897.2578210819959 410.7665395098215 L 896.2849975876612 409.55225729753386 L 895.2745125969727 408.36913138462296 L 894.227363336619 407.21832937352445 L 893.1445832164959 406.1009869668852 L 892.0272408098567 405.01820684676227 L 890.8764387987582 403.97105758640845 L 889.6933128858474 402.96057259571995 L 888.4790306735597 401.9877491013852 L 887.2347905118366 401.05354716274275 L 885.9618203154989 400.15888872431844 L 884.6613763524427 399.3046567059776 L 883.3347420038551 398.49169413158967 L 881.9832264976717 397.72080329706534 L 880.6081636165266 396.99274497858755 L 879.2109103814701 396.30823768181705 L 877.7928457127528 395.6679569328142 L 876.3553690689977 395.07253461137634 L 874.8998990661036 394.52255832744834 L 873.4278720772422 394.0185708412231 L 871.9407408153317 393.5610695275024 L 870.4399728993839 393.1505058848481 L 868.927049406142 392.7872850900074 L 867.4034634084363 392.4717655980528 L 865.870718501702 392.2042587886296 L 864.3303273201113 391.98502865866226 L 862.7838100437868 391.8142915618211 L 861.2326928985669 391.6922159950074 L 859.6785066498054 391.61892243206717 L 858.1227850916906 391.5944832048982 L 856.5670635335757 391.61892243206717 L 855.0128772848142 391.6922159950074 L 853.4617601395944 391.8142915618211 L 851.9152428632699 391.98502865866226 L 850.3748516816792 392.2042587886296 L 848.8421067749448 392.47176559805274 L 847.3185207772392 392.7872850900074 L 845.8055972839973 393.1505058848481 L 844.3048293680495 393.5610695275024 L 842.817698106139 394.0185708412231 L 841.3456711172776 394.52255832744834 L 839.8902011143834 395.0725346113763 L 838.4527244706284 395.6679569328142 L 837.0346598019111 396.30823768181705 L 835.6374065668546 396.9927449785875 L 834.2623436857094 397.72080329706534 L 832.910828179526 398.49169413158967 L 831.5841938309384 399.3046567059776 L 830.2837498678823 400.15888872431844 L 829.0107796715446 401.05354716274275 L 827.7665395098215 401.9877491013852 L 826.5522572975339 402.96057259571995 L 825.369131384623 403.97105758640845 L 824.2183293735244 405.01820684676227 L 823.1009869668852 406.1009869668852 L 822.0182068467623 407.2183293735244 L 820.9710575864084 408.36913138462296 L 819.9605725957199 409.5522572975338 L 818.9877491013852 410.76653950982154 L 818.0535471627428 412.0107796715445 L 817.1588887243184 413.28374986788225 L 816.3046567059777 414.5841938309384 L 815.4916941315896 415.910828179526 L 814.7208032970653 417.2623436857094 L 813.9927449785876 418.63740656685457 L 813.308237681817 420.03465980191106 L 812.6679569328143 421.45272447062837 L 812.0725346113763 422.89020111438344 L 811.5225583274483 424.34567111727756 L 811.0185708412231 425.81769810613895 L 810.5610695275025 427.3048293680495 L 810.150505884848 428.80559728399726 L 809.7872850900073 430.3185207772392 L 809.4717655980528 431.8421067749448 L 809.2042587886295 433.37485168167916 L 808.9850286586623 434.91524286326984 L 808.8142915618212 436.4617601395944 L 808.6922159950074 438.0128772848142 L 808.6189224320672 439.5670635335757 L 808.5944832048982 441.12278509169056 L 808.6189224320672 442.6785066498054 L 808.6922159950074 444.23269289856694 L 808.8142915618212 445.7838100437868 L 808.9850286586623 447.33032732011134 L 809.2042587886295 448.87071850170196 L 809.4717655980528 450.4034634084363 L 809.7872850900073 451.9270494061419 L 810.150505884848 453.43997289938386 L 810.5610695275025 454.9407408153316 L 811.0185708412231 456.42787207724217 L 811.5225583274483 457.89989906610356 L 812.0725346113763 459.3553690689977 L 812.6679569328143 460.79284571275275 L 813.308237681817 462.21091038147006 L 813.9927449785876 463.60816361652655 L 814.7208032970653 464.9832264976717 L 815.4916941315896 466.3347420038551 L 816.3046567059777 467.66137635244274 L 817.1588887243184 468.9618203154988 L 818.0535471627427 470.2347905118366 L 818.9877491013852 471.4790306735597 L 819.9605725957199 472.6933128858473 L 820.9710575864084 473.87643879875816 L 822.0182068467623 475.0272408098567 L 823.1009869668852 476.1445832164959 L 824.2183293735244 477.2273633366189 L 825.369131384623 478.2745125969727 L 826.5522572975339 479.2849975876612 L 827.7665395098215 480.2578210819959 L 829.0107796715445 481.1920230206384 L 830.2837498678823 482.0866814590627 L 831.5841938309385 482.9409134774035 L 832.910828179526 483.7538760517915 L 834.2623436857094 484.52476688631583 L 835.6374065668546 485.25282520479357 L 837.0346598019111 485.93733250156413 L 838.4527244706284 486.5776132505669 L 839.8902011143834 487.1730355720049 L 841.3456711172776 487.7230118559328 L 842.817698106139 488.226999342158 L 844.3048293680495 488.6845006558787 L 845.8055972839974 489.0950642985331 L 847.3185207772392 489.4582850933738 L 848.8421067749448 489.7738045853284 L 850.3748516816792 490.0413113947516 L 851.9152428632698 490.26054152471886 L 853.4617601395944 490.43127862156 L 855.0128772848142 490.55335418837376 L 856.5670635335757 490.626647751314 L 858.1227850916905 490.6510869784829 L 859.6785066498054 490.626647751314 L 861.2326928985669 490.55335418837376 L 862.7838100437868 490.43127862156 L 864.3303273201113 490.26054152471886 L 865.870718501702 490.0413113947516 L 867.4034634084363 489.7738045853284 L 868.9270494061419 489.4582850933738 L 870.4399728993839 489.0950642985331 L 871.9407408153317 488.6845006558787 L 873.4278720772422 488.226999342158 L 874.8998990661036 487.7230118559328 L 876.3553690689977 487.1730355720049 L 877.7928457127528 486.5776132505669 L 879.2109103814701 485.93733250156413 L 880.6081636165266 485.2528252047937 L 881.9832264976717 484.52476688631583 L 883.3347420038551 483.7538760517915 L 884.6613763524427 482.9409134774035 L 885.9618203154989 482.0866814590627 L 887.2347905118365 481.1920230206384 L 888.4790306735597 480.2578210819959 L 889.6933128858473 479.2849975876612 L 890.8764387987582 478.2745125969727 L 892.0272408098567 477.22736333661896 L 893.1445832164959 476.144583216496 L 894.227363336619 475.0272408098567 L 895.2745125969727 473.87643879875816 L 896.2849975876612 472.6933128858473 L 897.2578210819959 471.47903067355963 L 898.1920230206383 470.23479051183665 L 899.0866814590627 468.9618203154989 L 899.9409134774035 467.66137635244274 L 900.7538760517914 466.3347420038552 L 901.5247668863158 464.98322649767175 L 902.2528252047936 463.60816361652655 L 902.9373325015641 462.21091038147006 L 903.5776132505669 460.79284571275275 L 904.1730355720049 459.3553690689977 L 904.7230118559328 457.89989906610356 L 905.226999342158 456.4278720772422 L 905.6845006558788 454.94074081533165 L 906.0950642985331 453.43997289938386 L 906.4582850933738 451.92704940614203 L 906.7738045853284 450.4034634084363 L 907.0413113947516 448.870718501702 L 907.2605415247189 447.33032732011134 L 907.4312786215601 445.78381004378684 L 907.5533541883738 444.23269289856694 L 907.6266477513141 442.6785066498054 L 907.6510869784829 441.1227850916906 Z" stroke-opacity="0.8" stroke-linecap="round" stroke-linejoin="round" stroke-miterlimit="10" stroke-width="2.5"/><path fill="none" stroke="rgb(28,28,31)" paint-order="fill stroke markers" d=" M 1029.1698113207544 315.0000000000001 C 1029.1698113207544 479.12235490254693 896.1223549025469 612.1698113207544 732.0000000000001 612.1698113207544 C 567.8776450974533 612.1698113207544 434.83018867924585 479.12235490254693 434.83018867924585 315.0000000000001 C 434.83018867924585 150.8776450974533 567.8776450974533 17.83018867924585 732.0000000000001 17.83018867924585 C 896.1223549025469 17.83018867924585 1029.1698113207544 150.8776450974533 1029.1698113207544 315.0000000000001 Z" stroke-opacity="1" stroke-linecap="round" stroke-linejoin="round" stroke-miterlimit="10" stroke-width="6.5"/><path fill="none" stroke="rgb(28,28,31)" paint-order="fill stroke markers" d=" M 655.405516795102 188.87721490830967 C 655.405516795102 216.23094072540079 633.2309407254007 238.40551679510205 605.8772149083096 238.40551679510205 C 578.5234890912185 238.40551679510205 556.3489130215172 216.23094072540079 556.3489130215172 188.87721490830967 C 556.3489130215172 161.5234890912185 578.5234890912185 139.34891302151726 605.8772149083096 139.34891302151726 C 633.2309407254007 139.34891302151726 655.405516795102 161.5234890912185 655.405516795102 188.87721490830967 Z" stroke-opacity="1" stroke-linecap="round" stroke-linejoin="round" stroke-miterlimit="10" stroke-width="6.5"/><path fill="none" stroke="rgb(28,28,31)" paint-order="fill stroke markers" d=" M 907.651086978483 441.12278509169056 C 907.651086978483 468.4765109087817 885.4765109087817 490.6510869784829 858.1227850916906 490.6510869784829 C 830.7690592745995 490.6510869784829 808.5944832048982 468.4765109087817 808.5944832048982 441.12278509169056 C 808.5944832048982 413.7690592745994 830.7690592745995 391.59448320489815 858.1227850916906 391.59448320489815 C 885.4765109087817 391.59448320489815 907.651086978483 413.7690592745994 907.651086978483 441.12278509169056 Z" stroke-opacity="1" stroke-linecap="round" stroke-linejoin="round" stroke-miterlimit="10" stroke-width="6.5"/><path fill="none" stroke="rgb(0,0,0)" paint-order="fill stroke markers" d=" M 732.0000000000001 612.1698113207544 L 732.0000000000001 17.83018867924585" stroke-opacity="1" stroke-linecap="round" stroke-linejoin="round" stroke-miterlimit="10" stroke-width="6.5"/><path fill="none" stroke="rgb(0,0,0)" paint-order="fill stroke markers" d=" M 583.415094339623 315.0000000000001 L 880.5849056603772 315.0000000000001" stroke-opacity="1" stroke-linecap="round" stroke-linejoin="round" stroke-miterlimit="10" stroke-width="6.5"/><path fill="none" stroke="rgb(0,0,0)" paint-order="fill stroke markers" d=" M 732.0000000000001 612.1698113207544 L 583.415094339623 315.0000000000001" stroke-opacity="1" stroke-linecap="round" stroke-linejoin="round" stroke-miterlimit="10" stroke-width="6.5"/><path fill="none" stroke="rgb(0,0,0)" paint-order="fill stroke markers" d=" M 880.5849056603772 315.0000000000001 L 732.0000000000001 166.41509433962298" stroke-opacity="1" stroke-linecap="round" stroke-linejoin="round" stroke-miterlimit="10" stroke-width="6.5"/><path fill="none" stroke="rgb(0,0,0)" paint-order="fill stroke markers" d=" M 880.5849056603772 166.41509433962298 L 732.0000000000001 17.83018867924585" stroke-opacity="1" stroke-linecap="round" stroke-linejoin="round" stroke-miterlimit="10" stroke-width="6.5"/><path fill="none" stroke="rgb(0,0,0)" paint-order="fill stroke markers" d=" M 732.0000000000001 166.41509433962298 L 880.5849056603772 166.41509433962298" stroke-opacity="1" stroke-linecap="round" stroke-linejoin="round" stroke-miterlimit="10" stroke-width="6.5"/></g></g></svg>